<?xml version="1.0" encoding="utf-8"?>
<svg version="1.1" id="Layer_1"
xmlns="http://www.w3.org/2000/svg"
xmlns:xlink="http://www.w3.org/1999/xlink"
xmlns:author="http://www.sothink.com"
width="30px" height="30px"
xml:space="preserve">
<g id="104" transform="matrix(1, 0, 0, 1, 15, 15)">
<path style="fill:#101010;fill-opacity:1" d="M-3.4,-9.6L-3.25 -10.1L-2.9 -11L-2.8 -11.05L-2.2 -10.9L-1.6 -10.3L-1.5 -10.25L-1.4 -10.25L-1.2 -10L-1.2 -9.8L-0.75 -9.95L-0.1 -10.3L-0.05 -10.35L0 -10.35L0 -10.4L0.25 -10.55L0.5 -10.7L1.15 -11.15L1.3 -11.25L1.55 -11.5L1.6 -11.6L1.85 -11.75L1.95 -11.85L2.2 -12.1L2.35 -12.2L2.6 -12.45L3.2 -12.95L3.8 -13.55L3.8 -13.45L3.95 -13.55Q4.65 -14.15 5.3 -14.45L5.65 -14.55L6.35 -14.8L6.3 -14.8L6.6 -14.9L6.75 -14.85L7 -15L7.8 -14.75L8 -14.75L8.25 -14.7L8.35 -14.65Q9.3 -14.4 8.85 -14.45L8.8 -14.45L10.95 -13.45L11.1 -13.3L11.25 -13.25L11.75 -12.95L11.8 -12.95L11.9 -12.9L13.5 -11.85L13.8 -11.6L15 -10.45L13.45 -9.2L13.1 -8.95L13.05 -8.9L11.95 -8.05L10.25 -6.35L9.95 -6.25L9.95 -6.15L9.8 -5.9L9.65 -5.85L9.6 -5.8L9.05 -5.35L8.75 -5.15L8.6 -5.1L8.5 -5L8.05 -4.8L8.6 -3.95L8.65 -3.95L9.35 -2.55L9.35 -2.5L9.4 -2.25L9.5 -2.05L9.7 -1.25L9.85 -0.75L9.85 -0.55L9.95 -0.4L9.95 -0.05L10.1 0.95L10.1 1L10.2 1.45L10.2 1.5L10.25 2.2L10.3 2.95L10.25 3.95L10.15 4.5L10.15 4.6L9.9 6.05L9.85 6.1L9.65 6.85L9.35 8Q9.05 8.85 9.25 7.95L9.25 7.9L9.05 8.4L9.05 8.45L8.8 8.9L8.6 9.45L8.2 10L8.2 10.05L8.1 10.25L7.9 10.65L7.75 10.75L7.45 11.15L6.9 11.65L6.65 11.95L6.6 12L6.5 12.15L6.05 12.5L5.7 12.75L5.55 12.8L5.5 12.8L5.3 13L4.25 13.75L3.95 13.75L3.8 14Q2.05 14.9 0.95 14.95L0.7 14.9Q0.35 15.15 -0.05 14.9L-0.15 14.9L-0.3 14.8L-0.6 14.75L-1.2 14.55L-1.3 14.55L-1.5 14.5L-1.6 14.45L-1.9 14.5L-2 14.5L-2.2 14.55L-2.5 14.5L-2.65 14.55L-3.25 14.7L-3.8 14.85L-4.15 14.95L-4.3 14.95L-4.4 14.95L-4.5 14.95L-4.55 14.95L-7.3 14.3L-8 14L-8.15 13.75L-8.3 13.75L-8.65 13.6L-8.75 13.5L-8.8 13.5L-9.25 13.25L-9.4 13.1L-9.65 12.95L-9.65 13Q-10.25 12.5 -11 12.05L-11.3 11.9L-11.3 11.85L-11.4 11.65L-11.55 11.65L-11.7 11.45L-11.75 11.4L-11.85 11.25L-12 11.1L-12.05 11L-12.15 10.9L-12.3 10.7L-12.4 10.65L-12.55 10.45L-12.75 10.1L-12.9 9.85L-12.95 9.65L-13.15 9.5L-13.85 7.95L-14.05 7.5L-14.1 7.4L-14.15 7.15L-14.1 7.05L-14.15 7.05L-14.35 6.8L-14.5 6.05L-14.9 4.5L-14.95 3.95L-15 2.95L-14.95 1.45L-14.85 1L-14.75 0.75L-14.75 0.5L-14.7 0.15L-14.55 -0.05L-14.55 -0.3L-14.15 -1.9L-13.9 -2.55Q-13.35 -4.05 -12.45 -4.9L-12.15 -5.05L-12 -4.95L-12 -5.15L-11.8 -5.45L-11.55 -5.65L-11.5 -5.65L-11.45 -5.7L-11 -5.8L-10.85 -5.95L-10.6 -6.05L-10 -6.2L-10.1 -6.2L-9.8 -6.3L-9.65 -6.35L-9.4 -6.35L-9.35 -6.35L-9.15 -6.35L-9 -6.35L-8.85 -6.4L-8.8 -6.4L-7.5 -6.35L-7.3 -6.35L-6.4 -6.3L-5.3 -6L-5.15 -5.9L-5 -6L-4.8 -5.95L-4.75 -5.95L-4.35 -5.85L-4.25 -5.85L-3.8 -5.75L-3.65 -5.7L-3.6 -5.75L-3.65 -5.95L-3.65 -6.05L-3.65 -6.3L-3.65 -6.35L-3.65 -6.5L-3.65 -6.65L-3.55 -7.3L-3.55 -7.35L-3.55 -7.55L-3.55 -7.6L-3.4 -9.15L-3.35 -9.3L-3.4 -9.6M13.7,-10.65L13.05 -11.15L12.4 -11.6L11.55 -12.05L11.55 -12.1L11.4 -12.2L10.95 -12.45L10.8 -12.55L10.75 -12.6L10.65 -12.65L10.6 -12.65L8.55 -13.55L8.55 -13.6L8.2 -13.7L8.15 -13.8L8 -13.85L7.75 -13.9L7.7 -13.95L7.65 -13.95Q7.45 -14.05 7.4 -14.1L7.3 -14.1L7 -14.1L6.85 -14.1L6.6 -14L6.55 -13.95L5.95 -13.75L5.6 -13.6L4.4 -12.85L3.75 -12.3L3.5 -12.2L3.45 -12.1L3.25 -11.9L3.2 -11.85L3.15 -11.75L3.1 -11.75L2.9 -11.6L2.75 -11.45L2.6 -11.4L2.5 -11.2L2.35 -11.1L1.95 -10.8L1.85 -10.7L1.65 -10.6L1.6 -10.55L1.5 -10.4L0.95 -10L0.75 -9.9L0.7 -9.85L0.5 -9.7L0.45 -9.65L0.3 -9.6L0.25 -9.55L-0.4 -9.15L-0.45 -9.15L-0.75 -9.05L-0.85 -9L-0.95 -8.9L-1.05 -8.9L-1.1 -8.9L-1.1 -8.85L-1.3 -8.85L-1.45 -8.8L-1.6 -8.8L-1.6 -8.75L-1.75 -8.75L-1.9 -8.75L-2.05 -8.85L-2.05 -9L-2 -9.05L-2.05 -9.15L-2 -9.45L-2 -9.5L-2 -9.6L-2 -9.65L-1.95 -9.7L-2 -9.75L-2.05 -9.8L-2.25 -9.9L-2.4 -9.9L-2.45 -9.95L-2.5 -9.95L-2.5 -9.9L-2.6 -9.4L-2.65 -9.35L-2.65 -9.2L-2.65 -9L-2.8 -7.55L-2.8 -7.35L-2.8 -7.25L-2.8 -7.2L-2.85 -6.6L-2.85 -6.5L-2.85 -6.35L-2.85 -6.3L-2.85 -6.05L-2.85 -5.95L-2.95 -5.7L-2.95 -5.65L-2.95 -5.4L-2.95 -5.15L-3 -4.9L-3 -4.85L-3 -4.8L-3.1 -4.75L-3.25 -4.75L-3.3 -4.75L-3.45 -4.75L-3.65 -4.8L-3.75 -4.8L-3.95 -4.8L-4.05 -4.85L-4.35 -4.95L-4.4 -5L-4.5 -5L-4.85 -5.05L-4.9 -5.05L-5.1 -5.1L-5.1 -5.15L-5.15 -5.15L-5.25 -5.15L-5.5 -5.15L-6.45 -5.4L-7.3 -5.45L-7.6 -5.45L-8.65 -5.55L-8.8 -5.5L-8.85 -5.5L-9 -5.45L-9.1 -5.45L-9.25 -5.45L-9.35 -5.45L-9.4 -5.45L-9.45 -5.35L-9.75 -5.25L-9.95 -5.3L-10.4 -5.2L-10.4 -5.15L-10.6 -5.1L-10.75 -5.1L-10.9 -4.95L-11.1 -4.9L-11.4 -4.7L-11.55 -4.6L-11.6 -4.55L-11.85 -4.35Q-11.85 -4.3 -11.95 -4.3L-13.2 -2.15L-13.4 -1.6L-13.4 -1.55L-13.8 -0.1L-13.9 0L-13.9 0.1L-13.9 0.15L-13.9 0.3L-13.95 0.7L-14 0.8L-14.05 1.1L-14.15 1.6L-14.2 2.95L-14.2 3.85L-14.1 4.35L-13.75 5.8L-13.75 5.85L-13.6 6.5L-13.6 6.65L-13.55 6.75L-13.5 6.85L-13.45 6.9L-13.35 7.25L-13.2 7.4L-13.15 7.55L-12.6 8.85L-12.45 8.95L-12.4 9.15L-12.3 9.25L-12.25 9.4L-12.1 9.5L-12.05 9.65L-12 9.7L-12 9.8L-11.95 9.85L-11.8 10.05L-11.65 10.15L-11.3 10.65L-11.25 10.7L-11.15 10.8L-11 11L-10.85 11.15L-10.75 11.2L-10.55 11.3L-9.4 12.1L-9.25 12.2L-8.45 12.7L-8.35 12.75L-8.25 12.8L-8.2 12.85L-8.05 12.95L-7.85 13.1L-7.75 13.1L-7.65 13.15L-7.3 13.35Q-5.65 14.1 -4.55 14.05L-4.5 14L-4.3 14.05L-4 14L-3.25 13.8L-2.8 13.7L-2.75 13.7L-2.65 13.7L-2.4 13.7L-2.25 13.65L-2.1 13.65L-1.85 13.65L-1.8 13.6L-1.75 13.65L-1.6 13.65L-1.4 13.6L-1.2 13.7L-1.15 13.7L-1.05 13.7L-0.3 13.9L-0.25 13.95L-0.15 13.95L-0.1 14L0.05 14L0.35 14.1L0.4 14.1L0.65 14.1L0.7 14.15L0.9 14.05Q1.9 14 3.45 13.15L3.55 13.1L3.6 13.1L3.75 13L3.8 13L4.95 12.2L5.1 12.15L5.15 12.05L5.3 11.95L5.4 11.95L5.55 11.75L5.6 11.7L6.05 11.4L6.15 11.3L6.2 11.3L6.3 11.2L6.4 11.15L6.4 11.1L6.5 11L6.6 10.85L6.75 10.7L6.85 10.6L6.9 10.6L7 10.45L7.05 10.4L7.1 10.3L7.3 10.1L7.35 9.95L7.4 9.85L7.45 9.75L7.5 9.7L7.6 9.6L7.65 9.5L7.8 9.15L7.9 8.95L8 8.8L8.2 8.45L8.2 8.4L8.4 7.9L8.5 7.65L8.5 7.55L8.55 7.45L8.65 7.25L8.75 6.95L8.75 6.9L8.85 6.85L8.9 6.75L8.9 6.65L8.95 6.55L9.15 5.85L9.35 4.6L9.35 4.4L9.4 4.35L9.45 3.85L9.5 2.95L9.5 2.3L9.4 1.6L9.35 1.15L9.2 0.1L9.2 0L9.2 -0.1L9.15 -0.2L9.1 -0.35L9.1 -0.45L9.05 -0.55L8.9 -1.25L8.65 -2.05L8.6 -2.15L8.55 -2.25L8 -3.55L8 -3.5L7.45 -4.25L7.05 -4.55L7 -4.7L6.95 -4.7L6.7 -4.85L6.65 -5L6.7 -5.15L6.8 -5.2L7.15 -5.3L7.3 -5.35L7.45 -5.45L7.6 -5.5L8.15 -5.75L8.25 -5.85L8.4 -5.95L9.15 -6.55L9.35 -6.65L9.4 -6.65L9.4 -6.7L9.45 -6.75L9.65 -6.95L9.65 -7L10.65 -8.05L12 -9.2L12.7 -9.65L13.95 -10.45L13.9 -10.5L13.9 -10.55L13.7 -10.65M-3.45,-5.45L-3.5 -5.5L-3.45 -5.4L-3.45 -5.45M-1.8,-10.25L-1.9 -10.2L-1.9 -10.15L-1.8 -10.25M-2.45,-6.1L-2.3 -7.05L-2.2 -8.05L-2.2 -8.25L-2.1 -8.4L-1.95 -8.45L-1.9 -8.45L-1.75 -8.4L-1.6 -8.4L-1.6 -8.45L-1.4 -8.45L-1.25 -8.45L-1.05 -8.45L-0.9 -8.45L-0.8 -8.45L-0.6 -8.45L-0.3 -8.4L0.1 -8.35L0.25 -8.2L0.35 -8.2L0.4 -8.2L0.55 -8.15L1.3 -7.85L1.45 -7.8L1.55 -7.75L1.75 -7.65L2.2 -7.45L2.2 -7.4L3.3 -6.8L3.45 -6.65L3.65 -6.6L3.75 -6.55L3.9 -6.35L4.1 -6.2L4.2 -6.1L4.25 -6.05L4.4 -6L4.5 -5.9L4.6 -5.8L4.6 -5.6L4.5 -5.55L4.4 -5.45L4.25 -5.55L4.25 -5.6L4.15 -5.55L3.95 -5.55L3.8 -5.5L3.75 -5.5L2.4 -5.4L2.2 -5.35L1.6 -5.2L1.45 -5.2L1.25 -5.15L1.1 -5.1L0.9 -5.05L0.6 -5L0.4 -4.95L0.35 -4.95L0.25 -4.95L0.2 -4.95L0.05 -4.85L0 -4.85L0 -4.8L-0.25 -4.8L-0.2 -4.85L-0.6 -4.75L-0.65 -4.7L-0.75 -4.7L-0.85 -4.65L-1 -4.6L-1.4 -4.55Q-1.55 -4.4 -1.7 -4.4L-1.9 -4.4L-2.05 -4.4Q-2.2 -4.35 -2.35 -4.55L-2.45 -4.55L-2.55 -4.7L-2.55 -4.8L-2.6 -5.05L-2.5 -5.85L-2.5 -5.9L-2.45 -6.1M0,-7.45L-0.45 -7.55L-0.6 -7.55L-0.85 -7.6L-1.05 -7.6L-1.2 -7.6L-1.45 -7.55L-1.65 -5.9L-1.7 -5.75L-1.75 -5.3L-1.6 -5.35L-1.1 -5.5L-0.9 -5.45L-0.8 -5.55L-0.6 -5.6L-0.45 -5.6L-0.4 -5.65L0.25 -5.75L0.3 -5.8L0.75 -5.95L1 -6L1.25 -5.9L1.45 -6.1L2.3 -6.3L2.45 -6.3L1.9 -6.65L1.85 -6.65L1.35 -6.9L1.25 -7L1 -7.05L0.3 -7.35L0.15 -7.45L0 -7.45M-1.95,-5.25L-1.9 -5.15L-1.9 -5.2L-1.95 -5.25M6.65,11.7L6.65 11.75L6.65 11.85L6.65 11.9L6.75 11.7L6.65 11.7" />
<path style="fill:#3C2D25;fill-opacity:1" d="M-2.65,-4.85L-2.5 -5.9L-2.5 -5.85L-2.6 -5.05L-2.55 -4.8L-2.55 -4.7L-2.45 -4.55L-2.35 -4.55Q-2.2 -4.35 -2.05 -4.4L-1.9 -4.4L-1.7 -4.4Q-1.55 -4.4 -1.4 -4.55L-1 -4.6L-0.85 -4.65L-0.75 -4.7L-0.65 -4.7L-0.6 -4.75L-0.2 -4.85L-0.25 -4.8L0 -4.8L0 -4.85L0.05 -4.85L0.2 -4.95L0.25 -4.95L0.35 -4.95L0.4 -4.95L0.6 -5L0.9 -5.05L1.1 -5.1L1.25 -5.15L1.45 -5.2L1.6 -5.2L2.2 -5.35L2.4 -5.4L3.75 -5.5L3.8 -5.5L3.95 -5.55L4.15 -5.55L4.25 -5.6L4.25 -5.55L4.4 -5.45L4.5 -5.55L4.6 -5.6L4.6 -5.8L4.5 -5.9L4.4 -6L4.25 -6.05L4.2 -6.1L4.1 -6.2L3.9 -6.35L3.75 -6.55L3.65 -6.6L3.45 -6.65L3.3 -6.8L2.2 -7.4L2.2 -7.45L1.75 -7.65L1.55 -7.75L1.45 -7.8L1.3 -7.85L0.55 -8.15L0.4 -8.2L0.35 -8.2L0.25 -8.2L0.1 -8.35L-0.3 -8.4L-0.6 -8.45L-0.8 -8.45L-0.9 -8.45L-1.05 -8.45L-1.25 -8.45L-1.4 -8.45L-1.6 -8.45L-1.6 -8.4L-1.75 -8.4L-1.9 -8.45L-1.95 -8.45L-2.1 -8.4L-2.2 -8.25L-2.2 -8.05L-2.3 -7.05L-2.2 -8.25L-2.05 -9.6L-2.35 -9.75L-2.4 -9.75L-2.45 -9.8L-2.45 -9.9L-2.5 -9.9L-2.5 -9.95L-2.45 -9.95L-2.4 -9.9L-2.25 -9.9L-2.05 -9.8L-2 -9.75L-1.95 -9.7L-2 -9.65L-2 -9.6L-2 -9.5L-2 -9.45L-2.05 -9.15L-2 -9.05L-2.05 -9L-2.05 -8.85L-1.9 -8.75L-1.75 -8.75L-1.6 -8.75L-1.6 -8.8L-1.45 -8.8L-1.3 -8.85L-1.1 -8.85L-1.1 -8.9L-1.05 -8.9L-0.95 -8.9L-0.85 -9L-0.75 -9.05L-0.45 -9.15L-0.4 -9.15L0.25 -9.55L0.3 -9.6L0.45 -9.65L0.5 -9.7L0.7 -9.85L0.75 -9.9L0.95 -10L1.5 -10.4L1.6 -10.55L1.65 -10.6L1.85 -10.7L1.95 -10.8L2.35 -11.1L2.5 -11.2L2.6 -11.4L2.75 -11.45L2.9 -11.6L3.1 -11.75L3.15 -11.75L3.2 -11.85L3.25 -11.9L3.45 -12.1L3.5 -12.2L3.75 -12.3L4.4 -12.85L5.6 -13.6L5.95 -13.75L6.55 -13.95L6.6 -14L6.85 -14.1L7 -14.1L7.3 -14.1L7.4 -14.1Q7.45 -14.05 7.65 -13.95L7.7 -13.95L7.75 -13.9L8 -13.85L8.15 -13.8L8.2 -13.7L8.55 -13.6L8.55 -13.55L10.6 -12.65L10.65 -12.65L10.75 -12.6L10.8 -12.55L10.95 -12.45L11.4 -12.2L11.55 -12.1L11.55 -12.05L12.4 -11.6L13.05 -11.15L13.7 -10.65L13.65 -10.65L13.55 -10.65L13.2 -10.9L13.2 -10.95L12.7 -11.3L12.3 -11.6Q12 -11.75 11.85 -11.85L11.1 -12.25L10.85 -12.4L9.35 -13.2L8 -13.75L7.75 -13.85L7.3 -13.95L6.7 -13.95L6.65 -13.95L6.35 -13.85Q5.15 -13.35 3.8 -12.25L3.7 -12.15L3.6 -12.15L3.5 -11.95L3.45 -11.95L3.35 -11.85L3.25 -11.8L3.25 -11.75L3.05 -11.6L2.9 -11.45L2.45 -11.1L2.45 -11.05L2.1 -10.75L2 -10.65L1.6 -10.4L0.75 -9.75L0.7 -9.7L0.7 -9.65L0.5 -9.6L0.3 -9.5L0 -9.35L-0.2 -9.2L-0.6 -9L-0.75 -8.9L-1.05 -8.85L-1.1 -8.8L-1.2 -8.8L-1.25 -8.75L-1.55 -8.65L-1.5 -8.65L-1.55 -8.5L-1.35 -8.55L-1.2 -8.55L-1.15 -8.55L-1.05 -8.6L-0.9 -8.55L-0.85 -8.5L-0.75 -8.5L-0.6 -8.5L-0.3 -8.5L-0.05 -8.45L0.4 -8.35L0.5 -8.3L1.55 -7.85L2.4 -7.4L2.9 -7.2L3.15 -7.1L3.95 -6.6L4.1 -6.5L4 -6.45L4.15 -6.35L4.3 -6.2L4.35 -6.2L4.45 -6.15L4.65 -6L4.8 -5.9L4.8 -5.85L4.9 -5.8L5 -5.7L5.1 -5.6L5.15 -5.6L6.1 -5.5Q5.8 -5.5 6 -5.45L6.1 -5.45L6.65 -5.45Q7.4 -5.45 8.25 -6L8.75 -6.35L9.05 -6.55L9.1 -6.6L9.35 -6.75L9.35 -6.85L9.45 -6.9L9.45 -6.95L9.65 -7.05L9.8 -7.3L10.55 -8.05L10.6 -8.1L11.9 -9.2L12 -9.35L12.8 -9.9L13.6 -10.35L13.9 -10.55L13.9 -10.5L13.95 -10.45L12.7 -9.65L12 -9.2L10.65 -8.05L9.65 -7L9.65 -6.95L9.45 -6.75L9.4 -6.7L9.4 -6.65L9.35 -6.65L9.15 -6.55L8.4 -5.95L8.25 -5.85L8.15 -5.75L7.6 -5.5L7.45 -5.45L7.3 -5.35L7.15 -5.3L6.8 -5.2L6.7 -5.15L6.65 -5L6.7 -4.85L6.95 -4.7L7 -4.7L7.05 -4.55L7.45 -4.25L8 -3.5L8 -3.55L8.55 -2.25L8.6 -2.15L8.65 -2.05L8.9 -1.25L9.05 -0.55L9.1 -0.45L9.1 -0.35L9.15 -0.2L9.2 -0.1L9.2 0L9.2 0.1L9.35 1.15L9.4 1.6L9.5 2.3L9.5 2.95L9.45 3.85L9.4 4.35L9.35 4.4L9.35 4.6L9.15 5.85L8.95 6.55L8.9 6.65L8.9 6.75L8.85 6.85L8.75 6.9L8.75 6.95L8.65 7.25L8.55 7.45L8.5 7.55L8.5 7.65L8.4 7.9L8.2 8.4L8.2 8.45L8 8.8L7.9 8.95L7.8 9.15L7.65 9.5L7.6 9.6L7.5 9.7L7.45 9.75L7.4 9.85L7.35 9.95L7.3 10.1L7.1 10.3L7.05 10.4L7 10.45L6.9 10.6L6.85 10.6L6.75 10.7L6.6 10.85L6.5 11L6.4 11.1L6.4 11.15L6.3 11.2L6.2 11.3L6.15 11.3L6.05 11.4L5.6 11.7L5.55 11.75L5.4 11.95L5.3 11.95L5.15 12.05L5.1 12.15L4.95 12.2L3.8 13L3.75 13L3.6 13.1L3.55 13.1L3.45 13.15Q1.9 14 0.9 14.05L0.7 14.15L0.65 14.1L0.4 14.1L0.35 14.1L0.05 14L-0.1 14L-0.15 13.95L-0.25 13.95L-0.3 13.9L-1.05 13.7L-1.15 13.7L-1.2 13.7L-1.4 13.6L-1.6 13.65L-1.75 13.65L-1.8 13.6L-1.85 13.65L-2.1 13.65L-2.25 13.65L-2.4 13.7L-2.65 13.7L-2.75 13.7L-2.8 13.7L-3.25 13.8L-4 14L-4.3 14.05L-4.5 14L-4.55 14.05Q-5.65 14.1 -7.3 13.35L-7.65 13.15L-7.75 13.1L-7.85 13.1L-8.05 12.95L-8.2 12.85L-8.25 12.8L-8.35 12.75L-8.45 12.7L-9.25 12.2L-9.4 12.1L-10.55 11.3L-10.75 11.2L-10.85 11.15L-11 11L-11.15 10.8L-11.25 10.7L-11.3 10.65L-11.65 10.15L-11.8 10.05L-11.95 9.85L-12 9.8L-12 9.7L-12.05 9.65L-12.1 9.5L-12.25 9.4L-12.3 9.25L-12.4 9.15L-12.45 8.95L-12.6 8.85L-13.15 7.55L-13.2 7.4L-13.35 7.25L-13.45 6.9L-13.5 6.85L-13.55 6.75L-13.6 6.65L-13.6 6.5L-13.75 5.85L-13.75 5.8L-14.1 4.35L-14.2 3.85L-14.2 2.95L-14.15 1.6L-14.05 1.1L-14 0.8L-13.95 0.7L-13.9 0.3L-13.9 0.15L-13.9 0.1L-13.9 0L-13.8 -0.1L-13.4 -1.55L-13.4 -1.6L-13.2 -2.15L-11.95 -4.3Q-11.85 -4.3 -11.85 -4.35L-11.6 -4.55L-11.55 -4.6L-11.4 -4.7L-11.1 -4.9L-10.9 -4.95L-10.75 -5.1L-10.6 -5.1L-10.4 -5.15L-10.4 -5.2L-9.95 -5.3L-9.75 -5.25L-9.45 -5.35L-9.4 -5.45L-9.35 -5.45L-9.25 -5.45L-9.1 -5.45L-9 -5.45L-8.85 -5.5L-8.8 -5.5L-8.65 -5.55L-7.6 -5.45L-7.3 -5.45L-6.45 -5.4L-5.5 -5.15L-5.25 -5.15L-5.15 -5.15L-5.1 -5.15L-5.1 -5.1L-4.9 -5.05L-4.85 -5.05L-4.5 -5L-4.4 -5L-4.35 -4.95L-4.05 -4.85L-3.95 -4.8L-3.75 -4.8L-3.65 -4.8L-3.45 -4.75L-3.3 -4.75L-3.25 -4.75L-3.1 -4.75L-3 -4.8L-3 -4.85L-2.9 -4.85L-2.65 -4.85M-12.8,-2.35L-13.05 -1.75L-13.75 1L-13.75 1.2L-13.9 2.05Q-14.05 3.5 -13.75 4.85L-13.7 5.35L-13.65 5.45L-13.6 5.6L-12.75 7.95L-12 9.35L-11.75 9.7L-11.75 9.75L-11.6 10L-11.5 10.05L-11.1 10.65L-11 10.7L-11 10.85L-10.85 10.9L-10.7 11.05L-10.7 11.1L-10.55 11.15L-10.5 11.2L-9.4 11.95L-9.25 12.1Q-8.95 12.2 -8.7 12.45L-8.4 12.6L-7.75 13L-7.7 13.05L-7.55 13.05L-7.35 13.2L-7.3 13.25L-7.2 13.25Q-5.15 14.25 -4 13.9L-3.95 13.85L-3.25 13.7L-2.7 13.55L-2.65 13.55L-2.5 13.55L-2.4 13.55L-2.25 13.5L-2.2 13.5L-2 13.45L-1.75 13.45L-0.75 13.65L-0.15 13.75L-0.05 13.8L0.2 14L0.3 14L0.35 14Q1.35 14.1 3.05 13.25L3.2 13.2L3.4 13.05L3.5 13.05L3.5 13L4.45 12.45L4.95 12.1L5.15 11.95L5.3 11.85L5.4 11.75L5.4 11.7L6.1 11.2L6.15 11.15L6.3 11.1L6.3 11.05L6.4 10.95L6.45 10.9L6.5 10.85L6.5 10.8L6.55 10.75L6.55 10.7L6.65 10.65L6.65 10.6L6.85 10.3L7 10.05L7.1 10L7.15 10L7.15 9.85L7.2 9.75L7.3 9.7L7.35 9.5L7.4 9.5L7.45 9.35L7.9 8.45L7.9 8.4L7.95 8.4L8.15 7.95L8.25 7.65L8.4 7.35L8.55 6.9L9 5.6L9.05 5.35L9.05 4.85L9.1 4.6L9.25 2.25L9.25 2.05L9.1 1.2L9.05 1L8.8 -0.4L8.6 -1.25L8.35 -2.05L8.3 -2.25L8.25 -2.35L8.15 -2.55L7.5 -3.65L7 -4.2L6.9 -4.3L6.2 -4.8L6.15 -4.85L6.1 -4.85L6 -4.95L5.8 -5.05L5.1 -5.2L5 -5.3L4.95 -5.3L4.85 -5.3L4.8 -5.35L4.8 -5.4L4.5 -5.35L4.15 -5.35L3.65 -5.35L2.4 -5.25L1.05 -5L0.8 -4.95L0.4 -4.85L0.1 -4.8L-0.05 -4.75L-0.15 -4.75L-0.45 -4.6L-0.65 -4.55L-0.75 -4.55L-1.2 -4.5L-0.4 -4.35L-0.3 -4.35L-0.15 -4.3L0.25 -4.35L0.4 -4.35L0.45 -4.35Q0.95 -4.35 1.45 -4.65L0.85 -4.1L0.55 -3.95L0.85 -3.9L0.9 -3.85L0.8 -3.9L0.6 -3.9L0.4 -3.95L0.3 -3.95L-0.75 -4L-1.05 -4.1L-1.5 -4.15L-1.9 -4.3L-2.05 -4.3L-2.2 -4.4L-2.25 -4.4L-2.3 -4.4L-3.15 -4.55L-3.25 -4.55L-3.4 -4.6L-3.75 -4.75L-3.8 -4.75L-4 -4.8L-4.4 -4.85L-4.8 -4.95L-5.1 -5L-5.45 -5.05L-6.55 -5.25L-6.8 -5.3L-7.3 -5.3L-7.45 -5.3L-8.4 -5.35L-8.8 -5.35L-9 -5.4L-9.1 -5.4L-9.15 -5.3L-9.25 -5.3L-9.4 -5.3L-10.15 -5.05L-10.4 -4.95L-10.5 -4.85L-10.55 -4.85Q-10.55 -4.8 -10.65 -4.8L-11.4 -4.3L-11.45 -4.3L-11.55 -4.2L-12.75 -2.55L-12.8 -2.35M5.15,-5.6L5.05 -5.7L5.3 -5.65L5.15 -5.6" />
<path style="fill:#53CD00;fill-opacity:1" d="M0.75,-9.75L1.6 -10.4L2 -10.65L2.1 -10.75L2.45 -11.05L2.45 -11.1L2.9 -11.45L3.05 -11.6L3.25 -11.75L3.25 -11.8L3.35 -11.85L3.45 -11.95L3.5 -11.95L3.6 -12.15L3.7 -12.15L3.8 -12.25Q5.15 -13.35 6.35 -13.85L6.65 -13.95L6.7 -13.95L7.3 -13.95L7.75 -13.85L8 -13.75L9.35 -13.2L10.85 -12.4L11.1 -12.25L11.85 -11.85Q12 -11.75 12.3 -11.6L12.7 -11.3L13.2 -10.95L13.2 -10.9L13.55 -10.65L13.65 -10.65L13.7 -10.65L13.9 -10.55L13.6 -10.35L12.8 -9.9L12 -9.35L11.9 -9.2L10.6 -8.1L11.35 -9.2L11.4 -9.35L11.45 -9.4L12.3 -10.55L12.25 -10.85L11.3 -11.6L10.95 -11.8L10.85 -11.95L9.15 -12.85L8.5 -12.95L8.6 -13L8.45 -12.95L8.4 -12.95Q7.1 -13.05 5.4 -12.15L4.5 -11.6L4.05 -11.3L3.45 -10.9L2.95 -10.75L2.75 -10.65L0.8 -9.65L0.75 -9.75M2.6,-10.25L2.85 -10.35L4 -10.75L4.1 -10.65L4.55 -10L5.1 -9.4L4.75 -9.6L3.95 -9.95L2.6 -10.25M6.15,-11.6L8.4 -12.95L7.45 -12.15L6.9 -11.6L6.8 -11.45L6.3 -11.45L5.95 -11.4L6.15 -11.6" />
<path style="fill:#432E26;fill-opacity:1" d="M-2.9,-4.85L-2.7 -5.45L-2.7 -5.85L-2.65 -6.05L-2.6 -6.35L-2.55 -6.6L-2.5 -7.55L-2.5 -7.85L-2.45 -9L-2.4 -9.35L-2.35 -9.6L-2.35 -9.75L-2.05 -9.6L-2.2 -8.25L-2.3 -7.05L-2.45 -6.1L-2.5 -5.9L-2.65 -4.85L-2.9 -4.85M8.4,-12.95L8.45 -12.95L8.6 -13L8.5 -12.95L8.05 -12.45L7.3 -11.6L7.3 -11.55L10.65 -11L9.65 -11.05L8.75 -11.1L6.85 -11.15L6.3 -11.15L5.5 -11.05L4.4 -10.85L4.4 -10.75L4.75 -10.15L5.2 -9.35L5.1 -9.35L5.1 -9.4L4.55 -10L4.1 -10.65L4 -10.75L2.85 -10.35L2.6 -10.25L0.75 -9.55L0.7 -9.5L0.75 -9.6L0.8 -9.65L2.75 -10.65L2.95 -10.75L3.45 -10.9L4.1 -11.15L5.95 -11.4L6.3 -11.45L6.8 -11.45L6.9 -11.6L7.45 -12.15L8.4 -12.95M5.25,-9.25L5.2 -9.3L5.2 -9.35L5.25 -9.25" />
<path style="fill:#286400;fill-opacity:1" d="M9.05,-6.55L8.75 -6.35L8.25 -6Q7.4 -5.45 6.65 -5.45L6.1 -5.45L6 -5.45Q5.8 -5.5 6.1 -5.5L5.15 -5.6L5.1 -5.6L5 -5.7L4.9 -5.8L4.8 -5.85L4.8 -5.9L4.65 -6L4.45 -6.15L4.35 -6.2L4.3 -6.2L4.15 -6.35L4 -6.45L4.1 -6.5L3.95 -6.6L3.15 -7.1L2.9 -7.2L2.4 -7.4L1.55 -7.85L0.5 -8.3L0.4 -8.35L-0.05 -8.45L-0.3 -8.5L-0.6 -8.5L-0.75 -8.5L-0.85 -8.5L-0.9 -8.55L-1.05 -8.6L-1.15 -8.55L-1.2 -8.55L-1.35 -8.55L-1.55 -8.5L-1.5 -8.65L-1.55 -8.65L-1.25 -8.75L-1.2 -8.8L-1.1 -8.8L-1.05 -8.85L-0.75 -8.9L-0.6 -9L-0.2 -9.2L0 -9.35L0.3 -9.5L0.5 -9.6L0.7 -9.65L0.75 -9.6L0.7 -9.5L0.75 -9.55L0.85 -9.35L1 -9.2L1.55 -8.85Q2.05 -8.45 2.9 -8.05L3.05 -7.9L4.95 -7.05L8.45 -6.95L9.8 -7.3L9.65 -7.05L9.45 -6.95L9.45 -6.9L9.35 -6.85L9.05 -6.6L9.05 -6.55M5.3,-5.65L5.05 -5.7L5.15 -5.6L5.3 -5.65" />
<path style="fill:#6B4F40;fill-opacity:1" d="M-2.45,-9.9L-2.45 -9.8L-2.4 -9.75L-2.35 -9.75L-2.35 -9.6L-2.4 -9.35L-2.45 -9L-2.5 -7.85L-2.5 -7.55L-2.55 -6.6L-2.6 -6.35L-2.65 -6.05L-2.7 -5.85L-2.7 -5.45L-2.9 -4.85L-3 -4.85L-3 -4.9L-2.95 -5.15L-2.95 -5.4L-2.95 -5.65L-2.95 -5.7L-2.85 -5.95L-2.85 -6.05L-2.85 -6.3L-2.85 -6.35L-2.85 -6.5L-2.85 -6.6L-2.8 -7.2L-2.8 -7.25L-2.8 -7.35L-2.8 -7.55L-2.65 -9L-2.65 -9.2L-2.65 -9.35L-2.6 -9.4L-2.5 -9.9L-2.45 -9.9M-0.4,-4.55L-0.4 -4.4L-0.45 -4.55L-0.4 -4.55" />
<path style="fill:#41A100;fill-opacity:1" d="M0.75,-9.55L2.6 -10.25L3.95 -9.95L4.75 -9.6L5.1 -9.4L5.1 -9.35L5.2 -9.35L4.75 -10.15L4.4 -10.75L4.4 -10.85L5.5 -11.05L6.3 -11.15L6.85 -11.15L8.75 -11.1L9.65 -11.05L10.65 -11L7.3 -11.55L7.3 -11.6L8.05 -12.45L8.5 -12.95L9.15 -12.85L10.85 -11.95L10.95 -11.8L11.3 -11.6L12.25 -10.85L12.3 -10.55L11.45 -9.4L11.4 -9.35L11.35 -9.2L10.6 -8.1L10.55 -8.05L9.8 -7.3L8.45 -6.95L4.95 -7.05L3.05 -7.9L2.9 -8.05Q2.05 -8.45 1.55 -8.85L1 -9.2L0.85 -9.35L0.75 -9.55M9.05,-6.6L9.35 -6.85L9.35 -6.75L9.1 -6.6L9.05 -6.55L9.05 -6.6M0.7,-9.65L0.7 -9.7L0.75 -9.75L0.8 -9.65L0.75 -9.6L0.7 -9.65M5.95,-11.4L4.1 -11.15L3.45 -10.9L4.05 -11.3L4.5 -11.6L5.4 -12.15Q7.1 -13.05 8.4 -12.95L6.15 -11.6L5.95 -11.4M5.2,-9.35L5.2 -9.3L5.25 -9.25L5.2 -9.35" />
<path style="fill:#CCFF64;fill-opacity:1" d="M-4.4,-4.55L-3.95 -4.1L-3.8 -3.95L-3.95 -3.95L-4.4 -4L-5.1 -4.1L-5.15 -4.15L-5.45 -4.15L-7.3 -4.3L-8.3 -4.3L-9.1 -4.3L-9.15 -4.3L-9.25 -4.25L-9.4 -4.25L-11.3 -3.65L-11.85 -3.35L-12.75 -2.55L-11.55 -4.2L-11.45 -4.3L-11.4 -4.3L-10.65 -4.8Q-10.55 -4.8 -10.55 -4.85L-10.5 -4.85L-10.4 -4.95L-10.15 -5.05L-9.4 -5.3L-9.25 -5.3L-9.15 -5.3L-9.1 -5.4L-9 -5.4L-8.8 -5.35L-8.4 -5.35L-7.45 -5.3L-7.3 -5.3L-6.8 -5.3L-6.55 -5.25L-5.45 -5.05L-5.1 -5L-4.8 -4.95L-4.4 -4.55M7.35,-3.35L6.85 -3.65L6.8 -3.65L5.9 -4L5.85 -4.05L4.8 -4.3L4.05 -4.3L1.15 -4.15L0.85 -4.1L1.45 -4.65Q0.95 -4.35 0.45 -4.35L0.4 -4.35L0.25 -4.35L0.4 -4.5L0.8 -4.95L1.05 -5L2.4 -5.25L3.65 -5.35L4.15 -5.35L4.5 -5.35L4.8 -5.4L4.8 -5.35L4.85 -5.3L4.95 -5.3L5 -5.3L5.1 -5.2L5.8 -5.05L6 -4.95L6.1 -4.85L6.15 -4.85L6.2 -4.8L6.9 -4.3L7 -4.2L7.5 -3.65L8.15 -2.55L7.35 -3.35" />
<path style="fill:#649500;fill-opacity:1" d="M0.9,-3.85L0.95 -3.9L1 -3.85L1.1 -3.85L0.4 -3.25L0.3 -3.25L-0.75 -2.9L-1.9 -3L-2.05 -3.05L-3.25 -3.6L-3.3 -3.65L-3.6 -3.8L-3.8 -3.95L-3.95 -4.1L-4.4 -4.55L-4.8 -4.95L-4.4 -4.85L-4 -4.8L-3.8 -4.75L-3.75 -4.75L-3.4 -4.6L-3.25 -4.55L-3.15 -4.55L-2.3 -4.4L-2.25 -4.4L-2.2 -4.4L-2.05 -4.3L-1.9 -4.3L-1.5 -4.15L-1.05 -4.1L-0.75 -4L0.3 -3.95L0.4 -3.95L0.6 -3.9L0.55 -3.9L0.4 -3.9L0.35 -3.9L0.35 -3.85L0.4 -3.85L0.7 -3.8L0.9 -3.85M0.4,-4.5L0.25 -4.35L-0.15 -4.3L-0.3 -4.35L-0.4 -4.35L-1.2 -4.5L-0.75 -4.55L-0.65 -4.55L-0.45 -4.6L-0.15 -4.75L-0.05 -4.75L0.1 -4.8L0.4 -4.85L0.8 -4.95L0.4 -4.5M-12.25,7.7L-10.7 9.7L-9.4 10.95L-9.25 11.05L-8.4 11.7L-8.3 11.8L-7.3 12.35L-6.6 12.65Q-5.6 13.1 -3.95 12.15L-3.9 12.1L-3.85 12.1L-3.25 11.8L-3.1 11.7L-2.2 11.45L-1.6 11.4L-0.6 11.7Q0 11.95 0.6 12.5L2.5 12.65L4.1 11.8L4.15 11.7L5.15 10.85L5.4 10.65L6.25 9.7L7.1 8.65L7.15 8.45L7.7 7.7L7.75 7.65L7.9 7.35L8.2 6.9L8.4 6.55L9.05 5.35L9 5.6L8.55 6.9L8.4 7.35L8.25 7.65L8.15 7.95L7.95 8.4L7.9 8.4L7.9 8.45L7.45 9.35L7.4 9.5L7.35 9.5L7.3 9.7L7.2 9.75L7.15 9.85L7.15 10L7.1 10L7 10.05L6.85 10.3L6.65 10.6L6.65 10.65L6.55 10.7L6.55 10.75L6.5 10.8L6.5 10.85L6.45 10.9L6.4 10.95L6.3 11.05L6.3 11.1L6.15 11.15L6.1 11.2L5.4 11.7L5.4 11.75L5.3 11.85L5.15 11.95L4.95 12.1L4.45 12.45L3.5 13L3.5 13.05L3.4 13.05L3.2 13.2L3.05 13.25Q1.35 14.1 0.35 14L0.3 14L0.2 14L-0.05 13.8L-0.15 13.75L-0.75 13.65L-1.75 13.45L-2 13.45L-2.2 13.5L-2.25 13.5L-2.4 13.55L-2.5 13.55L-2.65 13.55L-2.7 13.55L-3.25 13.7L-3.95 13.85L-4 13.9Q-5.15 14.25 -7.2 13.25L-7.3 13.25L-7.35 13.2L-7.55 13.05L-7.7 13.05L-7.75 13L-8.4 12.6L-8.7 12.45Q-8.95 12.2 -9.25 12.1L-9.4 11.95L-10.5 11.2L-10.55 11.15L-10.7 11.1L-10.7 11.05L-10.85 10.9L-11 10.85L-11 10.7L-11.1 10.65L-11.5 10.05L-11.6 10L-11.75 9.75L-11.75 9.7L-12 9.35L-12.75 7.95L-13.6 5.6L-13.65 5.45L-12.25 7.7M-0.45,-4.55L-0.4 -4.4L-0.4 -4.55L-0.45 -4.55" />
<path style="fill:#8FD400;fill-opacity:1" d="M8.15,-2.55L8.25 -2.35L8.3 -2.25L8.35 -2.05L8.6 -1.25L8.8 -0.4L9.05 1L9.1 1.2L9.25 2.05L9.25 2.25L9.1 4.6L9.05 4.85L9.05 5.35L8.4 6.55L8.2 6.9L7.9 7.35L7.75 7.65L7.7 7.7L7.15 8.45L7.1 8.65L6.25 9.7L5.4 10.65L5.15 10.85L4.15 11.7L4.1 11.8L2.5 12.65L0.6 12.5Q0 11.95 -0.6 11.7L-1.6 11.4L-2.2 11.45L-3.1 11.7L-3.25 11.8L-3.85 12.1L-3.9 12.1L-3.95 12.15Q-5.6 13.1 -6.6 12.65L-7.3 12.35L-8.3 11.8L-8.4 11.7L-9.25 11.05L-9.4 10.95L-10.7 9.7L-12.25 7.7L-13.65 5.45L-13.7 5.35L-13.75 4.85Q-14.05 3.5 -13.9 2.05L-13.75 1.2L-13.75 1L-13.05 -1.75L-12.8 -2.35L-12.75 -2.55L-11.85 -3.35L-11.3 -3.65L-9.4 -4.25L-9.25 -4.25L-9.15 -4.3L-9.1 -4.3L-8.3 -4.3L-7.3 -4.3L-5.45 -4.15L-5.15 -4.15L-5.1 -4.1L-4.4 -4L-3.95 -3.95L-3.8 -3.95L-3.6 -3.8L-3.3 -3.65L-3.25 -3.6L-2.05 -3.05L-1.9 -3L-0.75 -2.9L0.3 -3.25L0.4 -3.25L1.1 -3.85L1 -3.85L0.95 -3.9L0.9 -3.85L0.7 -3.8L0.4 -3.85L0.35 -3.85L0.35 -3.9L0.4 -3.9L0.55 -3.9L0.6 -3.9L0.8 -3.9L0.9 -3.85L0.85 -3.9L0.55 -3.95L0.85 -4.1L1.15 -4.15L4.05 -4.3L4.8 -4.3L5.85 -4.05L5.9 -4L6.8 -3.65L6.85 -3.65L7.35 -3.35L8.15 -2.55M-9.4,-3.55L-10.1 -3.3L-11.15 -2.35L-11.55 -1.75L-11.8 -1.1L-11.85 -1L-12.05 -0.25Q-12.3 0.8 -12.05 1.15Q-11.75 1.7 -11.25 0.65L-11.05 0.25L-10.15 -0.85L-9.4 -1.25L-9.25 -1.35L-8.75 -1.55L-8.3 -1.75L-8.05 -2L-7.85 -2.15L-7.75 -2.35L-7.75 -2.5Q-7.55 -3.05 -8.2 -3.4L-8.6 -3.6L-9.05 -3.6L-9.25 -3.55L-9.4 -3.55M-10.8,4.3L-11.6 4.1Q-12 4.1 -12.1 4.4L-12.15 4.95L-11.6 5.35L-10.95 5.6Q-10.6 5.6 -10.45 5.3Q-10.25 4.95 -10.4 4.75L-10.55 4.4L-10.8 4.3M0.2,8.3L0.05 8.35Q-0.6 8.9 -0.6 10.05Q-0.6 10.7 0 11.05L1.4 11.4Q2.6 11.4 3.7 10.05L4.5 8.65Q3.05 7.9 2.2 7.95L0.75 8.1L0.2 8.3M5.7,4.85L4.5 4.85L4.3 4.95L4.1 5.35L4.1 5.85Q4.1 6.6 4.35 6.85Q4.5 7.15 5.1 7.15L5.25 7.4L5.2 7.25L5.15 7.15L5.55 6.9L6.15 6.35Q6.55 5.8 6.15 5.05L5.8 4.95L5.7 4.85" />
<path style="fill:#E4FFAD;fill-opacity:1" d="M-9.25,-3.55L-9.05 -3.6L-8.6 -3.6L-8.2 -3.4Q-7.55 -3.05 -7.75 -2.5L-7.75 -2.35L-7.85 -2.15L-8.05 -2L-8.3 -1.75L-8.75 -1.55L-9.25 -1.35L-9.4 -1.25L-10.15 -0.85L-11.05 0.25L-11.25 0.65Q-11.75 1.7 -12.05 1.15Q-12.3 0.8 -12.05 -0.25L-11.85 -1L-11.8 -1.1L-11.55 -1.75L-11.15 -2.35L-10.1 -3.3L-9.4 -3.55L-9.25 -3.55M-10.55,4.4L-10.4 4.75Q-10.25 4.95 -10.45 5.3Q-10.6 5.6 -10.95 5.6L-11.6 5.35L-12.15 4.95L-12.1 4.4Q-12 4.1 -11.6 4.1L-10.8 4.3L-10.55 4.4" />
<path style="fill:#7BB600;fill-opacity:1" d="M0.35,8.9L0.35 8.7L0.25 8.9L0.35 8.9M0.75,8.1L2.2 7.95Q3.05 7.9 4.5 8.65L3.7 10.05Q2.6 11.4 1.4 11.4L0 11.05Q-0.6 10.7 -0.6 10.05Q-0.6 8.9 0.05 8.35L0.2 8.3L0.75 8.1M5.8,4.95L6.15 5.05Q6.55 5.8 6.15 6.35L5.55 6.9L5.15 7.15L5.2 7.25L5.25 7.4L5.1 7.15Q4.5 7.15 4.35 6.85Q4.1 6.6 4.1 5.85L4.1 5.35L4.3 4.95L4.5 4.85L5.7 4.85L5.8 4.95" />
<path style="fill:#000000;fill-opacity:1" d="M0.25,8.9L0.35 8.7L0.35 8.9L0.25 8.9" />
</g>
</svg>
