<?xml version="1.0" encoding="utf-8"?>
<svg version="1.1" id="Layer_1"
xmlns="http://www.w3.org/2000/svg"
xmlns:xlink="http://www.w3.org/1999/xlink"
xmlns:author="http://www.sothink.com"
width="30px" height="30px"
xml:space="preserve">
<g id="95" transform="matrix(1, 0, 0, 1, 15, 15)">
<path style="fill:#000000;fill-opacity:1" d="M4.1,0.1L4.05 0.15L3.95 0.15L4.15 -0.05L4.1 0.1M11.9,-10.1L11.9 -9.95L11.9 -9.9L11.5 -9.95L11.5 -10L10.65 -10.05L10.75 -10.15L10.75 -10.25L11.9 -10.1M11.05,-12.5L10.85 -12.5L10.85 -12.55L10.8 -12.75L11.05 -12.75L11.85 -12.75L11.9 -12.6L11.9 -12.55L11.05 -12.5M-11.85,12.8L-11.95 12.8L-12.1 12.9L-12.35 12.45L-12 12.55L-11.85 12.8M-14.05,12.55L-14.15 12.55L-14.1 12.55L-14.05 12.55M-4.05,10.4L-3.95 10.4L-3.65 10.3L-3.6 10.3L-1.1 9.4L-1.05 9.35L0.3 8.9L0.75 8.8L0.4 9L-0.25 9.35L-0.45 9.3L-2.2 9.9L-4.4 10.8L-5.65 11L-6.4 11.15L-4.05 10.4M-8.45,11.6L-9.35 11.8L-8.8 12L-12.35 12L-12.45 11.85L-12.5 11.75L-12.45 11.8L-12.4 11.85L-12.1 11.9L-11.9 11.95L-8.45 11.6M3.6,7.3L3.15 7.55L3.1 7.55L2.55 7.85L2.5 7.85L2.55 7.8L2.1 7.95L2.05 7.95L2.9 7.45L3.6 7.3" />
<path style="fill:#FFF36B;fill-opacity:1" d="M0.85,8.75L0.85 8.8L0.75 8.8L0.3 8.9L-1.05 9.35L-1.1 9.4L-3.6 10.3L-3.65 10.3L-3.95 10.4L-4.05 10.4L-6.4 11.15L-6.5 11.2L-6.55 11.15L-6.6 11.15L-7.55 11.45L-8.45 11.6L-11.9 11.95L-12.1 11.9L-12.1 11.75L-12.1 11.6L-12.1 11.55Q-11.95 11.15 -10.15 10L-10.05 9.95L-7.45 8.45L-7.35 8.45L-5.1 7.2L-3.85 6.6L-0.85 4.95L-0.8 4.95L-0.65 4.85L1.95 3.1L4.25 0.35L4.35 0.2L4.05 0.15L4.1 0.1L4.15 -0.05L4.2 -0.05L4.45 0L4.45 -0.05L4.45 -0.2L4.6 -0.3L4.6 -0.25L4.55 -0.1L4.6 -0.15L4.65 -0.25L6.4 -3.9Q6.95 -5.85 8.1 -7.65Q9.2 -9.35 10.4 -9.85L10.6 -9.95L10.65 -10.05L11.5 -10L11.5 -9.95L11.9 -9.9L11.95 -9.7L12.15 -9.5Q12.9 -9.05 13.25 -8.05L13.05 -8.25Q12.5 -8.8 11.7 -8.8L10.5 -8.55L10.1 -8.35L9.95 -8.25Q9.3 -8.05 9 -7.75L7.1 -4.55L6.65 -3.75L5.8 -1.95L5.25 -0.7L5.2 -0.7L4.75 0.35L3.7 2.3Q2.75 3.95 0.55 5.3Q-1.05 6.2 -3.85 7.3Q-7.25 8.55 -8.05 8.95Q-8.55 9.15 -8.95 9.45L-9.9 10.2L-10.55 10.95L-10.2 11.05L-9.8 11.1L-6.85 10.55L-6.3 10.4L-3.9 9.65L-1.45 8.75L2.95 6.75L2.95 6.7L3.65 6.3L4.35 5.9L5.15 5.55L5.4 5.4L5.15 5.7L4.85 5.95L2.6 7.5L2.9 7.45L2.05 7.95L2.1 7.95L2.55 7.8M2.55,7.8L2.5 7.85L2.5 7.9L2.5 7.85L0.9 8.7L0.85 8.75" />
<path style="fill:#1E0A03;fill-opacity:1" d="M-7.9,7.55L-7.8 7.5L-5.7 6.35L-4.45 5.75L-1.45 4.15L-1.3 4.05L1.2 2.35L3.35 -0.3L3.45 -0.4L3.5 -0.45L3.55 -0.5L3.6 -0.6L3.65 -0.65L5.25 -4.15Q5.9 -6.25 7.15 -8.15Q8.35 -10 9.65 -10.6L9.75 -11.1L9.75 -11.8L9.75 -12.15L9.7 -12.2Q9.1 -12.4 9.1 -13.3L9.35 -14.1L10 -14.65L10 -14.7L10.45 -14.9L10.8 -15L11.25 -14.9L11.9 -15Q12.7 -15 13.15 -14.6L13.2 -14.55Q13.65 -14.2 13.65 -13.6Q13.65 -12.95 13.05 -12.45L13.05 -12.4L13.05 -12.3L13.05 -11.85L13 -10.15Q14.05 -9.4 14.5 -7.75L14.45 -7.8L14.65 -7.35L14.9 -5.4Q15.15 -3.75 14.9 -2Q14.65 1 12.75 4.3Q10.85 7.4 7.65 9.9L4.6 11.85L4.5 11.85L4.45 11.9L2 13.1L0.55 13.65L-0.65 14.05L-0.9 14.05L-0.95 14.05L-1 14.1L-0.8 14.1L-4.05 14.85L-6.4 15L-7.6 15L-7.7 15L-7.75 15L-10.55 14.6L-10.6 14.6L-10.65 14.55Q-11.35 14.35 -11.85 13.95L-12.45 14.15L-12.55 14.15L-13.3 14.25L-14.25 14L-14.3 13.95L-14.7 13.4L-14.9 12.4L-14.9 12Q-14.85 11.5 -14.45 11.6L-14.2 11.5L-14.1 11.5L-14.05 11.45L-13.8 11.35L-13.55 11.3L-13.4 11.25L-13.2 11.25Q-12.95 10.55 -10.75 9.15L-10.55 9.1L-8.2 7.7L-8.1 7.6L-7.95 7.55L-7.9 7.55M-12.4,11.85L-12.45 11.8L-12.5 11.75L-12.45 11.85L-12.35 12L-8.8 12L-9.35 11.8L-8.45 11.6L-7.55 11.45L-6.6 11.15L-6.55 11.15L-6.5 11.2L-6.4 11.15L-5.65 11L-4.4 10.8L-2.2 9.9L-0.45 9.3L-0.25 9.35L0.4 9L0.75 8.8L0.85 8.8Q1.4 8.45 2.1 8.25L0.55 9.25L-0.7 10L-1.45 10.3L-3.35 11.1Q-5.8 12.2 -8.65 12.75Q-10 12.95 -11.2 12.75L-12 12.55L-12.35 12.45L-12.8 12.25L-13.35 12.25L-13.5 12.3L-13.6 12.35L-13.8 12.4L-13.9 12.4L-13.8 12.4L-13.8 12.2L-13.9 12.4L-13.95 12.5L-14.05 12.55L-14.1 12.55L-14.15 12.55L-14.05 12.55L-14 12.55L-13.95 12.5L-13.8 12.4L-13.65 13.05L-13.65 13.1L-13.55 13.2L-13.3 13.25L-12.9 13.2L-12.85 13.2L-12.65 13.15L-12.2 13L-12.1 12.9L-11.95 12.8L-11.85 12.8L-11.6 12.8L-11.3 12.95L-10.35 13.65L-10.15 13.7L-7.8 14L-7.7 14L-7.45 14L-6.4 14L-4.25 13.85L-1.15 13.15L-1.05 13.1L0.15 12.7L1.55 12.2L3.8 11.15L3.85 11.1L3.9 11.05L4.1 10.95L4 10.95L6.85 9.15Q10 6.75 11.7 3.85Q13.05 1.55 13.55 -0.6L13.8 -2.05L13.8 -5.3L13.8 -5.35L13.55 -7.2L13.5 -7.2L13.45 -7.5L13.45 -7.55L13.25 -8.05Q12.9 -9.05 12.15 -9.5L11.95 -9.7L11.9 -9.9L11.9 -9.95L11.9 -10.1L11.95 -11.3L11.95 -11.85L11.95 -12.25L11.9 -12.55L11.9 -12.6L11.85 -12.75L11.95 -12.95L12.2 -13.15L12.25 -13.15L12.4 -13.3L12.5 -13.6L12.4 -13.85L11.9 -14L11.45 -13.9L11.2 -13.9L10.8 -14L10.75 -14L10.35 -13.6L10.3 -13.5L10.25 -13.3L10.25 -13.15L10.25 -13.05L10.35 -13L10.4 -12.95L10.8 -12.8L10.8 -12.75L10.85 -12.55L10.85 -12.5L10.85 -11.8L10.85 -11L10.85 -10.95L10.75 -10.25L10.75 -10.15L10.65 -10.05L10.6 -9.95L10.4 -9.85Q9.2 -9.35 8.1 -7.65Q6.95 -5.85 6.4 -3.9L4.65 -0.25L4.6 -0.15L4.55 -0.1L4.6 -0.25L4.6 -0.3L4.45 -0.2L4.45 -0.05L4.45 0L4.2 -0.05L4.15 -0.05L3.95 0.15L4.05 0.15L4.35 0.2L4.25 0.35L1.95 3.1L-0.65 4.85L-0.8 4.95L-0.85 4.95L-3.85 6.6L-5.1 7.2L-7.35 8.45L-7.45 8.45L-10.05 9.95L-10.15 10Q-11.95 11.15 -12.1 11.55L-12.1 11.6L-12.1 11.75L-12.1 11.9L-12.4 11.85M2.9,7.45L2.6 7.5L4.85 5.95L5.15 5.7L5.4 5.4L5.95 4.95L6.45 4.45L7.05 3.95L7.45 3.55L7.65 3.3L8.8 1.75Q8 4.3 6.25 5.6L3.6 7.3L2.9 7.45M-0.5,9.45L-0.65 9.5L-0.6 9.5L-0.5 9.45M4.15,10.95L4.25 10.95L4.3 10.9L4.15 10.95" />
<path style="fill:#FFC300;fill-opacity:1" d="M10.85,-10.95L10.85 -11L10.85 -11.8L10.85 -12.5L11.05 -12.5L11.9 -12.55L11.95 -12.25L11.95 -11.85L11.95 -11.3L11.8 -11.25L10.85 -10.95M-11.2,12.75Q-10 12.95 -8.65 12.75Q-5.8 12.2 -3.35 11.1L-1.45 10.3L-0.7 10L0.55 9.25L2.1 8.25Q1.4 8.45 0.85 8.8L0.85 8.75L0.9 8.7L2.5 7.85L2.5 7.9L2.5 7.85L2.55 7.85L3.1 7.55L3.15 7.55L3.6 7.3L6.25 5.6Q8 4.3 8.8 1.75L7.65 3.3L7.45 3.55L7.05 3.95L6.45 4.45L5.95 4.95L5.4 5.4L5.15 5.55L4.35 5.9L3.65 6.3L2.95 6.7L2.95 6.75L-1.45 8.75L-3.9 9.65L-6.3 10.4L-6.85 10.55L-9.8 11.1L-10.2 11.05L-10.55 10.95L-9.9 10.2L-8.95 9.45Q-8.55 9.15 -8.05 8.95Q-7.25 8.55 -3.85 7.3Q-1.05 6.2 0.55 5.3Q2.75 3.95 3.7 2.3L4.75 0.35L5.2 -0.7L5.25 -0.7L5.8 -1.95L6.65 -3.75L7.1 -4.55L9 -7.75Q9.3 -8.05 9.95 -8.25L10.1 -8.35L10.5 -8.55L11.7 -8.8Q12.5 -8.8 13.05 -8.25L13.25 -8.05L13.45 -7.55L13.45 -7.5L13.5 -7.2L13.55 -7.2L13.8 -5.35L13.8 -5.3L13.8 -2.05L13.55 -0.6L13.1 0.35L13.1 0.45L11 3.4L8.8 5.75Q5.65 8.8 0.15 10.95Q-5.2 13.1 -9.35 13.1L-10.2 13L-10.95 12.85L-11.2 12.75M-0.6,9.5L-0.65 9.5L-0.5 9.45L-0.6 9.5M12.55,-7.35L10.7 -7.5L10.3 -7.1L10.2 -6.75L10.7 -5.75L11.2 -4.3Q11.2 -2.5 10 -1.15L9.25 -0.2Q8.9 0.35 8.9 0.8Q8.9 1.25 9.2 1.3L9.65 1.3Q11.25 1.3 12.35 -1.4Q13.2 -3.6 13.2 -5.9L13.15 -6.3Q13.1 -6.95 12.65 -7.35L12.65 -7.4L12.55 -7.35" />
<path style="fill:#D07D00;fill-opacity:1" d="M-12,12.55L-11.2 12.75L-10.95 12.85L-10.2 13L-9.35 13.1Q-5.2 13.1 0.15 10.95Q5.65 8.8 8.8 5.75L11 3.4L13.1 0.45L13.1 0.35L13.55 -0.6Q13.05 1.55 11.7 3.85Q10 6.75 6.85 9.15L4 10.95L4.1 10.95L3.9 11.05L3.85 11.1L3.8 11.15L1.55 12.2L0.15 12.7L-1.05 13.1L-1.15 13.15L-4.25 13.85L-6.4 14L-7.45 14L-7.7 14L-7.8 14L-10.15 13.7L-10.35 13.65L-11.3 12.95L-11.6 12.8L-11.85 12.8L-12 12.55M-12.1,12.9L-12.2 13L-12.65 13.15L-12.85 13.2L-12.9 13.2L-13 12.95L-13.35 12.25L-12.8 12.25L-12.35 12.45L-12.1 12.9M4.3,10.9L4.25 10.95L4.15 10.95L4.3 10.9" />
<path style="fill:#FFCE31;fill-opacity:1" d="M10.8,-12.75L10.8 -12.8L10.4 -12.95L10.35 -13L10.25 -13.05L10.25 -13.15L10.3 -13.15L10.8 -13.15Q11.95 -13.15 12.4 -13.85L12.5 -13.6L12.4 -13.3L12.25 -13.15L12.2 -13.15L11.95 -12.95L11.85 -12.75L11.05 -12.75L10.8 -12.75" />
<path style="fill:#2E0E03;fill-opacity:1" d="M10.25,-13.15L10.25 -13.3L10.3 -13.5L10.35 -13.6L10.75 -14L10.8 -14L11.2 -13.9L11.45 -13.9L11.9 -14L12.4 -13.85Q11.95 -13.15 10.8 -13.15L10.3 -13.15L10.25 -13.15" />
<path style="fill:#D09400;fill-opacity:1" d="M10.75,-10.25L10.85 -10.95L11.8 -11.25L11.95 -11.3L11.9 -10.1L10.75 -10.25" />
<path style="fill:#FCE430;fill-opacity:1" d="M12.65,-7.4L12.65 -7.35Q13.1 -6.95 13.15 -6.3L13.2 -5.9Q13.2 -3.6 12.35 -1.4Q11.25 1.3 9.65 1.3L9.2 1.3Q8.9 1.25 8.9 0.8Q8.9 0.35 9.25 -0.2L10 -1.15Q11.2 -2.5 11.2 -4.3L10.7 -5.75L10.2 -6.75L10.3 -7.1L10.7 -7.5L12.55 -7.35L12.65 -7.4" />
<path style="fill:#FF9301;fill-opacity:1" d="M-12.9,13.2L-13.3 13.25L-13.55 13.2L-13.65 13.1L-13.65 13.05L-13.8 12.4L-13.95 12.5L-14 12.55L-14.05 12.55L-13.95 12.5L-13.9 12.4L-13.8 12.2L-13.8 12.4L-13.9 12.4L-13.8 12.4L-13.6 12.35L-13.5 12.3L-13.35 12.25L-13 12.95L-12.9 13.2" />
</g>
</svg>
