<?xml version="1.0" encoding="utf-8"?>
<svg version="1.1" id="Layer_1"
xmlns="http://www.w3.org/2000/svg"
xmlns:xlink="http://www.w3.org/1999/xlink"
xmlns:author="http://www.sothink.com"
width="30px" height="31px"
xml:space="preserve">
<g id="113" transform="matrix(1, 0, 0, 1, 15, 15.05)">
<path style="fill:#101010;fill-opacity:1" d="M3.3,-9L2.35 -9.9Q1.5 -10.75 1.25 -11.5L1 -12.35L1 -12.55L1 -12.65Q1.15 -13.2 1.45 -13.4L2.35 -14.15L1.35 -14.3L0.55 -14.4L0.15 -14.5L0.15 -13.85L0.1 -13.7L0.1 -13.65L0.05 -13.25L0.15 -12.95L0.15 -12.8Q0.15 -12.5 0.3 -12.15L0.3 -11.95L0.35 -11.9L0.4 -11.8L0.45 -11.65L0.55 -11.45L0.55 -11.35L0.95 -10.75L1 -10.75L1.05 -10.6L2.05 -9.65L3 -8.65L3.95 -7.85L4 -7.85Q6.35 -5.5 6.7 -2.1L6.7 -0.85L6.4 1.6L6.3 2L6.3 2.1L6.7 2.1L7.05 2.15L7.05 2.1L7.1 1.6L7.25 -0.75L7.3 -0.8L7.25 -1.95L7.25 -2L7.25 -2.1Q7.1 -4.05 6.5 -5.5L4.3 -8.15L4.2 -8.2L3.3 -9M1,-10L0.3 -8.9L-1.4 -6.25L-3.2 -2.9L-3.45 -2L-3.75 -0.95Q-3.95 0.25 -3.25 1.3L-3.15 1.45L-3.15 1.5L-3.1 1.6L-3.1 1.7L-2.95 1.7L-1.1 1.6L-0.75 1.6L-0.15 1.4L-0.2 1.45Q0 1.3 0.3 1.3Q2.7 0.85 4.3 1.25L4.8 1.4L5.9 1.7L5.9 1.6Q6.3 -0.35 6.15 -2.05Q5.9 -5.2 3.65 -7.5Q1.8 -9.1 1 -10M0.65,-14.9L1.45 -14.75L2.55 -14.65L2.7 -14.7L3.1 -14.5L3.1 -14.45L3.15 -14.25L3.05 -14.1L3.05 -14.05L3 -14L1.85 -13.1L1.45 -12.55L1.4 -11.95L1.45 -12.55L1.45 -12.3L1.75 -11.5L1.75 -11.55Q2.25 -10.5 3.6 -9.35Q6.3 -7.2 6.95 -5.6Q7.6 -4.2 7.7 -2.1L7.7 -2L7.8 0.85L7.65 1.85L7.65 1.9L7.75 1.85L9 1.5L11.35 1.55L11.55 1.6L12.65 2.4L12.85 2.55L12.9 2.55Q14.6 3.95 14.9 6.4Q15.15 8.3 14.6 9.8Q14.15 11.1 13 12.15L12.65 12.4L10.85 13.55Q9.1 14.4 6.6 14.85Q3.65 15.4 0.75 13.65Q-1.6 14.85 -5.55 14.85L-6.55 14.8Q-8.35 14.6 -9.95 13.55Q-11.25 12.8 -12.35 11.6Q-15.05 8.6 -15 6.05Q-15 3.25 -13.8 1.85L-13.6 1.6Q-13.05 1.05 -12.3 0.75L-11.8 0.55L-10.7 0.4L-10.05 0.3Q-7.95 0.2 -6.55 0.8L-6.2 0.9L-5.35 1.3L-5.45 -0.05L-5.2 -2.15L-4.45 -4.2Q-3.95 -5.6 -2.3 -8.05L-0.75 -10.35L-0.05 -11.45L-0.3 -12.3L-0.45 -13.45L-0.4 -13.6L-0.4 -13.75L-0.35 -13.95L-0.35 -14.7L-0.3 -14.75L-0.3 -14.85L-0.3 -14.95Q0.2 -15.15 0.35 -14.95L0.65 -14.9M-0.1,-12.1L-0.1 -12.05L-0.1 -11.9L-0.05 -11.85L-0.05 -11.9L0 -11.9L0 -11.85L0.3 -11.45L0.1 -11.05L0.35 -11.4L0.1 -12.2L0.05 -12.5L-0.1 -12.45L-0.1 -12.3L-0.05 -11.95L-0.1 -12.1M-0.05,-11.55L0 -11.5L0.05 -11.55L-0.05 -11.55M-0.35,-10.1L-0.75 -9.65L-1.95 -7.6L-4 -4.05L-4 -4L-4.05 -4L-4.4 -3.1L-4.7 -2.1L-4.95 -0.25L-4.75 1.6L-4.7 1.9L-4.7 1.95L-4.65 2.15L-4.6 2.35L-4.55 2.45L-4.5 2.45L-3.8 2.05L-3.85 2L-3.9 1.9L-3.95 1.85L-3.95 1.8L-4 1.6Q-4.45 0.6 -4.25 -0.75L-3.95 -2.1L-3.65 -3L-3.6 -3.05L-3.55 -3.3L-1.7 -6.65L-0.1 -9.25L0.8 -10.55L0.55 -10.8L0.35 -11.2L-0.05 -10.6L-0.35 -10.1M-3.15,1.5L-3.2 1.6L-3.15 1.7L-3.15 1.5L-3.3 1.45L-3.35 1.6L-3.25 1.55L-3.2 1.55L-3.15 1.5M-3.45,1.9L-3.35 1.85L-3.4 1.8L-3.45 1.8L-3.6 1.8L-3.55 1.9L-3.75 2L-3.45 2L-3.45 1.9M12.85,3.75L12.65 3.55L12.3 3.2L11.3 2.55L9.3 2.25L8.55 2.4L6.95 2.95L6.9 2.95L6.75 3L6.7 3L4.95 3.9L4.3 4.25L3.95 4.55L3.8 4.6L3.8 4.55Q3.95 4.1 4.25 3.7L5.25 2.7L3.95 2.35L2.05 2.15L1.4 2.25L0.95 2.35L2.55 3.6L2.55 3.65L3.4 4.95L4 7L4 7.2L4.05 7.85L3.8 9.8L3.4 10.95L3.05 11.55L1.6 13.1L2.55 13.55Q4.45 14.3 6.45 13.95L8.1 13.55Q10.85 12.85 12.4 11.4L12.65 11.15L13.65 9.8Q14.3 8.35 14.05 6.55Q13.85 5.15 13.2 4.15L12.85 3.75M-14.1,6.05Q-14.1 8.1 -12.2 10.35L-11.7 10.95Q-9.9 12.9 -7.85 13.55L-6.55 13.85L-5.55 13.95L-1.85 13.55L-0.1 13L0.75 12.55L0.8 12.5L1.65 11.8L2.15 11.3L2.9 9.8L3.15 7.85L3.1 7.2L3.1 7Q2.85 5.4 1.85 4.2L1.45 3.75Q0.5 2.9 -0.55 2.75L-1.1 2.7L-2.25 2.75L-3.6 2.95L-3.7 2.95L-5.85 3.4L-6.55 3.55L-6.75 3.65L-6.55 3.4Q-6.1 2.7 -5.25 2.4L-6.55 1.8L-6.6 1.75L-6.9 1.6L-9.65 1.2L-10 1.2L-10.7 1.25L-11.8 1.5L-12.1 1.6L-12.3 1.7L-13.1 2.4L-13.6 3.1Q-14.05 4.1 -14.1 5.55L-14.1 5.75L-14.1 6.05" />
<path style="fill:#2A1B04;fill-opacity:1" d="M4.2,-8.2L4.3 -8.15L6.5 -5.5Q7.1 -4.05 7.25 -2.1L7.25 -2L7.25 -1.95L7.3 -0.8L7.25 -0.75L7.1 1.6L7.05 2.1L7.05 2.15L6.7 2.1L6.3 2.1L6.3 2L6.4 1.6L6.7 -0.85L6.7 -2.1Q6.35 -5.5 4 -7.85L3.95 -7.85L3 -8.65L2.05 -9.65L1.05 -10.6L1 -10.75L0.95 -10.75L0.55 -11.35L0.55 -11.45L0.45 -11.65L0.4 -11.8L0.35 -11.9L0.3 -11.95L0.3 -12.15Q0.15 -12.5 0.15 -12.8L0.15 -12.95L0.05 -13.25L0.1 -13.65L0.1 -13.7L0.15 -13.85L0.15 -14.5L0.55 -14.4L1.35 -14.3L2.35 -14.15L1.45 -13.4Q1.15 -13.2 1 -12.65L1 -12.55L1 -12.35L1.25 -11.5Q1.5 -10.75 2.35 -9.9L3.3 -9L4.2 -8.2M-0.05,-11.95L-0.1 -12.3L-0.1 -12.45L0.05 -12.5L0.1 -12.2L0.35 -11.4L0.1 -11.05L0.3 -11.45L0 -11.85L0 -11.9L-0.05 -11.9L-0.05 -11.95M-0.05,-10.6L0.35 -11.2L0.55 -10.8L0.8 -10.55L-0.1 -9.25L-1.7 -6.65L-3.55 -3.3L-3.6 -3.05L-3.65 -3L-3.95 -2.1L-4.25 -0.75Q-4.45 0.6 -4 1.6L-3.95 1.8L-3.95 1.85L-3.9 1.9L-3.85 2L-3.8 2.05L-4.5 2.45L-4.55 2.45L-4.6 2.35L-4.65 2.15L-4.7 1.95L-4.7 1.9L-4.75 1.6L-4.95 -0.25L-4.7 -2.1L-4.4 -3.1L-4.05 -4L-4 -4L-4 -4.05L-1.95 -7.6L-0.75 -9.65L-0.35 -10.1L-0.05 -10.6M-3.45,2L-3.75 2L-3.55 1.9L-3.6 1.8L-3.45 1.8L-3.4 1.8L-3.35 1.85L-3.45 1.9L-3.45 2" />
<path style="fill:#B4001D;fill-opacity:1" d="M4.8,7L4.8 7.85L4.65 9.6L4.6 9.8L4.45 10.75Q4.45 11.5 5.15 11.8L5.45 11.85Q8.9 12.15 11.3 9.85L11.35 9.8L12.65 8.3L13.5 6.45L13.55 5.75L13.2 4.15Q13.85 5.15 14.05 6.55Q14.3 8.35 13.65 9.8L12.65 11.15L12.4 11.4Q10.85 12.85 8.1 13.55L6.45 13.95Q4.45 14.3 2.55 13.55L1.6 13.1L3.05 11.55L3.4 10.95L3.8 9.8L4.05 7.85L4 7.2L4 7L3.4 4.95L2.55 3.65L2.55 3.6L0.95 2.35L1.4 2.25L2.05 2.15L3.95 2.35L5.25 2.7L4.25 3.7Q3.95 4.1 3.8 4.55L3.8 4.6L3.95 4.55Q4.65 5.6 4.8 7M-6.8,3.65L-7.1 3.65Q-6.75 2.8 -6.75 2.3Q-6.75 1.85 -7.55 1.6L-8.1 1.5L-9.3 1.3L-9.65 1.2L-6.9 1.6L-6.6 1.75L-6.55 1.8L-5.25 2.4Q-6.1 2.7 -6.55 3.4L-6.75 3.65L-6.8 3.65M1.65,11.8L0.8 12.5L0.75 12.55L-0.1 13L-1.85 13.55L-5.55 13.95L-6.55 13.85L-7.85 13.55Q-9.9 12.9 -11.7 10.95L-12.2 10.35Q-14.1 8.1 -14.1 6.05L-14.1 5.75Q-14 7.55 -11.8 9.5L-11.45 9.8L-11.05 10.05Q-9.1 11.5 -6.55 12.05L-3 12.45L-0.9 12.35L0.3 12.2L1.25 12L1.65 11.8" />
<path style="fill:#FC0029;fill-opacity:1" d="M3.95,4.55L4.3 4.25L4.95 3.9L6.7 3L6.75 3L6.9 2.95L6.95 2.95L8.55 2.4L9.3 2.25L11.3 2.55L12.3 3.2L12.65 3.55L12.85 3.75L13.2 4.15L13.55 5.75L13.5 6.45L12.65 8.3L11.35 9.8L11.3 9.85Q8.9 12.15 5.45 11.85L5.15 11.8Q4.45 11.5 4.45 10.75L4.6 9.8L4.65 9.6L4.8 7.85L4.8 7Q4.65 5.6 3.95 4.55M-6.75,3.65L-6.55 3.55L-5.85 3.4L-3.7 2.95L-3.6 2.95L-2.25 2.75L-1.1 2.7L-0.55 2.75Q0.5 2.9 1.45 3.75L1.85 4.2Q2.85 5.4 3.1 7L3.1 7.2L3.15 7.85L2.9 9.8L2.15 11.3L1.65 11.8L1.25 12L0.3 12.2L-0.9 12.35L-3 12.45L-6.55 12.05Q-9.1 11.5 -11.05 10.05L-11.45 9.8L-11.8 9.5Q-14 7.55 -14.1 5.75L-14.1 5.55Q-14.05 4.1 -13.6 3.1L-13.1 2.4L-12.3 1.7L-12.1 1.6L-11.8 1.5L-10.7 1.25L-10 1.2L-9.65 1.2L-9.3 1.3L-8.1 1.5L-7.55 1.6Q-6.75 1.85 -6.75 2.3Q-6.75 2.8 -7.1 3.65L-6.8 3.65L-6.75 3.65M-11.05,2.45L-11.8 2.6L-12.3 2.8L-12.8 3.5L-12.9 4.1L-12.6 5L-12.3 5.2L-11.9 5.25L-11.8 5.25Q-10.8 5.25 -9.9 4.35Q-9.15 3.55 -9.15 3.05Q-9.15 2.75 -9.6 2.6L-11.05 2.45M0.1,4.1L-1.45 3.9Q-2.6 3.9 -2 5.55Q-1.6 6.65 -0.75 7L0.3 7.2L1 7Q1.45 6.7 1.45 5.85L1.45 5.25L0.75 4.35L0.1 4.1M10.05,3.85L8.55 4.05Q7.4 4.3 7.35 4.5L8.7 5L10.4 5.65L11.2 5.4L11.75 4.75L11.3 4.25Q10.8 3.9 10.05 3.85" />
<path style="fill:#FF7B7B;fill-opacity:1" d="M-9.6,2.6Q-9.15 2.75 -9.15 3.05Q-9.15 3.55 -9.9 4.35Q-10.8 5.25 -11.8 5.25L-11.9 5.25L-12.3 5.2L-12.6 5L-12.9 4.1L-12.8 3.5L-12.3 2.8L-11.8 2.6L-11.05 2.45L-9.6 2.6M-10.6,3.25L-11.4 3.1L-11.8 3.1Q-12.15 3.15 -12.3 3.45L-12.35 3.5L-12.35 3.6L-12.35 3.8L-12.3 4L-11.8 4.25L-11.2 4.1Q-10.55 3.9 -10.4 3.4L-10.6 3.25M-0.75,5L-0.3 5.5L0.6 5.75L0.4 5.1Q0.15 4.6 -0.65 4.45L-0.8 4.75L-0.75 5M0.75,4.35L1.45 5.25L1.45 5.85Q1.45 6.7 1 7L0.3 7.2L-0.75 7Q-1.6 6.65 -2 5.55Q-2.6 3.9 -1.45 3.9L0.1 4.1L0.75 4.35M10.3,4.25Q9.6 4.25 9.9 4.5Q10.5 5.05 11.3 4.75Q11.35 4.4 10.9 4.35L10.3 4.25M11.3,4.25L11.75 4.75L11.2 5.4L10.4 5.65L8.7 5L7.35 4.5Q7.4 4.3 8.55 4.05L10.05 3.85Q10.8 3.9 11.3 4.25" />
<path style="fill:#FFFFFF;fill-opacity:1" d="M-10.4,3.4Q-10.55 3.9 -11.2 4.1L-11.8 4.25L-12.3 4L-12.35 3.8L-12.35 3.6L-12.35 3.5L-12.3 3.45Q-12.15 3.15 -11.8 3.1L-11.4 3.1L-10.6 3.25L-10.4 3.4M-0.8,4.75L-0.65 4.45Q0.15 4.6 0.4 5.1L0.6 5.75L-0.3 5.5L-0.75 5L-0.8 4.75M10.9,4.35Q11.35 4.4 11.3 4.75Q10.5 5.05 9.9 4.5Q9.6 4.25 10.3 4.25L10.9 4.35" />
</g>
</svg>
