<?xml version="1.0" encoding="utf-8"?>
<svg version="1.1" id="Layer_1"
xmlns="http://www.w3.org/2000/svg"
xmlns:xlink="http://www.w3.org/1999/xlink"
xmlns:author="http://www.sothink.com"
width="20px" height="20px"
xml:space="preserve">
<g id="7" transform="matrix(1, 0, 0, 1, 10, 10)">
<path style="fill:#000000;fill-opacity:1" d="M7.2,-6.5L7.1 -6.15L7.05 -5.85L7.05 -5.8L6.95 -5.7L6.8 -5.65L6.6 -5.75L6.55 -5.95L6.45 -6L6.35 -6.05L6.1 -6.15L5.95 -6.3L5.85 -6.35L5.5 -6.4L5.3 -6.4L5.1 -6.2L4.85 -5.6L4.95 -5.3L5 -5.05L5.05 -4.75L5.15 -4.55L5.35 -4.35L5.45 -4.2L6.75 -3.2L6.85 -3L5.95 -3.45Q4.9 -4 4.8 -4.2L4.35 -4.8L4.9 -3.9L4.25 -4.75L3.8 -5.6L3.85 -5.95L3.85 -6L4 -6.4L3.95 -6.4L3.8 -6.3L3.6 -6.3L3.3 -6.1L3.15 -6.1L3 -6.15L2.85 -6.2L2.6 -6.35L2.55 -6.35L2 -6.4L0.6 -6.45L0.4 -6.45L0.3 -6.5L0.1 -6.7L0 -7L0 -7.05L0 -7.15L0 -7.3L-0.65 -7.4L-1.4 -7.1L-1.4 -7.05L-1.5 -7L-1.8 -6.9Q-2 -6.9 -2.15 -7.05L-2.35 -7.35L-2.5 -7.85Q-2.7 -8.4 -3.25 -8.4L-3.3 -8.4L-3.75 -8.25L-3.75 -8.2L-4.2 -8L-3.85 -7.15L-3.8 -6.85L-3.8 -6.75L-4 -6.45L-4.25 -6.35L-4.25 -6.1L-4.25 -5.6L-4.35 -5.6L-4.4 -5.5L-4.7 -5.4L-5 -5.45L-5.05 -5.5L-5.5 -5.75L-5.75 -5.8L-5.8 -5.8L-6.05 -5.8L-6.1 -5.8L-6.3 -5.65L-6.55 -5.35L-6.55 -5.3L-6.55 -4.95L-6.5 -4.7L-6.45 -4.55L-6.35 -4.4L-6.35 -4.25L-6.2 -3.95L-6.05 -3.7L-6.05 -3.6L-6.05 -3.55L-6.1 -3.35L-6.1 -3.3L-6.3 -3.1L-6.6 -3.05L-6.85 -3.1L-7 -3.1L-7.25 -3.2L-7.3 -3.2L-7.65 -3.2L-8.75 -3L-8.9 -2.65L-8.9 -2.6Q-8.9 -1.9 -8.4 -1.5L-8.25 -1.35L-8.2 -1.3L-8.15 -1.3Q-8.05 -1.15 -7.75 -1.1Q-7.65 -1 -7.55 -1L-7.25 -0.95L-7.15 -0.95L-7.05 -1L-6.85 -1L-6.75 -1L-6.7 -1L-6.5 -0.8L-6.35 -0.65L-6.35 -0.5L-6.25 -0.35L-6.2 -0.1L-6.2 0L-6.25 0.15L-6.25 0.25L-6.3 0.35L-6.45 0.6L-6.45 0.7L-6.55 1.1L-6.55 2.6L-6.55 2.8L-6.55 2.9L-6.6 2.95L-6.65 3.1L-6.7 3.15L-6.75 3.2L-7.05 3.25L-7.1 3.25L-7.3 3.25L-7.45 3.95L-7.25 4.5L-7.15 4.75L-7.1 4.75L-7.05 4.85L-7 5.1L-7.1 5.45L-7.25 5.6L-7.4 5.65L-7.9 5.8L-8.05 5.95Q-8.4 6.2 -8.4 6.6L-8.4 6.65L-8.25 7.15L-8.2 7.15L-8.05 7.5L-7.5 7.4L-7.25 7.15L-7.15 7.05L-7.05 6.95L-7 6.9L-6.85 6.6L-6.2 6.2L-5.35 6.05L-5.5 5.95L-5.35 5.95L-4.6 6.1L-4.5 6.2L-4.25 6.4L-4.1 6.9L-3.85 7.7L-3.7 7.75L-3.6 7.95L-3.6 8.15L-3.8 8.3L-4.6 8.55L-6 8.85L-6.35 8.85L-6.45 8.85L-6.5 8.8L-6.6 8.75L-6.7 8.7L-6.75 8.65L-6.8 8.65L-7 8.55L-7.15 8.45L-7.5 8.45L-7.45 8.7L-7.4 10L-8.2 10L-8.25 8.75L-8.2 8.45L-9.1 7.85L-9.15 7.75L-9.2 7.6L-9.45 6.65L-9.4 5.95L-9.15 5.45Q-8.9 5 -8.25 4.85L-8.5 4Q-8.55 3.2 -8.2 2.65L-8.2 2.7L-7.65 2.25L-7.55 0.8L-8.1 0.1L-8.15 -0.1L-9.05 -0.65L-9.1 -0.65L-9.15 -0.75Q-10 -1.5 -10 -2.6Q-10.05 -3.45 -9.3 -3.95L-9.15 -3.95L-8.1 -4.2L-8.1 -4.55L-8.05 -4.65Q-7.95 -5.45 -7.3 -6L-7.05 -6.4L-7 -6.45L-6.95 -6.65L-6.85 -6.8L-6.65 -7.1L-6.65 -7.15Q-6.15 -7.75 -5.35 -7.75L-5.2 -7.75L-5.2 -8Q-5.25 -8.8 -4.35 -9.2L-4.2 -9.25L-3.3 -9.5L-2.15 -9.2L-1.45 -8.25L-0.75 -8.5L0.55 -8.2L0.5 -8.2L1 -7.65L2.9 -7.35L3.05 -7.3Q3.1 -8.25 3.8 -9.1L3.8 -9.15L3.85 -9.2Q4.55 -10 5.7 -10Q6.55 -10.1 6.95 -9.3L7 -9.2L7.3 -8.35L7.05 -7.4L10 -7.4L10 -6.5L7.2 -6.5M8.3,8.75L8.35 8.45L8.4 8.35L8.5 8.15L8.65 8L8.7 7.85L8.8 7.45L8.8 7.25L8.6 7.05Q8.3 6.75 7.95 6.75Q7.85 6.75 7.7 6.9L7.5 6.95L7.3 7Q7.2 7 7 7.15L6.85 7.3L6.7 7.4L6.3 8L5.7 8.8L5.5 8.85L5.95 8L6.7 6.7L7.35 6.25L6.4 6.8L7 6.3L7.25 6.1L7.45 5.95L7.95 5.65Q8.5 5.65 8.95 5.95L9.15 5.85L9.85 5.25L10 4.85L10 6.3L9.6 6.5L9.75 6.8L9.8 7.45L9.75 8.15Q9.7 8.4 8.45 9.05L8.4 9L8.3 8.75M4.15,-6.8L4.15 -6.7L4.35 -7Q4.85 -7.45 5.5 -7.45L6.1 -7.35L6.25 -7.35L6.25 -7.65L6 -8.8L5.75 -8.9L5.7 -8.9Q5 -8.9 4.55 -8.4L4.15 -7.5L4.1 -7.2L4.15 -7L4.15 -6.8M-6.05,7.45L-6 7.5L-6 7.75L-6.15 7.95L-6.35 7.95L-6.45 7.85L-6.55 7.95L-6.55 8L-6.6 8L-6.55 8.05Q-6.35 8.05 -6.15 8.35L-6 8.35L-4.75 8L-4 7.75L-4.3 7.25L-4.5 7.05L-4.55 6.95L-4.65 6.9Q-5.05 6.6 -5.35 6.6L-5.75 6.8L-5.75 7.05L-6.05 7.45" />
<path style="fill:#D5FF7E;fill-opacity:1" d="M-7.9,5.95L-7.95 6.05Q-7.95 6.9 -7.5 7.05L-7.25 7.05L-7.15 7.05L-7.25 7.15L-7.5 7.4L-8.05 7.5L-8.2 7.15L-8.25 7.15L-8.4 6.65L-8.4 6.6Q-8.4 6.2 -8.05 5.95L-7.9 5.8L-7.9 5.95M-7.05,4.85L-7.1 4.75L-7.15 4.75L-7.25 4.5L-7.45 3.95L-7.3 3.25L-7.1 3.25L-7.1 3.3L-7.15 3.5L-7 4.35L-6.8 4.75L-6.55 5.05L-6.85 4.9L-7.05 4.85M-7.9,-3L-8.15 -2.35L-8.15 -2.3L-8.05 -1.85L-8.05 -1.6L-7.95 -1.55L-7.75 -1.35L-7.75 -1.3L-7.7 -1.25L-7.65 -1.25Q-7.5 -1.1 -7.15 -1L-7.05 -1L-7.15 -0.95L-7.25 -0.95L-7.55 -1Q-7.65 -1 -7.75 -1.1Q-8.05 -1.15 -8.15 -1.3L-8.2 -1.3L-8.25 -1.35L-8.4 -1.5Q-8.9 -1.9 -8.9 -2.6L-8.9 -2.65L-8.75 -3L-7.65 -3.2L-7.3 -3.2L-7.9 -3M-5.9,-3.35L-6.05 -3.55L-6.05 -3.6L-6.05 -3.7L-6.2 -3.95L-6.35 -4.25L-6.35 -4.4L-6.45 -4.55L-6.5 -4.7L-6.55 -4.95L-6.55 -5.3L-6.55 -5.35L-6.3 -5.65L-6.1 -5.8L-6.05 -5.8L-5.8 -5.8L-5.75 -5.8L-5.5 -5.75Q-6.05 -5.6 -6.05 -4.55L-6 -4L-5.8 -3.6L-5.75 -3.35L-5.7 -3.05L-5.9 -3.35M-3.85,-6L-4.25 -6.1L-4.25 -6.35L-4 -6.2L-3.75 -6.05L-3.7 -6.05L-3.45 -5.8L-3.85 -6M-3.4,-6.4L-3.55 -6.5L-3.8 -6.85L-3.85 -7.15L-4.2 -8L-3.75 -8.2L-3.75 -8.25L-3.3 -8.4L-3.25 -8.4Q-2.7 -8.4 -2.5 -7.85L-2.7 -7.9Q-3.65 -7.9 -3.65 -7.2L-3.4 -6.4M-1.75,-6.4L-1.6 -6.8L-1.5 -7L-1.4 -7.05L-1.4 -7.1L-0.65 -7.4L0 -7.3L0 -7.15L0 -7.05L-0.25 -7.1L-1.4 -6.75L-1.75 -6.4M5.45,-4.2L5.35 -4.35L5.15 -4.55L5.05 -4.75L5 -5.05L4.95 -5.3L4.85 -5.6L5.1 -6.2L5.3 -6.4L5.5 -6.4L5.85 -6.35L5.4 -5.65L5.4 -5.6L5.35 -5.05L5.45 -4.2M6,-7.85Q5.85 -8.15 5.45 -8.15Q4.65 -8.15 4.35 -7.65L4.15 -7L4.1 -7.2L4.15 -7.5L4.55 -8.4Q5 -8.9 5.7 -8.9L5.75 -8.9L6 -8.8L6.25 -7.65L6.25 -7.35L6 -7.85M3.6,3.25L3.4 3.85L3.2 4.3L3.2 4.35L3.15 4.4Q2.6 5.2 1.95 4.4Q1.6 4.15 1.6 3.65L1.6 3.55L1.65 3.15L2 2.65L2.2 2.5L2.1 2.85Q2.1 3.9 2.9 3.9L3.3 3.8L3.6 3.25M1.4,2.8L1.35 2.85L1.2 2.85L0.65 2.85L0.5 2.65L0.45 2.55L0.45 2.45L0.7 2L0.7 1.9L0.75 1.9L0.8 1.95L0.95 1.9L0.95 1.95Q0.95 2.8 1.35 2.8L1.4 2.8M1,1.4L0.7 1.4L0.5 0.9L0.45 0.7L0.5 0.4L0.6 0L0.8 -0.15L0.95 -0.2L0.95 -0.15Q0.8 0.05 0.8 0.35L0.8 0.4L0.8 0.8L0.95 1.25L1 1.4M2.65,-1.25L2.65 -1.45L2.6 -1.6Q2.6 -2.15 2.75 -2.3L3.15 -2.35L3.3 -2.35L3.35 -2.35L3.4 -2.3L3.55 -2.2L3.95 -1.8L3.95 -1.7L4 -1.6L3.2 -1.95Q2.85 -1.95 2.75 -1.65L2.65 -1.25M6.7,7.4L6.85 7.3L7 7.15Q7.2 7 7.3 7L7.5 6.95L7.7 6.9Q7.85 6.75 7.95 6.75Q8.3 6.75 8.6 7.05L8.8 7.25L8.8 7.45L8.7 7.85Q8.45 7.3 7.5 7.3L6.7 7.4M-4.5,7.1L-5 7Q-5.55 7 -5.6 7.25L-5.75 7.05L-5.75 6.8L-5.35 6.6Q-5.05 6.6 -4.65 6.9L-4.55 6.95L-4.5 7.05L-4.5 7.1" />
<path style="fill:#AAE72C;fill-opacity:1" d="M-0.15,9.35L0.1 10L-7.4 10L-7.45 8.7L-7.5 8.45L-7.15 8.45L-7 8.55L-7.1 8.85L-7.15 9.4L-7.1 9.65L-6.6 9.55L-6.55 9.55L-5.9 9.65L-5.7 9.65L-5 9.65Q-5.55 9.5 -5.9 9.25L-6.15 9.1L-6.45 8.85L-6.35 8.85L-6 8.85L-4.6 8.55L-3.8 8.3L-3.6 8.15L-3.6 7.95L-3.7 7.75L-3.85 7.7L-4.1 6.9L-4.25 6.4L-4.5 6.2L-4.6 6.1L-5.35 5.95L-5.5 5.95L-5.35 6.05L-6.2 6.2L-6.85 6.6L-7 6.9L-7.05 6.95L-7.15 7.05L-7.25 7.05L-7.5 7.05Q-7.95 6.9 -7.95 6.05L-7.9 5.95L-7.9 5.8L-7.4 5.65L-7.25 5.65L-7 5.6L-6.55 5.6L-6.5 5.6L-6.3 5.55L-6.25 5.35L-6.3 5.1L-6.5 5.05L-6.55 5.05L-6.8 4.75L-7 4.35L-7.15 3.5L-7.1 3.3L-7.1 3.25L-7.05 3.25L-6.85 3.25L-6.15 3.45L-6 3.45L-6 3.3L-6 3.25L-6 3.1Q-6.05 2.6 -6.25 2L-6.45 1.6L-6.55 1.1L-6.45 0.7L-6.45 0.6L-6.3 0.35L-6.15 0.5Q-5.9 0.8 -6.1 0.35L-6.1 0.25L-6.15 0.2L-6.1 -0.3L-6.05 -0.8Q-5.75 -0.85 -5.7 -1L-5.9 -1L-6.2 -1L-6.7 -1L-6.75 -1L-6.85 -1L-7.05 -1L-7.15 -1Q-7.5 -1.1 -7.65 -1.25L-7.7 -1.25L-7.75 -1.3L-7.75 -1.35L-7.95 -1.55L-8.05 -1.6L-8.05 -1.85L-8.15 -2.3L-8.15 -2.35L-7.9 -3L-7.3 -3.2L-7.25 -3.2L-7 -3.1L-6.85 -3.05L-6.05 -2.65L-6.05 -2.6L-5.75 -2.4L-5.7 -2.35L-5.55 -2.2L-5.45 -2.2L-5.35 -2.15L-5.15 -2.15L-5.15 -2.2L-5.45 -2.65L-5.45 -2.7L-5.55 -2.85L-5.7 -3.05L-5.75 -3.35L-5.8 -3.6L-6 -4L-6.05 -4.55Q-6.05 -5.6 -5.5 -5.75L-5.05 -5.5L-5 -5.45L-4.25 -3.95L-4.25 -5.05L-4.25 -5.6L-4.25 -6.1L-3.85 -6L-3.45 -5.8L-3.1 -5.5L-2.65 -5.15L-3.05 -5.85L-3.25 -6.15L-3.35 -6.4L-3.4 -6.4L-3.65 -7.2Q-3.65 -7.9 -2.7 -7.9L-2.5 -7.85L-2.35 -7.35L-2.3 -6.9L-2.3 -6.4L-2.2 -6.2L-2 -6.15L-1.8 -6.2L-1.75 -6.4L-1.4 -6.75L-0.25 -7.1L0 -7.05L0 -7L-0.2 -6.05L-0.2 -5.85L0.2 -5.85L1.6 -6.35L2 -6.4L2.55 -6.35L2.6 -6.35L2.85 -6.2L2.7 -6.05Q2.4 -5.8 2.85 -6L2.9 -6L2.95 -6.05L3.85 -5.95L3.8 -5.6L4.25 -4.75L4.9 -3.9L4.35 -4.8L4.8 -4.2Q4.9 -4 5.95 -3.45L6.85 -3L6.75 -3.2L5.45 -4.2L5.35 -5.05L5.4 -5.6L5.4 -5.65L5.85 -6.35L5.95 -6.3L6.1 -6.15L6.35 -6.05L6.45 -6L6.5 -5.85L6.55 -5.75L6.8 -5.15L7.05 -4.7L7.3 -4.2L7.35 -4L7.4 -3.8L7.45 -3.65L7.55 -3.3L7.65 -3.1L7.65 -2.95L7.65 -3.9L7.55 -3.95L7.5 -4.3L7.5 -4.35L7.35 -5.05L7.05 -5.8L7.05 -5.85L7.1 -6.15L7.2 -6.5L10 -6.5L10 4.85L9.85 5.25L9.15 5.85L8.95 5.95Q8.5 5.65 7.95 5.65L7.45 5.95L7.4 5.65L7.7 5.05L7.3 4.75L7.25 4.4L7.3 4.2Q7.4 4 7.65 4L7.45 3.6Q7.45 3.25 7.9 3.25L8 3.3L8.15 3.35Q8 3.25 8 2.95L8 2.9Q8 2.5 8.25 2.5L8.4 2.55L8.5 2.65L8.7 2.95L8.8 2.95Q9.2 3 9.4 3.25L9.55 3.8L9.55 4.25L9.65 3.5L9.4 2.3L8.95 2.1Q8.8 2.1 8.8 2.3L8.8 2.7L8.65 2.45L8.5 2.1L8.2 1.65L8 1.65L7.85 1.85Q7.55 2.15 7.55 2.45L7.75 2.7L7.35 2.55L7.3 2.55Q7.05 2.55 6.95 2.8L6.9 3.1L6.9 3.15Q6.9 3.65 7.3 3.85L7.25 3.85L6.85 3.8Q6.7 3.85 6.7 4.3Q6.7 5.2 7.25 5.3L6.85 5.7L6.9 6.1L7.25 6.1L7 6.3L6.4 6.8L7.35 6.25L6.7 6.7L5.95 8L5.5 8.85L5.7 8.8L6.3 8L6.7 7.4L7.5 7.3Q8.45 7.3 8.7 7.85L8.65 8L8.5 8.15L8.4 8.35L8.35 8.45L7.8 8.8L7.55 8.85L6.95 9.2L6.65 9.35L6.55 9.4L6.05 9.55L6.05 9.65L5.6 9.7L5.45 9.7L6.25 9.7L6.5 9.65L6.6 9.65L6.55 10L0.15 10L-0.15 9.35M4.15,-7L4.35 -7.65Q4.65 -8.15 5.45 -8.15Q5.85 -8.15 6 -7.85L6.25 -7.35L6.1 -7.35L5.5 -7.45Q4.85 -7.45 4.35 -7L4.15 -6.7L4.15 -6.8L4.15 -7M7.3,-6.3L7.1 -6.15L7.35 -6.3L7.3 -6.3M1.6,-3.6L1.95 -3.8L1.85 -3.8L1.6 -3.6M3.3,3.8L2.9 3.9Q2.1 3.9 2.1 2.85L2.2 2.5L2.5 2.15L2.55 1.9L2.55 1.85L2.25 2.1L1.7 2.45L1.4 2.7L1.4 2.8L1.35 2.8Q0.95 2.8 0.95 1.95L0.95 1.9L1.25 1.65L1.4 1.65L1.5 1.6L1.9 1.3L1.55 1.3L1.5 1.3L1 1.4L0.95 1.25L0.8 0.8L0.8 0.4L0.8 0.35Q0.8 0.05 0.95 -0.15L0.95 -0.2L1.2 -0.3L1.25 -0.45L1.4 -0.35L1.45 -0.35L1.7 -0.35L2.4 -0.2L2.55 -0.25L2.85 0.2L3.2 0.8L3 0.15L2.65 -1.25L2.75 -1.65Q2.85 -1.95 3.2 -1.95L4 -1.6L4 -1.55L4.25 -1L4.25 -2.2L4.25 -2.4L4.15 -2.55L4 -2.95Q3.7 -3.55 3.2 -3.55L1.95 -2.95Q1.4 -2.5 1.4 -1.85L1.5 -1.6L1.2 -1.6Q0.7 -1.6 0.15 -1.25Q-0.45 -0.8 -0.45 0L-0.45 0.2L-0.2 1.6L-0.05 1.65L-0.2 1.8L-0.3 2L-0.4 2.5L-0.4 2.85Q-0.3 3.9 0.45 4L0.8 4L1.35 5.25Q1.95 6 2.65 6Q3.1 6 3.4 5.35L3.6 4.65L3.6 4.55L3.8 4L4 2.35L3.85 2.7L3.6 3.25L3.3 3.8M-2,2.8Q-2.25 2.6 -2.45 2.6L-2.65 2.85L-2.65 3.2L-2.7 2.95Q-2.95 2.2 -3.2 2.2L-3.45 2.45L-3.75 2.95L-3.6 3.25L-4.05 3.15Q-4.5 3.15 -4.5 3.65Q-4.5 4.2 -4.1 4.35L-4.2 4.35L-4.55 4.3L-4.7 4.85Q-4.7 5.7 -4.2 5.8L-4.5 6.1L-3.9 6.1L-3.65 5.6Q-4.2 5.6 -4.2 4.95Q-4.2 4.6 -3.7 4.6L-3.85 4.15Q-3.85 3.85 -3.4 3.85L-3.25 3.95L-3.35 3.5L-3.1 3.1L-2.9 3.2L-2.65 3.5L-2.4 3.55Q-2.15 3.6 -1.95 3.8L-1.9 3.85L-1.8 4.3L-1.8 4.85L-1.75 4L-1.75 3.95L-1.75 3.55L-1.95 2.85L-2 2.8M-5.6,7.25Q-5.55 7 -5 7L-4.5 7.1L-4.5 7.05L-4.3 7.25L-4 7.75L-4.75 8L-6 8.35L-6.15 8.35Q-6.35 8.05 -6.55 8.05L-6.6 8L-6.55 8L-6.55 7.95L-6.45 7.85L-6.35 7.95L-6.15 7.95L-6 7.75L-6 7.5L-6.05 7.45L-5.35 7.4L-4.8 7.45L-5.55 7.25L-5.6 7.25" />
<path style="fill:#001505;fill-opacity:1" d="M-6.85,4.9L-6.55 5.05L-6.5 5.05L-6.3 5.1L-6.25 5.35L-6.3 5.55L-6.5 5.6L-6.55 5.6L-7 5.6L-7.25 5.65L-7.4 5.65L-7.25 5.6L-7.1 5.45L-7 5.1L-7.05 4.85L-6.85 4.9M-6.25,3.25L-6.2 3.25L-6.1 3.3L-6 3.45L-6.15 3.45L-6.85 3.25L-7.05 3.25L-6.75 3.2L-6.7 3.15L-6.65 3.1L-6.6 2.95L-6.55 2.9L-6.25 3.25M-6.1,0.25L-6.1 0.35Q-5.9 0.8 -6.15 0.5L-6.3 0.35L-6.25 0.25L-6.25 0.15L-6.2 0L-6.15 0.2L-6.1 0.25M-6.05,-0.8Q-6.15 -0.65 -6.35 -0.65L-6.5 -0.8L-6.7 -1L-6.2 -1L-5.9 -1L-5.7 -1Q-5.75 -0.85 -6.05 -0.8M-5.7,-3.05L-5.55 -2.85L-5.45 -2.7L-5.45 -2.65L-5.15 -2.2L-5.15 -2.15L-5.35 -2.15L-5.45 -2.2L-5.55 -2.2L-5.7 -2.35L-5.75 -2.4L-6.05 -2.6L-6.05 -2.65L-6.85 -3.05L-7 -3.1L-6.85 -3.1L-6.6 -3.05L-6.3 -3.1L-6.1 -3.3L-6.1 -3.35L-6.05 -3.55L-5.9 -3.35L-5.7 -3.05M-4.25,-5.05L-4.25 -3.95L-5 -5.45L-4.7 -5.4L-4.4 -5.5L-4.25 -5.05M-3.55,-6.5L-3.4 -6.4L-3.35 -6.4L-3.25 -6.15L-3.05 -5.85L-2.65 -5.15L-3.1 -5.5L-3.45 -5.8L-3.7 -6.05L-3.75 -6.05L-4 -6.2L-4.25 -6.35L-4 -6.45L-3.8 -6.75L-3.8 -6.85L-3.55 -6.5M-1.6,-6.8L-1.75 -6.4L-1.8 -6.2L-2 -6.15L-2.2 -6.2L-2.3 -6.4L-2.3 -6.9L-2.35 -7.35L-2.15 -7.05Q-2 -6.9 -1.8 -6.9L-1.5 -7L-1.6 -6.8M-0.2,-5.85L-0.2 -6.05L0 -7L0.1 -6.7L0.3 -6.5L0.4 -6.45L-0.2 -5.85M2.9,-6L2.85 -6Q2.4 -5.8 2.7 -6.05L2.85 -6.2L3 -6.15L3.15 -6.1L2.95 -6.05L2.9 -6M3.8,-6.3L3.95 -6.4L4 -6.4L3.85 -6L3.8 -6.3M7.35,-5.05L7.5 -4.35L7.5 -4.3L7.55 -3.95L7.65 -3.9L7.65 -2.95L7.65 -3.1L7.55 -3.3L7.45 -3.65L7.4 -3.8L7.35 -4L7.3 -4.2L7.05 -4.7L6.8 -5.15L6.55 -5.75L6.5 -5.85L6.45 -6L6.55 -5.95L6.6 -5.75L6.8 -5.65L6.95 -5.7L7.05 -5.8L7.35 -5.05M8.35,8.45L8.3 8.75L8.4 9L7.9 9.25L7.5 9.4L7.45 9.45L6.85 9.65L6.6 9.65L6.5 9.65L6.25 9.7L5.45 9.7L5.6 9.7L6.05 9.65L6.05 9.55L6.55 9.4L6.65 9.35L6.95 9.2L7.55 8.85L7.8 8.8L8.35 8.45M0.15,10L0.1 10L-0.15 9.35L0.15 10M7.35,-6.3L7.1 -6.15L7.3 -6.3L7.35 -6.3M1.85,-3.8L1.95 -3.8L1.6 -3.6L1.85 -3.8M4.25,-1L4 -1.55L4 -1.6L3.95 -1.7L3.95 -1.8L3.55 -2.2L3.4 -2.3L3.35 -2.35L3.3 -2.35L3.15 -2.35L2.75 -2.3Q2.6 -2.15 2.6 -1.6L2.65 -1.45L2.65 -1.25L3 0.15L3.2 0.8L2.85 0.2L2.55 -0.25L2.4 -0.2L1.7 -0.35L1.45 -0.35L1.4 -0.35L1.25 -0.45L1.2 -0.3L0.95 -0.2L0.8 -0.15L0.6 0L0.5 0.4L0.45 0.7L0.5 0.9L0.7 1.4L1 1.4L1.5 1.3L1.55 1.3L1.9 1.3L1.5 1.6L1.4 1.65L1.25 1.65L0.95 1.9L0.8 1.95L0.75 1.9L0.7 1.9L0.7 2L0.45 2.45L0.45 2.55L0.5 2.65L0.65 2.85L1.2 2.85L1.35 2.85L1.4 2.8L1.4 2.7L1.7 2.45L2.25 2.1L2.55 1.85L2.55 1.9L2.5 2.15L2.2 2.5L2 2.65L1.65 3.15L1.6 3.55L1.6 3.65Q1.6 4.15 1.95 4.4Q2.6 5.2 3.15 4.4L3.2 4.35L3.2 4.3L3.4 3.85L3.6 3.25L3.85 2.7L4 2.35L3.8 4L3.6 4.55L3.6 4.65L3.5 4.75L3.45 4.85Q2.6 5.95 1.6 4.85L1.4 4.55L1.2 3.7L1.2 3.55L1.2 3.45L0.75 3.45L0.6 3.35L0.25 3.1L0.05 2.6L0.1 2.1L0.4 1.75L0.1 1.2L0.1 0.7L0.2 -0.1L0.45 -0.5L0.45 -0.55L1.15 -0.85L1.2 -0.85L1.4 -0.9L2.05 -0.85L2.2 -0.85L2.25 -0.8L2.2 -1L2.05 -1.6Q2.05 -2.4 2.5 -2.7L3.15 -2.9L3.35 -2.85L3.4 -2.85L3.5 -2.85L3.95 -2.4L4.25 -2.2L4.25 -1M-5.55,7.25L-4.8 7.45L-5.35 7.4L-6.05 7.45L-5.75 7.05L-5.6 7.25L-5.55 7.25M-7.15,9.4L-7.1 8.85L-7 8.55L-7.15 9.4" />
<path style="fill:#6B9A0B;fill-opacity:1" d="M-6.15,9.1L-5.9 9.25Q-5.55 9.5 -5 9.65L-5.7 9.65L-5.9 9.65L-6.55 9.55L-6.6 9.55L-7.1 9.65L-7.15 9.4L-7 8.55L-6.8 8.65L-6.75 8.65L-6.7 8.7L-6.6 8.75L-6.5 8.8L-6.45 8.85L-6.15 9.1M-6.55,2.9L-6.55 2.8L-6.55 2.6L-6.55 1.1L-6.45 1.6L-6.25 2Q-6.05 2.6 -6 3.1L-6 3.25L-6 3.3L-6 3.45L-6.1 3.3L-6.2 3.25L-6.25 3.25L-6.55 2.9M-6.2,0L-6.2 -0.1L-6.25 -0.35L-6.35 -0.5L-6.35 -0.65Q-6.15 -0.65 -6.05 -0.8L-6.1 -0.3L-6.15 0.2L-6.2 0M-4.4,-5.5L-4.35 -5.6L-4.25 -5.6L-4.25 -5.05L-4.4 -5.5M0.4,-6.45L0.6 -6.45L2 -6.4L1.6 -6.35L0.2 -5.85L-0.2 -5.85L0.4 -6.45M3.85,-6L3.85 -5.95L2.95 -6.05L3.15 -6.1L3.3 -6.1L3.6 -6.3L3.8 -6.3L3.85 -6M3.4,5.35Q3.1 6 2.65 6Q1.95 6 1.35 5.25L0.8 4L0.45 4Q-0.3 3.9 -0.4 2.85L-0.4 2.5L-0.3 2L-0.2 1.8L-0.05 1.65L-0.2 1.6L-0.45 0.2L-0.45 0Q-0.45 -0.8 0.15 -1.25Q0.7 -1.6 1.2 -1.6L1.5 -1.6L1.4 -1.85Q1.4 -2.5 1.95 -2.95L3.2 -3.55Q3.7 -3.55 4 -2.95L4.15 -2.55L4.25 -2.4L4.25 -2.2L3.95 -2.4L3.5 -2.85L3.4 -2.85L3.35 -2.85L3.15 -2.9L2.5 -2.7Q2.05 -2.4 2.05 -1.6L2.2 -1L2.25 -0.8L2.2 -0.85L2.05 -0.85L1.4 -0.9L1.2 -0.85L1.15 -0.85L0.45 -0.55L0.45 -0.5L0.2 -0.1L0.1 0.7L0.1 1.2L0.4 1.75L0.1 2.1L0.05 2.6L0.25 3.1L0.6 3.35L0.75 3.45L1.2 3.45L1.2 3.55L1.2 3.7L1.4 4.55L1.6 4.85Q2.6 5.95 3.45 4.85L3.5 4.75L3.6 4.65L3.4 5.35M7.25,6.1L6.9 6.1L6.85 5.7L7.25 5.3Q6.7 5.2 6.7 4.3Q6.7 3.85 6.85 3.8L7.25 3.85L7.3 3.85Q6.9 3.65 6.9 3.15L6.9 3.1L6.95 2.8Q7.05 2.55 7.3 2.55L7.35 2.55L7.75 2.7L7.55 2.45Q7.55 2.15 7.85 1.85L8 1.65L8.2 1.65L8.5 2.1L8.65 2.45L8.8 2.7L8.8 2.3Q8.8 2.1 8.95 2.1L9.4 2.3L9.65 3.5L9.55 4.25L9.55 3.8L9.4 3.25Q9.2 3 8.8 2.95L8.7 2.95L8.5 2.65L8.4 2.55L8.25 2.5Q8 2.5 8 2.9L8 2.95Q8 3.25 8.15 3.35L8 3.3L7.9 3.25Q7.45 3.25 7.45 3.6L7.65 4Q7.4 4 7.3 4.2L7.25 4.4L7.3 4.75L7.7 5.05L7.4 5.65L7.45 5.95L7.25 6.1M-1.95,2.85L-1.75 3.55L-1.75 3.95L-1.75 4L-1.8 4.85L-1.8 4.3L-1.9 3.85L-1.95 3.8Q-2.15 3.6 -2.4 3.55L-2.65 3.5L-2.9 3.2L-3.1 3.1L-3.35 3.5L-3.25 3.95L-3.4 3.85Q-3.85 3.85 -3.85 4.15L-3.7 4.6Q-4.2 4.6 -4.2 4.95Q-4.2 5.6 -3.65 5.6L-3.9 6.1L-4.5 6.1L-4.2 5.8Q-4.7 5.7 -4.7 4.85L-4.55 4.3L-4.2 4.35L-4.1 4.35Q-4.5 4.2 -4.5 3.65Q-4.5 3.15 -4.05 3.15L-3.6 3.25L-3.75 2.95L-3.45 2.45L-3.2 2.2Q-2.95 2.2 -2.7 2.95L-2.65 3.2L-2.65 2.85L-2.45 2.6Q-2.25 2.6 -2 2.8L-1.95 2.85" />
</g>
</svg>
