<?xml version="1.0" encoding="utf-8"?>
<svg version="1.1" id="Layer_1"
xmlns="http://www.w3.org/2000/svg"
xmlns:xlink="http://www.w3.org/1999/xlink"
xmlns:author="http://www.sothink.com"
width="21px" height="20px"
xml:space="preserve">
<g id="6" transform="matrix(1, 0, 0, 1, 10.5, 10)">
<path style="fill:#000000;fill-opacity:1" d="M-9.55,5.75L-9.55 5.7L-9.3 5.45L-9.05 5.2Q-8.6 4.8 -8.2 4.65L-8.85 5.8L-9.05 6L-9.7 7Q-9.7 7.4 -9.05 7.45L-9 7.45L-8.85 7.45L-7.95 7.35L-7.85 7.3L-7.6 7.15L-7.55 7.05Q-7.35 6.75 -7.4 6.35L-7.35 6.15L-7.25 5.95Q-6.7 6.8 -6.9 7.15L-6.95 7.25L-7.25 7.6L-7.35 7.65L-6.15 7.55L-5.85 7.4L-5.3 7.1L-5.15 7.05L-4.85 6.95L-4.6 7Q-4.3 7.05 -4.25 7.2L-3.15 7.45L-3.05 7.45L-2.7 7.3L-2.35 7.2L-2.3 7.2L-1.95 7.3L-1.85 7.35L-1.7 7.5L-1.55 7.85L-1.15 8.15L-0.95 8.15L-0.9 8.15L-0.8 8.15L-0.65 8.15L-0.5 8.15L-0.4 8.1L0.1 8.1L0.25 8.2L0.4 8.4Q0.65 8.95 1.15 9L1.5 8.85Q1.9 8.5 1.9 7.75L1.9 7.5L2 7.3L2.05 7.2L2.45 7L2.75 7.05L2.9 7.1L3.3 7.35L3.4 7.4L3.7 7.55L3.9 7.65L4.6 7.8L5.25 7.8L6.4 7.45L6.5 7.4L6.55 7.35L6.9 7.25L7.25 7.3L7.35 7.35L7.55 7.45L7.9 7.6L8.35 7.65L8.6 7.65L8.85 7.5L9.2 6.9L9.05 6.65L9 6.5L8.95 6.25L8.75 6L8.55 5.85L8.4 5.7L6.85 4.75L6.7 4.6L7.75 5.05Q9.15 5.55 9.25 5.7L9.85 6.3L9.15 5.4L10 6.2L10.5 6.9Q10.5 7.65 9.8 8.2Q9.2 8.65 8.35 8.65L7.55 8.55L6.95 8.35L5.25 8.8L4.6 8.8L3.3 8.5L3.15 8.45L2.45 9.55L1.15 10Q0.1 10.05 -0.5 9.25L-0.6 9.15L-0.8 9.15L-0.9 9.15L-1.15 9.15Q-2.2 9.05 -2.7 8.4L-2.95 8.45L-4.85 8.1L-5 8.15L-5.05 8.2Q-6.75 9.15 -8.7 8.15L-8.6 8.2L-8.5 7.95L-8.7 8.05L-8.9 8.05L-9.05 8L-9.05 7.95L-9.1 7.95L-10.15 7.6L-10.35 7L-10.15 6.45L-9.55 5.75M-4.05,-7.9Q-4.25 -7.75 -4.5 -7.75L-4.7 -7.75L-5 -7.85L-5.35 -8L-5.5 -8L-6.2 -7.7L-6.3 -7.65L-6.6 -7.25L-6.75 -7.05L-6.8 -7L-7.15 -6.9L-7.4 -6.7L-7.75 -6.4L-7.65 -6.25L-7.6 -6.05Q-7.25 -5.5 -7.8 -4.85L-8.6 -4.1L-8.4 -4.35L-8 -4.9L-8.05 -5.1L-8.2 -5.85L-8.25 -5.9L-8.25 -6L-8.4 -6.1L-8.3 -6.2L-8.5 -6.5Q-8.8 -6.95 -9.3 -6.85L-9.5 -6.6L-9.95 -5L-9.95 -3.9L-10.05 -3.95L-10.35 -4.55L-10.4 -4.95L-10.5 -5.55Q-10.5 -7.35 -9.05 -7.3L-8.8 -7.25L-8.65 -7.25L-8.5 -7.25L-7.8 -7.75L-8.15 -7.5L-8.5 -7.2L-8.5 -7.15L-8.45 -7.15Q-6.2 -8.95 -5.65 -9L-5.55 -9L-5.35 -9L-5.05 -8.95Q-4.6 -10 -3 -10L-2.6 -9.95Q-1.45 -9.8 -1.15 -8.65L-1.1 -8.25L-1.05 -7.8L-1.05 -7.65L-0.5 -7.45L-0.25 -7.35L-0.2 -7.3L0.1 -7.2L0.2 -7.15L0.25 -7.3L0.55 -7.65Q0.85 -8.05 1.3 -8.25L2.2 -8.15Q2.65 -9.15 3.25 -9.25L3.8 -9.35L5.25 -9.05L6.2 -8.3L6.9 -8.25L7.05 -8.2L7.55 -8.05L8.75 -7.4L8.75 -7.35L8.8 -7.35L9 -7.2L9.05 -7.15L9.4 -7.05L9.9 -6.4Q10.25 -6 10.05 -5.65L10.2 -5.75L10.2 -5.65L10 -4.9L9.85 -4.75L9.6 -4.6L7.95 -4.25L7.6 -4.2Q7.8 -4.25 8.6 -4.65L8.85 -4.8L9 -4.85L9.05 -4.95L9.4 -5.65L9.15 -6.05L8.85 -6.05L8.3 -6.35L8.15 -6.5L7.8 -6.7L7.75 -6.7L7.7 -6.8L7.55 -6.9L7.1 -7.15L6.7 -7.25L6.1 -7.3L5.85 -7.25L5.7 -7.25L5.4 -7.35L5.25 -7.4L5.15 -7.6L4.6 -8.2L4.45 -8.25L4.2 -8.3L3.9 -8.35L3.8 -8.35L3.75 -8.3L3.7 -8.3L3.7 -8.25L3.75 -8L3.75 -7.9L3.7 -7.7L3.55 -7.55L3.35 -7.45L3.25 -7.35L2.7 -7.45L2.35 -7.5L2.7 -7.4L2.7 -7.35L2.7 -7.3L2.35 -7.45Q1.9 -7.45 1.65 -7.1L1.3 -6.65L1.15 -6.45L1.05 -6.4L0.75 -6.35L0.6 -6.25L0.45 -6.2L0.15 -6.1L0.1 -6.1L-0.2 -6.1L-0.3 -6.2L-0.45 -6.25L-0.5 -6.3L-0.6 -6.3L-0.65 -6.35L-0.85 -6.45L-0.9 -6.45L-0.95 -6.5L-1.15 -6.6L-1.3 -6.65L-1.85 -6.75L-2.15 -6.85L-2.3 -6.9L-2.4 -7.05L-2.4 -7.35L-2.35 -7.8L-2.4 -8.25Q-2.5 -8.75 -2.75 -8.9L-2.8 -8.9L-3.2 -8.95L-3.25 -8.95Q-3.8 -8.85 -3.85 -8.25L-3.85 -8.2L-4 -7.95L-4.05 -7.9M-9.05,7.95L-8.9 8.05L-9 7.95L-9.05 7.95M-7.8,5.1L-7.65 4.65L-7.6 4.65L-7.55 4.7L-7.45 4.85L-7.55 5L-7.8 5.1M-8.05,4.65Q-8.45 5.3 -8.15 4.65L-8.05 4.65M3.3,-8.25L3.15 -8.4L3.1 -8.3L3.3 -8.25M2.65,-8L2.55 -8L2.5 -7.95L2.55 -7.9L2.75 -7.9L2.7 -7.95L2.7 -8L2.65 -8" />
<path style="fill:#D5FF7E;fill-opacity:1" d="M8.4,5.7L8.55 5.85L8.75 6L8.95 6.25L9 6.5L9.05 6.65L9.2 6.9L8.85 7.5L8.6 7.65L8.35 7.65L7.9 7.6Q8.55 7.4 8.55 6.5L8.4 5.7M0.25,8.15L0.2 8.05L0.15 7.85L0.8 7.95Q1.85 7.95 1.85 6.8L1.8 6.45L2 7.3L1.9 7.5L1.9 7.75Q1.9 8.5 1.5 8.85L1.15 9Q0.65 8.95 0.4 8.4L0.25 8.2L0.25 8.15M-1.35,6.05L-1.35 6.65L-1.15 7.65L-0.8 7.95L-0.95 8.15L-1.15 8.15L-1.55 7.85L-1.7 7.5L-1.85 7.35L-1.85 7.3L-1.55 6.55L-1.55 6.5L-1.35 6.05M-7.25,7.6L-6.95 7.25L-6.9 7.15L-5.7 6.85L-5.35 6.7L-5.25 6.85L-5.15 7L-5.3 7.1L-5.85 7.4L-6.15 7.55L-7.25 7.6M-8.4,7.05L-8.45 7L-7.6 7.15L-7.85 7.3L-7.95 7.35L-8.4 7.05M-8.85,6.9L-9.05 6.95L-9.05 6.85L-8.85 6.9M8.85,-6.05L9.15 -6.05L9.4 -5.65L9.05 -4.95L9 -4.85L8.85 -4.8L8.8 -4.8L8.95 -5.25L8.65 -5.85L8.85 -6.05M5.25,-6.95L5 -7.25L4.6 -7.6L4.2 -7.8L3.75 -7.6L3.7 -7.7L3.75 -7.9L3.75 -8L3.7 -8.25L3.7 -8.3L3.75 -8.3L3.8 -8.35L3.9 -8.35L4.2 -8.3L4.45 -8.25L4.6 -8.2L5.15 -7.6L5.25 -7.4L5.35 -7.35L5.4 -6.75L5.25 -6.95M3.25,-7.35L3.3 -7.35L3.4 -7.05L2.7 -7.35L2.7 -7.4L2.7 -7.45L3.25 -7.35M1.25,-5.8L1.25 -5.75L1.15 -6.3L1.15 -6.45L1.3 -6.65L1.65 -7.1Q1.9 -7.45 2.35 -7.45L2.7 -7.3Q1.85 -7.25 1.85 -5.75Q1.85 -4.55 2.75 -4.2L2.25 -4.4L1.65 -4.9L1.25 -5.8M-4,-7.95L-3.85 -8.2L-3.85 -8.25Q-3.8 -8.85 -3.25 -8.95L-3.2 -8.95L-2.8 -8.9L-2.75 -8.9Q-2.5 -8.75 -2.4 -8.25L-2.35 -7.8L-2.5 -8.05L-3.15 -8.25L-3.2 -8.25Q-3.8 -8.25 -4 -7.85L-4 -7.95M-6.6,-7.25L-6.3 -7.65L-6.2 -7.7L-5.5 -8L-5.35 -8L-5 -7.85L-4.7 -7.75L-4.45 -7.55L-4.3 -7.3L-5.05 -7.55Q-5.65 -7.55 -5.95 -6.85L-6.3 -5.8L-6.7 -6.45L-6.75 -6.85L-6.75 -7.05L-6.6 -7.25M-3.05,-2.25L-3.95 -2.2L-4.2 -1.85L-4 -1.5L-4.25 -1.75L-4.4 -2.2L-4.05 -2.4L-4 -2.45L-3.85 -2.4L-3.15 -2.35L-3.15 -2.3L-3.05 -2.25M-5,-0.25L-4.8 0.2L-4.25 0.7L-4.45 0.8Q-4.8 0.85 -5 0.5L-5.15 -0.05L-5 -0.25M-4,1.1Q-3.6 1.6 -3.25 1.45L-3.2 1.45L-3.2 1.5L-3.35 1.55L-4 1.7L-4.25 1.55L-4.1 1.25L-4.25 1.15L-4.05 1.15L-4 1.1M-2.7,0.95L-2.6 1.1L-2.55 1.2L-2.1 1.65L-1.5 1.65L-1.3 1.45L-1.15 1.05L-1.1 1.45L-1.05 1.8L-1.05 1.85L-0.95 1.9Q-1.15 2.55 -2 2.3L-2.1 2.3L-2.6 1.9L-2.7 1.9L-2.9 1.55L-2.7 1.15L-2.7 0.95" />
<path style="fill:#AAE72C;fill-opacity:1" d="M8.65,-5.85L8.95 -5.25L8.8 -4.8L8.85 -4.8L8.6 -4.65Q7.8 -4.25 7.6 -4.2L7.95 -4.25L9.6 -4.6L9.85 -4.75L10 -4.9L10 6.2L9.15 5.4L9.85 6.3L9.25 5.7Q9.15 5.55 7.75 5.05L6.7 4.6L6.85 4.75L8.4 5.7L8.55 6.5Q8.55 7.4 7.9 7.6L7.55 7.45L7.35 7.35L7.25 7.3L6.1 5.55L5.7 4.55L5.8 5.5L5.85 5.85L5.85 6.3Q5.85 7.1 5.25 7.4L4.6 7.6L4.3 7.6L3.8 7.55L3.7 7.55L3.4 7.4L3.3 7.35L2.9 7.1L2.75 7.05L2.75 7L2.65 6.7L1 5L0.55 5L0.65 5.15L1.15 5.5L1.4 5.8L1.45 5.9L1.5 5.9L1.8 6.45L1.85 6.8Q1.85 7.95 0.8 7.95L0.15 7.85L0.1 7.5L-0.4 6.05L-0.45 5.9L-0.45 6L-0.45 6.5L-0.45 6.85L-0.45 6.95L-0.45 7.15L-0.45 7.3L-0.45 7.35L-0.5 7.6L-0.8 7.95L-1.15 7.65L-1.35 6.65L-1.35 6.05L-1.15 5.9L-0.9 5.65L-1.15 5.8L-1.95 6.25L-2 6.3L-2.15 6.55L-3.8 6.85L-4.65 6.85L-5.15 6.7L-5.3 6.65L-5.35 6.7L-5.7 6.85L-6.9 7.15Q-6.7 6.8 -7.25 5.95L-7.35 6.15L-7.4 6.35Q-7.35 6.75 -7.55 7.05L-7.6 7.15L-8.45 7L-8.4 7.05L-7.95 7.35L-8.85 7.45L-9 7.45L-9.05 7.45Q-9.7 7.4 -9.7 7L-9.05 6L-8.2 5.35L-7.75 4.35L-7.8 4.4L-7.55 3.7L-8 4.5L-8.15 4.6L-7.95 4.25L-8.2 4.65Q-8.6 4.8 -9.05 5.2L-9.3 5.45L-9.55 5.7L-9.55 5.75L-10.15 6.45Q-10.05 -1.7 -10.35 -4.55L-10.05 -3.95L-9.95 -3.9L-9.95 -5L-9.5 -6.6L-9.3 -6.85Q-8.8 -6.95 -8.5 -6.5L-8.3 -6.2L-8.4 -6.1L-8.45 -6.05L-8.7 -5.9L-8.65 -5.8L-8.6 -5.55L-8.65 -5.4L-8.45 -5.4L-8.3 -5.7L-8.2 -5.85L-8.05 -5.1L-8 -4.9L-8.4 -4.35L-8.6 -4.1L-7.8 -4.85Q-7.25 -5.5 -7.6 -6.05L-7.1 -6L-6.55 -5.5L-6.3 -5.35L-5.9 -5.05L-5.75 -5L-6.3 -5.8L-5.95 -6.85Q-5.65 -7.55 -5.05 -7.55L-4.3 -7.3L-4.25 -7.15L-4.1 -6.8L-4 -6.55L-3.95 -6.45L-3.4 -6.05L-3.25 -6L-3.4 -6.25L-3.55 -6.8L-3.45 -6.4L-3.55 -6.45L-3.65 -7.1L-3.8 -7.3L-3.8 -7.35L-3.95 -7.75L-4 -7.85Q-3.8 -8.25 -3.2 -8.25L-3.15 -8.25L-2.5 -8.05L-2.35 -7.8L-2.4 -7.35L-2.4 -7.05L-2.3 -6.9L-2.3 -6.7L-2.35 -6.3L-2.4 -6.7L-2.5 -6.5L-2.5 -6L-2.4 -5.8L-2.35 -5.2L-2.35 -5.85Q-1.9 -6.3 -1.15 -6.35L-0.9 -6.35L-0.6 -6.3L-0.5 -6.3L-0.45 -6.25L-0.3 -6.2L-0.2 -6.1L0.1 -5.95L0.2 -5.95L0.15 -6.1L0.75 -5.6L1 -5.25L1.45 -4.55L2 -4.15L2.1 -4.1L1.65 -4.9L2.25 -4.4L2.75 -4.2Q1.85 -4.55 1.85 -5.75Q1.85 -7.25 2.7 -7.3L2.7 -7.35L3.4 -7.05L3.4 -6.95L3.55 -6.75L3.8 -6.25L3.8 -6.2L4.3 -5.6L4.35 -5.6L3.9 -7.15L3.75 -7.6L4.2 -7.8L4.6 -7.6L5 -7.25L5.25 -6.95L5.4 -6.75L5.65 -5.5L5.8 -6.15L5.85 -5.3Q6.2 -6.65 7.55 -6.8L7.7 -6.8L7.75 -6.7L7.8 -6.7L8.15 -6.5L8.3 -6.35L8.4 -5.65L8.35 -5.1L8.65 -5.8L8.65 -5.85M-9.05,6.85L-9.05 6.95L-8.85 6.9L-9.05 6.85M-8.6,6.95L-7.6 6.7L-8.85 6.9L-8.6 6.95M-7.55,5L-7.45 4.85L-7.55 4.7L-7.6 4.65L-7.65 4.65L-7.8 5.1L-7.55 5M-7.65,4.3L-7.75 4.5L-7.6 4.25L-7.65 4.3M2.35,-7.5L2.7 -7.45L2.7 -7.4L2.35 -7.5M6.9,-2.05Q6.9 -2.85 6.25 -2.95L6.7 -3.35Q6.7 -3.9 6.25 -3.9Q5.6 -3.9 5.5 -3.45L5.85 -3.55L6 -3.3L5.65 -2.75Q6.25 -2.7 6.25 -2.15Q6.25 -1.8 5.7 -1.8L5.9 -1.4Q5.9 -1.1 5.4 -1.1L5.25 -1.15L5.15 -1.2L5.25 -0.8L5.25 -0.75Q5.25 -0.4 4.95 -0.4Q4.8 -0.4 4.6 -0.55L4.4 -0.8L4.35 -0.8L3.55 -1.05Q3.4 -1.25 3.4 -1.55L3.4 -2L3.3 -1.3Q3.3 -0.55 3.55 -0.2Q3.8 0 4.15 0L4.35 -0.2L4.35 -0.6L4.6 0L5.05 0.4L5.25 0.4L5.45 0.2L5.8 -0.3L5.6 -0.6Q5.9 -0.45 6.1 -0.45Q6.65 -0.45 6.65 -0.95Q6.65 -1.45 6.2 -1.6L6.25 -1.6L6.7 -1.55L6.9 -2.05M4.4,-5.7L4.45 -5.9L4.3 -6.45L4.35 -5.6L4.4 -5.7M3.95,-5.8L4.1 -5.6L4.2 -5.6L3.95 -5.8M-0.6,1.8L-0.65 1.4L-1.3 0.35L-1.25 0.55L-1.15 0.9L-1.15 1.05L-1.3 1.45L-1.5 1.65L-2.1 1.65L-2.55 1.2L-2.6 1.1L-2.7 0.95L-2.7 0.65L-2.75 0.55L-2.75 0.5L-2.8 0.7L-3.05 1.15L-3.2 1.45L-3.25 1.45Q-3.6 1.6 -4 1.1L-3.8 0.8L-3.75 0.75L-3.65 0.65L-3.45 0.4L-3.75 0.5L-3.8 0.55L-4.25 0.7L-4.8 0.2L-5 -0.25L-4.8 -0.45L-4.8 -0.5L-4.65 -0.5L-4.6 -0.55L-3.8 -0.75L-3.65 -0.85L-3.2 -0.65L-2.7 -0.4L-3.05 -0.75L-4 -1.5L-4.2 -1.85L-3.95 -2.2L-3.05 -2.25L-3 -2.2L-2.6 -1.95L-2.4 -1.75L-2.1 -1.55Q-1.65 -1.25 -1.35 -0.95L-2.1 -2L-2.35 -2.3L-2.6 -2.45L-3 -2.65L-3.65 -3.1L-4.2 -3.25L-4.25 -3.25L-4.65 -3.2Q-5.55 -2.5 -5.5 -1.85L-5.35 -1.55L-5.3 -1.45L-5.15 -1.35L-5.35 -1.3L-5.45 -1.25L-5.95 -0.85L-6.1 -0.65Q-6.4 -0.1 -6.1 0.4L-6.1 0.45L-5.85 0.8L-5 1.25L-5.05 1.4L-4.9 1.9Q-4.3 2.85 -3.45 2.6L-3.15 2.5L-2.6 2.85L-2.15 3.05L-2.1 3.1L-1.45 3.2L-0.7 3.1Q-0.3 2.9 -0.45 2.45L-0.45 2.4Q-0.4 2.15 -0.5 1.9L-0.6 1.8M-8.3,0.3Q-8.4 -0.45 -7.75 -0.5L-7.6 -0.35L-7.45 -0.15Q-7.25 -0.5 -7.65 -0.5L-7.75 -0.5L-8.15 -0.6Q-9.05 -0.6 -9.05 0.15L-9.05 0.3L-8.8 0.7L-9 1.35Q-9 1.7 -8.65 1.8L-8.4 1.8L-8.5 2.1Q-8.5 2.5 -7.95 2.5L-7.65 2.5L-7.55 3.05L-6.9 3.35Q-6.6 3.35 -6.5 3.05L-6.35 2.8L-6.3 2.8L-6.3 2.7L-6.35 2.8L-6.5 2.8L-6.95 2.6L-7.2 2.05L-7.2 1.9L-7.2 1.8L-7.45 1.85Q-7.75 1.85 -7.75 1.6L-7.75 1.35L-7.85 1.35Q-8.25 1.35 -8.25 1Q-8.25 0.8 -8.05 0.75L-8.3 0.3M-7.85,0.75L-7.8 0.6L-8.05 0.75L-7.85 0.75M-2.3,-6.3L-2.35 -6.05L-2.35 -6.3L-2.3 -6.3" />
<path style="fill:#001505;fill-opacity:1" d="M5.8,5.5L5.7 4.55L6.1 5.55L7.25 7.3L6.9 7.25L6.55 7.35L6.1 6.5L5.85 5.85L5.8 5.5M3.8,7.55L4.6 7.75L5.25 7.75L6.4 7.45L5.25 7.8L4.6 7.8L3.9 7.65L3.7 7.55L3.8 7.55M1.8,6.45L1.5 5.9L1.45 5.9L1.4 5.8L1.15 5.5L0.65 5.15L0.55 5L1 5L2.65 6.7L2.75 7L2.75 7.05L2.45 7L2.05 7.2L2 7.3L1.8 6.45M-0.45,7.3L-0.45 7.15L-0.45 6.95L-0.45 6.85L-0.45 6.5L-0.45 6L-0.45 5.9L-0.4 6.05L0.1 7.5L0.15 7.85L0.2 8.05L0.25 8.15L0.25 8.2L0.1 8.1L-0.4 8.1L-0.3 8.05L-0.45 7.55L-0.45 7.5L-0.45 7.35L-0.45 7.3M-1.55,6.5L-1.55 6.55L-1.85 7.3L-1.85 7.35L-1.95 7.3L-2.3 7.2L-2.15 6.55L-2 6.3L-1.95 6.25L-1.15 5.8L-0.9 5.65L-1.15 5.9L-1.35 6.05L-1.55 6.5M-4.8,6.85L-4.6 7L-4.85 6.95L-5.15 7.05L-5.3 7.1L-5.15 7L-5.25 6.85L-5.35 6.7L-5.3 6.65L-5.15 6.7L-4.8 6.85M-6.15,7.55L-7.35 7.65L-7.25 7.6L-6.15 7.55M-7.95,4.25L-8.15 4.6L-8 4.5L-7.55 3.7L-7.8 4.4L-7.75 4.35L-8.2 5.35L-9.05 6L-8.85 5.8L-8.2 4.65L-7.95 4.25M-8.85,6.9L-7.6 6.7L-8.6 6.95L-8.85 6.9M-7.6,4.25L-7.75 4.5L-7.65 4.3L-7.6 4.25M-8.15,4.65Q-8.45 5.3 -8.05 4.65L-8.15 4.65M8.65,-5.85L8.65 -5.8L8.35 -5.1L8.4 -5.65L8.3 -6.35L8.85 -6.05L8.65 -5.85M6.1,-7.3L6.7 -7.25L7.1 -7.15L6.1 -7.3M5.65,-5.5L5.4 -6.75L5.35 -7.35L5.25 -7.4L5.4 -7.35L5.7 -7.25L5.85 -7.25L5.9 -6.75L5.9 -6.7L5.8 -6.15L5.65 -5.5M3.35,-7.45L3.55 -7.55L3.7 -7.7L3.75 -7.6L3.9 -7.15L4.35 -5.6L4.3 -5.6L3.8 -6.2L3.8 -6.25L3.55 -6.75L3.4 -6.95L3.4 -7.05L3.3 -7.35L3.25 -7.35L3.35 -7.45M0.6,-6.25L0.75 -6.35L1.05 -6.4L1.15 -6.45L1.15 -6.3L1.25 -5.75L1.25 -5.8L1.65 -4.9L2.1 -4.1L2 -4.15L1.45 -4.55L1 -5.25L0.85 -5.6L0.6 -6.2L0.6 -6.25M0.1,-6.1L0.15 -6.1L0.2 -5.95L0.1 -5.95L-0.2 -6.1L0.1 -6.1M-2.15,-6.85L-1.85 -6.75L-2 -6.4L-2.2 -6.3L-2.3 -6.3L-2.35 -6.3L-2.35 -6.05L-2.35 -5.85L-2.35 -5.2L-2.4 -5.8L-2.5 -6L-2.5 -6.5L-2.4 -6.7L-2.35 -6.3L-2.3 -6.7L-2.3 -6.9L-2.15 -6.85M-4,-7.95L-4 -7.85L-3.95 -7.75L-3.8 -7.35L-3.8 -7.3L-3.65 -7.1L-3.55 -6.45L-3.4 -6.05L-3.45 -6.4L-3.55 -6.8L-3.4 -6.25L-3.25 -6L-3.4 -6.05L-3.95 -6.45L-4 -6.55L-4.1 -6.8L-4.25 -7.15L-4.3 -7.3L-4.45 -7.55L-4.7 -7.75L-4.5 -7.75Q-4.25 -7.75 -4.05 -7.9L-4 -7.95M-7.15,-6.9L-6.8 -7L-6.75 -7.05L-6.75 -6.85L-6.7 -6.45L-6.3 -5.8L-5.75 -5L-5.9 -5.05L-6.3 -5.35L-6.55 -5.5L-7.1 -6L-7.15 -6.2L-7.15 -6.3L-7.25 -6.75L-7.4 -6.7L-7.15 -6.9M-8.45,-6.05L-8.4 -6.1L-8.3 -6L-8.45 -6.05M3.1,-8.3L3.15 -8.4L3.3 -8.25L3.1 -8.3M2.65,-7.95L2.7 -8L2.7 -7.95L2.75 -7.9L2.55 -7.9L2.5 -7.95L2.55 -8L2.65 -8L2.65 -7.95M4.35,-5.6L4.3 -6.45L4.45 -5.9L4.4 -5.7L4.35 -5.6M4.2,-5.6L4.1 -5.6L3.95 -5.8L4.2 -5.6M-3.15,-2.3L-3.15 -2.35L-3.85 -2.4L-4 -2.45L-4.05 -2.4L-4.4 -2.2L-4.25 -1.75L-4 -1.5L-3.05 -0.75L-2.7 -0.4L-3.2 -0.65L-3.65 -0.85L-3.8 -0.75L-4.6 -0.55L-4.65 -0.5L-4.8 -0.5L-4.8 -0.45L-5 -0.25L-5.15 -0.05L-5 0.5Q-4.8 0.85 -4.45 0.8L-4.25 0.7L-3.8 0.55L-3.75 0.5L-3.45 0.4L-3.65 0.65L-3.75 0.75L-3.8 0.8L-4 1.1L-4.05 1.15L-4.25 1.15L-4.1 1.25L-4.25 1.55L-4 1.7L-3.35 1.55L-3.2 1.5L-3.2 1.45L-3.05 1.15L-2.8 0.7L-2.75 0.5L-2.75 0.55L-2.7 0.65L-2.7 0.95L-2.7 1.15L-2.9 1.55L-2.7 1.9L-2.6 1.9L-2.1 2.3L-2 2.3Q-1.15 2.55 -0.95 1.9L-1.05 1.85L-1.05 1.8L-1.1 1.45L-1.15 1.05L-1.15 0.9L-1.25 0.55L-1.3 0.35L-0.65 1.4L-0.6 1.8L-0.5 1.9L-0.65 1.95L-0.6 2Q-0.85 3 -2.1 2.7L-2.1 2.65L-2.4 2.55L-2.6 2.45L-2.95 2.1L-3 2L-3.05 1.9Q-3.25 2.1 -3.45 2.1L-4.05 2L-4.65 1.5L-4.6 1.2L-5.05 0.95L-5.25 0.6Q-5.7 0.05 -5.55 -0.25L-5.55 -0.3L-5.1 -0.75L-5.05 -0.8L-4.85 -0.85L-4.2 -1.15L-4.05 -1.1L-4.65 -1.6Q-5.05 -2.1 -4.85 -2.4L-4.3 -2.75L-4.1 -2.75L-4.05 -2.8L-3.15 -2.7L-3 -2.65L-2.6 -2.45L-2.35 -2.3L-2.1 -2L-1.35 -0.95Q-1.65 -1.25 -2.1 -1.55L-2.4 -1.75L-2.6 -1.95L-3 -2.2L-3.05 -2.25L-3.15 -2.3" />
<path style="fill:#6B9A0B;fill-opacity:1" d="M6.55,7.35L6.5 7.4L6.4 7.45L5.25 7.75L4.6 7.75L3.8 7.55L4.3 7.6L4.6 7.6L5.25 7.4Q5.85 7.1 5.85 6.3L5.85 5.85L6.1 6.5L6.55 7.35M-0.8,7.95L-0.5 7.6L-0.45 7.35L-0.45 7.5L-0.45 7.55L-0.3 8.05L-0.4 8.1L-0.5 8.15L-0.65 8.15L-0.8 8.15L-0.9 8.15L-0.95 8.15L-0.8 7.95M-2.15,6.55L-2.3 7.2L-2.35 7.2L-2.7 7.3L-3.05 7.45L-3.15 7.45L-4.25 7.2Q-4.3 7.05 -4.6 7L-4.8 6.85L-5.15 6.7L-4.65 6.85L-3.8 6.85L-2.15 6.55M7.55,-6.8Q6.2 -6.65 5.85 -5.3L5.8 -6.15L5.9 -6.7L5.9 -6.75L5.85 -7.25L6.1 -7.3L7.1 -7.15L7.55 -6.9L7.7 -6.8L7.55 -6.8M0.45,-6.2L0.6 -6.25L0.6 -6.2L0.85 -5.6L1 -5.25L0.75 -5.6L0.15 -6.1L0.45 -6.2M-2.35,-6.05L-2.3 -6.3L-2.2 -6.3L-2 -6.4L-1.85 -6.75L-1.3 -6.65L-1.15 -6.6L-0.95 -6.5L-0.9 -6.45L-0.85 -6.45L-0.65 -6.35L-0.6 -6.3L-0.9 -6.35L-1.15 -6.35Q-1.9 -6.3 -2.35 -5.85L-2.35 -6.05M-7.65,-6.25L-7.75 -6.4L-7.4 -6.7L-7.25 -6.75L-7.15 -6.3L-7.15 -6.2L-7.1 -6L-7.6 -6.05L-7.65 -6.25M-8.3,-6L-8.4 -6.1L-8.25 -6L-8.25 -5.9L-8.2 -5.85L-8.3 -5.7L-8.45 -5.4L-8.65 -5.4L-8.6 -5.55L-8.65 -5.8L-8.7 -5.9L-8.45 -6.05L-8.3 -6M6.7,-1.55L6.25 -1.6L6.2 -1.6Q6.65 -1.45 6.65 -0.95Q6.65 -0.45 6.1 -0.45Q5.9 -0.45 5.6 -0.6L5.8 -0.3L5.45 0.2L5.25 0.4L5.05 0.4L4.6 0L4.35 -0.6L4.35 -0.2L4.15 0Q3.8 0 3.55 -0.2Q3.3 -0.55 3.3 -1.3L3.4 -2L3.4 -1.55Q3.4 -1.25 3.55 -1.05L4.35 -0.8L4.4 -0.8L4.6 -0.55Q4.8 -0.4 4.95 -0.4Q5.25 -0.4 5.25 -0.75L5.25 -0.8L5.15 -1.2L5.25 -1.15L5.4 -1.1Q5.9 -1.1 5.9 -1.4L5.7 -1.8Q6.25 -1.8 6.25 -2.15Q6.25 -2.7 5.65 -2.75L6 -3.3L5.85 -3.55L5.5 -3.45Q5.6 -3.9 6.25 -3.9Q6.7 -3.9 6.7 -3.35L6.25 -2.95Q6.9 -2.85 6.9 -2.05L6.7 -1.55M-3.15,-2.7L-4.05 -2.8L-4.1 -2.75L-4.3 -2.75L-4.85 -2.4Q-5.05 -2.1 -4.65 -1.6L-4.05 -1.1L-4.2 -1.15L-4.85 -0.85L-5.05 -0.8L-5.1 -0.75L-5.55 -0.3L-5.55 -0.25Q-5.7 0.05 -5.25 0.6L-5.05 0.95L-4.6 1.2L-4.65 1.5L-4.05 2L-3.45 2.1Q-3.25 2.1 -3.05 1.9L-3 2L-2.95 2.1L-2.6 2.45L-2.4 2.55L-2.1 2.65L-2.1 2.7Q-0.85 3 -0.6 2L-0.65 1.95L-0.5 1.9Q-0.4 2.15 -0.45 2.4L-0.45 2.45Q-0.3 2.9 -0.7 3.1L-1.45 3.2L-2.1 3.1L-2.15 3.05L-2.6 2.85L-3.15 2.5L-3.45 2.6Q-4.3 2.85 -4.9 1.9L-5.05 1.4L-5 1.25L-5.85 0.8L-6.1 0.45L-6.1 0.4Q-6.4 -0.1 -6.1 -0.65L-5.95 -0.85L-5.45 -1.25L-5.35 -1.3L-5.15 -1.35L-5.3 -1.45L-5.35 -1.55L-5.5 -1.85Q-5.55 -2.5 -4.65 -3.2L-4.25 -3.25L-4.2 -3.25L-3.65 -3.1L-3 -2.65L-3.15 -2.7M-8.05,0.75Q-8.25 0.8 -8.25 1Q-8.25 1.35 -7.85 1.35L-7.75 1.35L-7.75 1.6Q-7.75 1.85 -7.45 1.85L-7.2 1.8L-7.2 1.9L-7.2 2.05L-6.95 2.6L-6.5 2.8L-6.35 2.8L-6.5 3.05Q-6.6 3.35 -6.9 3.35L-7.55 3.05L-7.65 2.5L-7.95 2.5Q-8.5 2.5 -8.5 2.1L-8.4 1.8L-8.65 1.8Q-9 1.7 -9 1.35L-8.8 0.7L-9.05 0.3L-9.05 0.15Q-9.05 -0.6 -8.15 -0.6L-7.75 -0.5Q-8.4 -0.45 -8.3 0.3L-8.05 0.75M-8.3,1.8L-8.25 1.6L-8.4 1.8L-8.3 1.8M-8.7,0.75L-8.4 0.6L-8.8 0.7L-8.7 0.75" />
<path style="fill:#CBFF5F;fill-opacity:1" d="M-3.4,-6.05L-3.55 -6.45L-3.45 -6.4L-3.4 -6.05M-6.35,2.8L-6.3 2.7L-6.3 2.8L-6.35 2.8M-7.75,-0.5L-7.65 -0.5Q-7.25 -0.5 -7.45 -0.15L-7.6 -0.35L-7.75 -0.5M-8.05,0.75L-7.8 0.6L-7.85 0.75L-8.05 0.75M-8.4,1.8L-8.25 1.6L-8.3 1.8L-8.4 1.8M-8.8,0.7L-8.4 0.6L-8.7 0.75L-8.8 0.7" />
</g>
</svg>
