<?xml version="1.0" encoding="utf-8"?>
<svg version="1.1" id="Layer_1"
xmlns="http://www.w3.org/2000/svg"
xmlns:xlink="http://www.w3.org/1999/xlink"
xmlns:author="http://www.sothink.com"
width="20px" height="20px"
xml:space="preserve">
<g id="15" transform="matrix(1, 0, 0, 1, 10, 10.1)">
<path style="fill:#000000;fill-opacity:1" d="M-3.3,6.45L-3.3 6.35L-3.3 6.3L-3.1 6L-2.95 5.85L-2.8 5.85Q-2.65 5.7 -2.45 5.7L-2.35 5.7L-2.2 5.75L-2.05 5.8L-1.8 5.95L-1.75 5.95L-1.35 6.05L0 6.1L0.25 6.1L0.3 6.15L0.5 6.35L0.6 6.65L0.6 6.7L0.6 6.8L0.6 7L1.2 7.1L1.95 6.75L1.95 6.7L2.05 6.65L2.3 6.55Q2.5 6.55 2.6 6.7L2.8 7.05L2.95 7.55Q3.15 8.15 3.65 8.15L3.7 8.15L4.15 8.05L4.15 7.95L4.5 7.75L4.25 6.8L4.2 6.5L4.2 6.4L4.35 6.1L4.6 5.95L4.95 6L5.65 6.3L6.05 6.05L6.05 5.8L6.35 5.3L6.5 5.15L6.7 4.9L6.7 4.8L6.8 4.75L7.15 4.25L7.25 3.9L7.3 3.35L7.25 3.15L7.25 3L7.35 2.7L7.4 2.6L7.6 2.5L8.25 1.9L8.3 1.65L8.35 1.4L8.35 1.3L8.3 1.25L8.3 1.2L8.25 1.2L8 1.25L7.9 1.25L7.7 1.2L7.55 1.1L7.45 0.9L7.35 0.8L7.35 0.75L7.3 0.4L7.3 0.35L7.45 0.05L7.1 -0.6L6.65 -0.9L6.45 -1.05L6.4 -1.1L6.35 -1.4L6.25 -1.55L6.2 -1.65L6.1 -1.95L6.1 -2L6.1 -2.25L6.2 -2.35L6.25 -2.45L6.3 -2.5L6.3 -2.6L6.35 -2.65L6.45 -2.8L6.45 -2.85L6.5 -2.95L6.65 -3.2L6.75 -3.7L6.85 -4L6.9 -4.1L7.05 -4.2L7.35 -4.2L7.8 -4.15L8.25 -4.2Q8.75 -4.25 8.9 -4.5L8.9 -4.55L8.95 -4.9L8.95 -4.95Q8.85 -5.45 8.25 -5.5L8.2 -5.5Q8.05 -5.5 7.95 -5.6L7.9 -5.65Q7.75 -5.85 7.75 -6.1L7.75 -6.25L7.85 -6.5L8 -6.85L8 -6.95L7.7 -7.6L7.65 -7.65L7.25 -7.95Q7.15 -7.95 7.05 -8.05L7 -8.1L6.9 -8.4L6.7 -8.65L6.3 -9L6.1 -9.3L6.1 -9.45L6.1 -9.6L6.1 -9.7L6.25 -9.85L6.35 -10.05L6.35 -10.1L6.6 -10.1L6.7 -10.05Q8.95 -7.65 9 -7.05L9 -7L9 -6.85L8.95 -6.55Q10 -6.15 10 -4.75L9.95 -4.4Q9.8 -3.15 8.25 -3.05L7.8 -3L7.65 -3L7.35 -2.3L7.3 -2.25L7.2 -2L7.15 -1.9L7.3 -1.8L7.65 -1.6L8.25 -0.9L8.5 0.15L8.25 0.1L8.2 0.1L8.25 0.15L8.4 0.7L8.35 0.6L8 0.2L7.95 0.15L7.9 0.4L7.85 0.55L7.8 1.1L8.2 0.9L7.9 0.95L8.25 0.75L8.25 0.7L8.35 0.6L8.3 0.7L8.25 0.85L8.4 0.75L8.5 0.3L8.5 0.15Q9.15 0.3 9.25 0.8L9.35 1.3Q9.35 2.8 8.3 3.4L8.25 4.05L8.2 4.2Q8.05 5.05 7.4 5.7L7.35 5.7L7.35 5.75L7.2 5.95L7.15 6L7.1 6.3L7.05 6.45L6.85 6.75L6.85 6.8Q6.35 7.45 5.65 7.45L5.5 7.45L5.5 7.75Q5.55 8.55 4.7 9L4.55 9.1L3.7 9.3L2.6 9L2 8.05L1.3 8.25Q0.5 8.3 0.05 7.95L0.1 7.95L-0.35 7.35L-2.1 7.05L-2.25 7Q-2.3 8.05 -2.95 8.9L-2.95 8.95L-3 9Q-3.7 9.9 -4.75 9.9Q-5.55 9.95 -5.95 9.15L-6 9L-6.25 7.35L-6.25 7.1L-6.25 7.05L-6.3 7.1L-6.9 7.25Q-7.65 7.25 -8.2 6.65Q-8.65 6.1 -8.65 5.35L-8.35 4.1Q-9.15 2.6 -8.5 0.85L-8.45 0.75L-9.55 0.1Q-10 -0.4 -10 -1.05Q-10.05 -2.05 -9.15 -2.6L-9.15 -2.75L-9.15 -2.85Q-9.15 -4 -8.4 -4.45L-8.45 -4.7Q-8.6 -5.5 -8.1 -6.35L-8.15 -6.5L-8.2 -6.55Q-9.15 -8.05 -8.15 -9.8L-8.2 -9.7L-7.95 -9.65L-8.05 -9.8L-8.1 -9.85L-8.25 -10.1L-7.95 -10.1L-8.05 -9.95L-7.9 -10.05L-7.65 -10.05L-7.7 -10.1L-6.95 -10.1L-6.9 -9.95L-6.95 -9.7L-7 -9.65L-7 -9.6L-7.05 -9.5L-7.35 -9.1L-7.45 -9L-7.5 -8.95Q-7.8 -8.2 -7.55 -7.55L-7.4 -7.25L-7.1 -6.8L-7.05 -6.65L-6.95 -6.35L-7 -6.15L-7.2 -5.85L-7.45 -4.85L-7.45 -4.8L-7.3 -4.45L-7.2 -4.15L-7.2 -4.1L-7.3 -3.8L-7.35 -3.7L-7.5 -3.55L-7.85 -3.45L-8.15 -3.1L-8.15 -2.95L-8.15 -2.85L-8.15 -2.75L-8.15 -2.65L-8.1 -2.4L-8.1 -2L-8.2 -1.8L-8.4 -1.7Q-8.95 -1.45 -9 -1.05L-8.85 -0.7Q-8.5 -0.35 -7.75 -0.35L-7.5 -0.35L-7.3 -0.3L-7.2 -0.25L-7 0.1L-7.05 0.4L-7.1 0.5L-7.35 0.85L-7.4 0.95L-7.55 1.2L-7.65 1.4Q-8.05 2.55 -7.45 3.6L-7.4 3.7L-7.35 3.75L-7.25 4.05L-7.3 4.35L-7.35 4.45L-7.6 4.95L-7.65 5.35L-7.65 5.6L-7.5 5.8L-6.9 6.1L-6.65 6L-6.5 5.95L-6.25 5.85L-6 5.7L-5.75 5.5L-5.6 5.5Q-5.5 5.5 -5.45 5.6L-5.2 5.8Q-5.1 6 -5.15 6.15L-5.2 6.55L-5.25 6.85L-5.25 7L-5.25 7.35L-5.1 8.55L-4.8 8.75L-4.75 8.75Q-4.1 8.75 -3.7 8.15Q-3.35 7.75 -3.3 7.2L-3.25 6.85L-3.3 6.65L-3.3 6.45M7.75,-9L7.5 -9.3L6.85 -10L7.25 -9.65L7.75 -9" />
<path style="fill:#D5FF7E;fill-opacity:1" d="M-5.1,7.55L-4.55 7.9Q-3.8 7.9 -3.5 7.35L-3.3 6.65L-3.25 6.85L-3.3 7.2Q-3.35 7.75 -3.7 8.15Q-4.1 8.75 -4.75 8.75L-4.8 8.75L-5.1 8.55L-5.25 7.35L-5.25 7L-5.1 7.55M-5.6,5.5L-5.75 5.5L-6 5.7L-6.25 5.85L-6.5 5.95L-6.65 6L-6.9 6.1L-7.5 5.8L-7.65 5.6L-7.65 5.35L-7.6 4.95Q-7.4 5.5 -6.5 5.5L-5.15 5.15L-5.6 5.5M-8.15,-1.8L-8.05 -1.9L-7.85 -1.95L-7.95 -1.35Q-7.95 -0.4 -6.8 -0.4L-6.45 -0.5L-7.3 -0.3L-7.5 -0.35L-7.75 -0.35Q-8.5 -0.35 -8.85 -0.7L-9 -1.05Q-8.95 -1.45 -8.4 -1.7L-8.2 -1.8L-8.15 -1.8M-7.3,-3.7L-6.55 -3.45L-6.5 -3.45L-6.05 -3.3L-6.65 -3.3L-7.65 -3.1L-7.95 -2.75L-8.15 -2.95L-8.15 -3.1L-7.85 -3.45L-7.5 -3.55L-7.35 -3.7L-7.3 -3.7M-7.45,-9L-7.35 -9.1L-7.05 -9.5L-7 -9.6L-7.15 -8.35L-6.85 -7.15L-6.7 -6.85L-6.85 -6.7Q-7 -6.6 -7 -6.65L-7.1 -6.8L-7.4 -7.25L-7.55 -7.55Q-7.8 -8.25 -7.45 -9M-6.85,-10.1L-6.9 -9.95L-6.95 -10.1L-6.85 -10.1M7.55,-6L7.3 -5.9L7.55 -6.55Q7.55 -7.05 6.85 -7.35L5.8 -7.65L6.45 -8L6.85 -8.05L7.05 -8.05Q7.15 -7.95 7.25 -7.95L7.65 -7.65L7.7 -7.6L8 -6.95L8 -6.85L7.85 -6.5L7.75 -6.25L7.55 -6M7.85,-5.6L7.95 -5.6Q8.05 -5.5 8.2 -5.5L8.25 -5.5Q8.85 -5.45 8.95 -4.95L8.95 -4.9L8.9 -4.55L8.9 -4.5Q8.75 -4.25 8.25 -4.2L7.8 -4.15L8.05 -4.25L8.25 -4.85L8.25 -4.9Q8.25 -5.45 7.85 -5.6M6.45,-1.05L6.65 -0.9L7.1 -0.6L7.45 0.05L7.3 0.35Q7.25 -0.4 5.75 -0.4Q4.55 -0.4 4.2 0.4L4.4 -0.05L4.9 -0.6L5.8 -0.95L5.75 -0.95L6.3 -1.05L6.45 -1.05M7.05,0.95L7.3 0.4L7.35 0.75L7.35 0.8L7.35 0.85L7.05 0.95M7.7,1.2L7.9 1.25L8 1.25L8.25 1.2L8.3 1.2L8.3 1.25L8.35 1.3L8.35 1.4L8.3 1.65L8.25 1.9L7.6 2.5L7.4 2.6L7.35 2.65L6.75 2.7L7.25 2.35L7.8 1.65L7.6 1.25L7.7 1.2M4.25,5.6L5.25 5.85L5.85 5.65L6.05 5.8L6.05 6.05L5.65 6.3L4.95 6L4.6 5.95L4.35 5.8L4.15 5.65L4.1 5.65L3.9 5.4L4.25 5.6M4.2,6.5L4.25 6.8L4.5 7.75L4.15 7.95L4.15 8.05L3.7 8.15L3.65 8.15Q3.15 8.15 2.95 7.55L3.15 7.6Q4.05 7.6 4.05 6.9L3.8 6L3.95 6.15L4.2 6.5M0.8,6.75L1.95 6.4L2.25 6.05L2.1 6.45L2.05 6.65L1.95 6.7L1.95 6.75L1.2 7.1L0.6 7L0.6 6.8L0.6 6.7L0.8 6.75M-3.8,-5.45L-4.15 -4.55L-3.9 -4.05L-3.5 -3.9L-3.85 -3.85L-4.45 -4.05L-4.5 -4.5L-4.55 -4.6L-4.5 -4.7L-4.45 -4.75L-4 -5.4L-3.95 -5.4L-3.8 -5.45M-2.55,-2.1L-2 -2L-1.1 -2.15L-1.1 -1.9Q-1.25 -1.6 -1.75 -1.6L-2.4 -1.75L-2.55 -2.1M-0.65,-2.1L-0.6 -2.1Q0.15 -2.1 0.15 -2.6L0.15 -2.65L0.2 -2.6L0.2 -2.45Q0.4 -2 0.05 -1.65L-0.2 -1.6L-0.5 -1.8L-0.65 -1.9L-0.65 -1.95L-0.6 -2L-0.65 -2.1M-0.1,-3.5L0.2 -3.45Q1.15 -3.45 1.15 -4.2L1.05 -4.6L0.55 -5.05L1.1 -4.75L1.55 -4.55L1.6 -4.55L1.65 -4.5Q2.35 -3.85 1.65 -3.2Q1.4 -2.85 0.95 -2.85L0.85 -2.85L0.45 -2.95L0.05 -3.35L-0.1 -3.5M-5.15,-9.8L-5.4 -10.1L-5.25 -10.1L-5.15 -9.8M5.95,-10.05L6.05 -10.1L6.1 -10.1L5.95 -10.05" />
<path style="fill:#001505;fill-opacity:1" d="M-5.15,5.15L-4.95 5L-4.85 4.9L-4.8 4.9L-4.35 4.6L-4.3 4.6Q-4.35 5.05 -4.5 5.15L-4.5 5.25L-4.75 5.5L-4.8 5.5Q-5.1 5.95 -5.2 6.55L-5.15 6.15Q-5.1 6 -5.2 5.8L-5.45 5.6Q-5.5 5.5 -5.6 5.5L-5.15 5.15M-6.5,3.35L-5.85 3.15L-5.5 3.05L-4.55 3L-5.55 3.35L-7.3 4.35L-7.25 4.05L-7.35 3.75L-6.5 3.35M-7.55,1.3Q-8 2.5 -7.45 3.6Q-8.05 2.55 -7.65 1.4L-7.55 1.2L-7.55 1.3M-5.9,-0.7L-5.9 -0.75L-5.8 -0.85L-5.5 -1.05Q-5.25 -1.2 -5.15 -1.45L-5 -1.6L-5 -1.2L-6.7 0.3L-7 0.4L-7.05 0.4L-7 0.1L-7.2 -0.25L-7.3 -0.3L-6.45 -0.5L-5.9 -0.7M-8.05,-2.35L-7.55 -2.45L-7.5 -2.45L-7.3 -2.45L-7.15 -2.45L-6.95 -2.45L-6.85 -2.45L-6.5 -2.45L-6 -2.45L-5.9 -2.45L-6.05 -2.4L-7.5 -2L-7.85 -1.95L-8.05 -1.9L-8.15 -1.8L-8.2 -1.8L-8.1 -2L-8.1 -2.4L-8.05 -2.35M-7.35,-3.7L-7.3 -3.8L-7.2 -4.1L-6.55 -4L-6.3 -3.85L-6.25 -3.8L-5.65 -2.85L-6.05 -3.3L-6.5 -3.45L-6.55 -3.45L-7.3 -3.7L-7.35 -3.7M-6.65,-6.8L-6.7 -6.65L-6.85 -6.3L-7 -6.15L-6.95 -6.35L-7.05 -6.65L-7.1 -6.8L-7 -6.65Q-7 -6.6 -6.85 -6.7L-6.7 -6.85L-6.65 -6.8M-7.55,-7.55Q-7.8 -8.2 -7.5 -8.95L-7.45 -9Q-7.8 -8.25 -7.55 -7.55M-6.7,-8.8L-6.95 -9.7L-6.9 -9.95L-6.7 -8.8M8.4,0.75L8.25 0.85L8.3 0.7L8.4 0.75M7.9,0.7L8 0.7L8.25 0.7L8.25 0.75L7.9 0.95L8.2 0.9L7.8 1.1L7.85 0.55L7.9 0.7M8,0.3L7.9 0.4L7.95 0.15L8 0.2L8 0.3M5.4,-9.75L5.35 -9.75L5.3 -9.8L5.4 -9.85L5.95 -10.05L6.1 -10.1L6.35 -10.1L6.35 -10.05L6.25 -9.85L6.25 -9.95L5.8 -9.75L5.55 -9.7L5.4 -9.75M5.95,-9.45L6.1 -9.7L6.1 -9.6L6.1 -9.45L5.95 -9.45M6.7,-8.65L6.9 -8.4L7 -8.1L7.05 -8.05L6.85 -8.05L6.45 -8L5.8 -7.65L5 -7.2L5.05 -7.3L5.35 -7.65L5.5 -7.9L6 -8.35L6.2 -8.4L6.3 -8.4L6.75 -8.55L6.7 -8.65M7.75,-6.25L7.75 -6.1Q7.75 -5.85 7.9 -5.65L7.95 -5.6L7.85 -5.6L7.75 -5.55L7.35 -5.45L7.3 -5.45L7.1 -5.3L6.45 -5.2L6.05 -5.1L6.4 -5.15L6.8 -5.2L6.25 -5.1L6 -4.95L6.05 -5.1L6.45 -5.55L6.55 -5.6L6.8 -5.75L7.15 -5.85L7.3 -5.9L7.55 -6L7.75 -6.25M6.3,-4.15L6.05 -4.15L5.85 -4.15L5.2 -4.15L5.8 -4.2L6 -4.25L6.5 -4.25L6.7 -4.2L6.3 -4.15L6.7 -4.1L6.9 -4.1L6.85 -4L6.75 -3.7L6.4 -3.85L6.3 -4.05L6.3 -4.1L6.3 -4.15M6.1,-2.25L6.1 -2L6.1 -1.95L5.95 -1.9L5.95 -2L6.1 -2.25M6.25,-1.55L6.35 -1.4L6.4 -1.1L6.45 -1.05L6.3 -1.05L5.75 -0.95L5.8 -0.95L4.9 -0.6L4.1 -0.2L4.15 -0.3L4.55 -0.75L5.25 -1.2L5.6 -1.3L6.2 -1.55L6.25 -1.55M7.35,0.85L7.35 0.8L7.45 0.9L7.55 1.1L7.7 1.2L7.6 1.25L7.15 1.4L5.6 1.8L6.45 1.75L5.9 1.9L5.7 1.85L5.6 1.8L5.6 1.75L6.2 1.3L6.25 1.3L6.75 1.1L6.95 0.95L7.05 0.95L7.35 0.85M6.75,2.7L7.35 2.65L7.4 2.6L7.35 2.7L7.25 3L7.25 3.15L6.75 3.2L6.7 3.2L6.15 3.05L5.5 2.95L6.75 2.7M7.3,3.35L7.25 3.9L7.15 4.25L7.3 3.35M5.85,5.65L5.8 5.65L5.1 5.35L5.65 5.4L6.35 5.3L6.05 5.8L5.85 5.65M4.6,5.95L4.35 6.1L4.2 6.4L4.2 6.5L3.95 6.15L3.8 6L3.75 6L3.65 5.75L3.45 5.45L3.1 4.75L3.5 5.05Q3.7 5.15 3.9 5.4L4.1 5.65L4.15 5.65L4.35 5.8L4.6 5.95M2.1,6.45L2.25 6.05L2.25 6L2.3 5.8L2.5 5.75L2.65 5.8L2.75 6L2.75 6.05L2.75 6.55L2.8 7.05L2.6 6.7Q2.5 6.55 2.3 6.55L2.05 6.65L2.1 6.45M0.75,5.45L0.75 5.65L0.6 6.65L0.5 6.35L0.3 6.15L0.25 6.1L0.75 5.45M-2.15,5.65L-2.1 5.6L-2.05 5.6Q-1.6 5.4 -1.9 5.65L-2.05 5.8L-2.2 5.75L-2.35 5.7L-2.15 5.65M-2.95,5.85L-3.1 6L-3.3 6.3L-3.3 5.7L-3.3 5.4L-3.3 5.15L-3.05 5.5L-2.95 5.85M-0.6,-2L-0.65 -1.95L-0.65 -1.9L-0.5 -1.8L-0.2 -1.6L0.05 -1.65Q0.4 -2 0.2 -2.45L0.2 -2.6L0.15 -2.65L0.1 -2.65L-0.15 -3L-0.5 -3.55L-0.7 -3.8L-0.65 -3.8L-0.45 -3.75L-0.1 -3.5L0.05 -3.35L0.45 -2.95L0.85 -2.85L0.95 -2.85Q1.4 -2.85 1.65 -3.2Q2.35 -3.85 1.65 -4.5L1.6 -4.55L1.55 -4.55L1.1 -4.75L0.55 -5.05L0.1 -5.25L-0.25 -5.45L1.3 -5.2L1.75 -4.95L1.85 -4.95L1.95 -4.85L2 -4.8Q3.05 -3.85 2 -2.85L1.75 -2.65L1 -2.45L0.85 -2.45L0.75 -2.45L0.75 -1.95L0.4 -1.35Q-0.05 -0.95 -0.5 -1.2L-0.8 -1.45Q-0.95 -1.25 -1.25 -1.2L-1.75 -1.2Q-2.55 -1.2 -2.8 -1.55L-2.85 -1.55L-3.15 -2.35L-3.15 -2.45L-3.2 -2.65L-3.15 -3.5L-3.1 -3.55L-3.85 -3.4Q-4.6 -3.4 -4.85 -3.75L-5 -4.5L-4.95 -4.7L-4.95 -4.75L-4.95 -4.85L-4.35 -5.65L-4.35 -5.75L-4.25 -5.8L-3.55 -6.15L-1.65 -6.2L-3 -5.8L-3.75 -5.45L-3.8 -5.45L-3.95 -5.4L-4 -5.4L-4.45 -4.75L-4.5 -4.7L-4.55 -4.6L-4.5 -4.5L-4.45 -4.05L-3.85 -3.85L-3.5 -3.9L-2.2 -4.35L-1.65 -4.55L-2.15 -4.15L-2.6 -3.8L-2.55 -3.65L-2.7 -2.7L-2.7 -2.65L-2.75 -2.5L-2.65 -2.45L-2.55 -2.1L-2.4 -1.75L-1.75 -1.6Q-1.25 -1.6 -1.1 -1.9L-1.1 -2.15L-1.15 -2.75L-1.15 -2.8L-1.15 -3.15L-0.95 -2.75L-0.9 -2.65L-0.85 -2.5L-0.65 -2.1L-0.6 -2M-5.4,-10.1L-5.15 -9.8L-4.85 -9.5L-4.75 -9.4L-4.7 -9.35L-4.25 -8.8L-5.1 -9.15L-5.2 -9.25L-5.35 -9.35L-6 -10.1L-5.4 -10.1M5.6,1.65L5.6 1.55L5.8 1.45L5.6 1.65" />
<path style="fill:#AAE72C;fill-opacity:1" d="M8.25,-4.9L8.25 -4.85L8.05 -4.25L7.8 -4.15L7.35 -4.2L7.05 -4.2L6.9 -4.1L6.7 -4.1L6.3 -4.15L6.7 -4.2L6.5 -4.25L6 -4.25L5.8 -4.2L5.2 -4.15L5.85 -4.15Q6.35 -3.7 6.35 -2.85L6.3 -2.6L6.3 -2.5L6.25 -2.45L6.2 -2.35L6.1 -2.25L5.95 -2L5.95 -1.9L6.1 -1.95L5.6 -1.4L5.25 -1.2L4.55 -0.75L4.15 -0.3L4.1 -0.2L4.9 -0.6L4.4 -0.05L4.2 0.4Q4.55 -0.4 5.75 -0.4Q7.25 -0.4 7.3 0.35L7.3 0.4L7.05 0.95L6.95 0.95L6.75 1.1L6.25 1.3L6.2 1.3L5.6 1.75L5.6 1.8L5.7 1.85L5.9 1.9L6.45 1.75L5.6 1.8L7.15 1.4L7.6 1.25L7.8 1.65L7.25 2.35L6.75 2.7L5.5 2.95L6.15 3.05L5.3 3.15Q6.7 3.4 6.8 4.75L6.7 4.8L6.7 4.9L6.5 5.15L6.35 5.3L5.65 5.4L5.1 5.35L5.8 5.65L5.85 5.65L5.25 5.85L4.25 5.6L3.9 5.4Q3.7 5.15 3.5 5.05L3.1 4.75L3.45 5.45L3.65 5.75L3.75 6L3.8 6L4.05 6.9Q4.05 7.6 3.15 7.6L2.95 7.55L2.8 7.05L2.75 6.55L2.75 6.05L2.75 6L2.65 5.8L2.5 5.75L2.3 5.8L2.25 6L2.25 6.05L1.95 6.4L0.8 6.75L0.6 6.7L0.6 6.65L0.75 5.65L0.75 5.45L0.4 5.45L-0.95 5.95L-1.35 6.05L-1.75 5.95L-1.8 5.95L-2.05 5.8L-1.9 5.65Q-1.6 5.4 -2.05 5.6L-2.1 5.6L-2.15 5.65L-3.05 5.5L-3.3 5.15L-3.3 5.4L-3.3 5.7L-3.3 6.3L-3.3 6.35L-3.3 6.45L-3.3 6.65L-3.5 7.35Q-3.8 7.9 -4.55 7.9L-5.1 7.55L-5.25 7L-5.25 6.85L-5.2 6.55Q-5.1 5.95 -4.8 5.5L-4.75 5.5L-4.5 5.25L-4.5 5.15Q-4.35 5.05 -4.3 4.6L-4.35 4.6L-4.8 4.9L-4.85 4.9L-4.95 5L-5.15 5.15L-6.5 5.5Q-7.4 5.5 -7.6 4.95L-7.35 4.45L-7.3 4.35L-5.55 3.35L-4.55 3L-5.5 3.05L-5.85 3.15L-6.3 3.15Q-7.6 3.15 -7.6 1.75L-7.55 1.3L-7.55 1.2L-7.4 0.95L-7.35 0.85L-7.1 0.5L-7.05 0.4L-7 0.4L-6.7 0.3L-5 -1.2L-5 -1.6L-5.15 -1.45Q-5.25 -1.2 -5.5 -1.05L-5.8 -0.85L-5.9 -0.75L-5.9 -0.7L-6.45 -0.5L-6.8 -0.4Q-7.95 -0.4 -7.95 -1.35L-7.85 -1.95L-7.5 -2L-6.05 -2.4L-5.9 -2.45L-6 -2.45L-6.5 -2.45L-6.85 -2.45L-6.95 -2.45L-7.15 -2.45L-7.3 -2.45L-7.95 -2.75L-7.65 -3.1L-6.65 -3.3L-6.05 -3.3L-5.65 -2.85L-6.25 -3.8L-6.3 -3.85L-6.55 -4Q-6.85 -4.35 -6.85 -5.45L-6.85 -6.2L-6.7 -6.65L-6.65 -6.8L-6.7 -6.85L-6.85 -7.15L-7.15 -8.35L-7 -9.6L-7 -9.65L-6.95 -9.7L-6.7 -8.8L-6.9 -9.95L-6.85 -10.1L-6 -10.1L-5.35 -9.35L-5.2 -9.25L-5.1 -9.15L-4.25 -8.8L-4.7 -9.35L-4.75 -9.4L-4.85 -9.5L-5.15 -9.8L-5.25 -10.1L-0.3 -10.1L-0.7 -9.85L-1.35 -10.05Q-1.7 -10.05 -1.8 -9.75L-1.8 -9.5L-2.1 -9.65Q-2.5 -9.65 -2.5 -9.1L-2.5 -8.9L-3.05 -8.75L-3.35 -8.2L-3.05 -7.85L-2.8 -7.7L-2.8 -7.85L-2.6 -8.25L-2.05 -8.45L-1.9 -8.45L-1.8 -8.45L-1.85 -8.7L-1.6 -8.95L-1.35 -8.95L-1.35 -9.05L-1 -9.4L-0.75 -9.25L-0.3 -9.45Q0.45 -9.5 0.5 -8.95L0.6 -9.3Q0.6 -10.1 -0.15 -10.1L6.05 -10.1L5.95 -10.05L5.4 -9.85L5.3 -9.8L5.35 -9.75L5.4 -9.75L5.4 -9.6L5.7 -9.45L6.05 -8.95L6 -8.35L5.5 -7.9L5.35 -7.65L5.05 -7.3L5 -7.2L5.8 -7.65L6.85 -7.35Q7.55 -7.05 7.55 -6.55L7.3 -5.9L7.15 -5.85L6.8 -5.75L6.55 -5.6L6.45 -5.55L6.05 -5.1L6 -4.95L6.25 -5.1L6.8 -5.2L6.4 -5.15L6.45 -5.2L7.1 -5.3L7.3 -5.45L7.35 -5.45L7.75 -5.55L7.85 -5.6Q8.25 -5.45 8.25 -4.9M1.75,-4.95L1.3 -5.2L-0.25 -5.45L0.1 -5.25L0.55 -5.05L1.05 -4.6L1.15 -4.2Q1.15 -3.45 0.2 -3.45L-0.1 -3.5L-0.45 -3.75L-0.65 -3.8L-0.7 -3.8L-0.5 -3.55L-0.15 -3L0.1 -2.65L0.15 -2.65L0.15 -2.6Q0.15 -2.1 -0.6 -2.1L-0.65 -2.1L-0.85 -2.5L-0.9 -2.65L-0.95 -2.75L-1.15 -3.15L-1.15 -2.8L-1.15 -2.75L-1.1 -2.15L-2 -2L-2.55 -2.1L-2.65 -2.45L-2.75 -2.5L-2.7 -2.65L-2.7 -2.7L-2.55 -3.65L-2.6 -3.8L-2.15 -4.15L-1.65 -4.55L-2.2 -4.35L-3.5 -3.9L-3.9 -4.05L-4.15 -4.55L-3.8 -5.45L-3.75 -5.45L-3 -5.8L-1.65 -6.2L-3.55 -6.15L-4.25 -5.8L-5.05 -5.45Q-5.6 -5.15 -5.6 -4.55Q-5.15 -2.65 -4.05 -2.65L-3.8 -2.75L-3.85 -2.45L-3.5 -1.25Q-3.05 -0.55 -2.4 -0.55Q-1.2 -0.55 -0.85 -1L-0.75 -0.9Q-0.5 -0.6 -0.1 -0.6Q1.15 -0.6 1.3 -1.55L1.3 -2Q1.9 -2.1 2.4 -2.6Q3.1 -3.3 3.1 -3.9Q3.1 -4.45 2.5 -4.75L1.85 -4.95L1.75 -4.95M5.8,1.45L5.6 1.55L5.6 1.65L5.8 1.45M1.55,3.9L2.05 4.05Q2.85 4.05 2.95 3.5L3.35 3.9Q3.9 3.9 3.9 3.5Q3.9 2.9 3.45 2.85L3.55 3.15L3.3 3.25Q3 3.25 2.75 2.95Q2.7 3.5 2.15 3.5Q1.8 3.5 1.8 3L1.4 3.2Q1.1 3.2 1.1 2.7L1.2 2.5L0.8 2.6Q0.4 2.6 0.4 2.3L0.8 1.85L0.8 1.8Q0.85 1.3 1.05 1.1L1.55 0.95L2 0.95L1.3 0.85L0.2 1.1L0 1.6L0.2 1.8L0.6 1.8Q-0.4 2.15 -0.4 2.45L-0.2 2.8L0.3 3.05L0.6 2.9L0.45 3.35Q0.45 3.85 0.95 3.85L1.6 3.4L1.6 3.5L1.55 3.9M6.05,-4.15L6.3 -4.15L6.3 -4.1L6.05 -4.15M-2.8,-7.65L-2.7 -7.65L-2.8 -7.7L-2.8 -7.65M0.35,-8.8Q0.25 -8.7 0.15 -8.7Q0.5 -8.55 0.5 -8.9L0.5 -8.95L0.35 -8.8M-0.75,-9.05L-0.6 -9L-0.75 -9.25L-0.75 -9.05" />
<path style="fill:#6B9A0B;fill-opacity:1" d="M-7.55,1.3L-7.6 1.75Q-7.6 3.15 -6.3 3.15L-5.85 3.15L-6.5 3.35L-7.35 3.75L-7.4 3.7L-7.45 3.6Q-8 2.5 -7.55 1.3M-7.95,-2.75L-7.3 -2.45L-7.5 -2.45L-7.55 -2.45L-8.05 -2.35L-8.1 -2.4L-8.15 -2.65L-8.15 -2.75L-8.15 -2.85L-8.15 -2.95L-7.95 -2.75M-6.7,-6.65L-6.85 -6.2L-6.85 -5.45Q-6.85 -4.35 -6.55 -4L-7.2 -4.1L-7.2 -4.15L-7.3 -4.45L-7.45 -4.8L-7.45 -4.85L-7.2 -5.85L-7 -6.15L-6.85 -6.3L-6.7 -6.65M5.55,-9.7L5.8 -9.75L6.25 -9.95L6.25 -9.85L6.1 -9.7L5.95 -9.45L6.1 -9.45L6.1 -9.3L6.3 -9L6.7 -8.65L6.75 -8.55L6.3 -8.4L6.2 -8.4L6 -8.35L6.05 -8.95L5.7 -9.45L5.4 -9.6L5.4 -9.75L5.55 -9.7M6.3,-4.1L6.3 -4.05L6.4 -3.85L6.75 -3.7L6.65 -3.2L6.5 -2.95L6.45 -2.85L6.45 -2.8L6.35 -2.65L6.3 -2.6L6.35 -2.85Q6.35 -3.7 5.85 -4.15L6.05 -4.15L6.3 -4.1M6.2,-1.55L5.6 -1.3L5.25 -1.2L5.6 -1.4L6.1 -1.95L6.2 -1.65L6.25 -1.55L6.2 -1.55M7.15,4.25L6.8 4.75Q6.7 3.4 5.3 3.15L6.15 3.05L6.7 3.2L6.75 3.2L7.25 3.15L7.3 3.35L7.15 4.25M0.25,6.1L0 6.1L-1.35 6.05L-0.95 5.95L0.4 5.45L0.75 5.45L0.25 6.1M-2.15,5.65L-2.35 5.7L-2.45 5.7Q-2.65 5.7 -2.8 5.85L-2.95 5.85L-3.05 5.5L-2.15 5.65M-4.35,-5.75L-4.35 -5.65L-4.95 -4.85L-4.95 -4.75L-4.95 -4.7L-5 -4.5L-4.85 -3.75Q-4.6 -3.4 -3.85 -3.4L-3.1 -3.55L-3.15 -3.5L-3.2 -2.65L-3.15 -2.45L-3.15 -2.35L-2.85 -1.55L-2.8 -1.55Q-2.55 -1.2 -1.75 -1.2L-1.25 -1.2Q-0.95 -1.25 -0.8 -1.45L-0.5 -1.2Q-0.05 -0.95 0.4 -1.35L0.75 -1.95L0.75 -2.45L0.85 -2.45L1 -2.45L1.75 -2.65L2 -2.85Q3.05 -3.85 2 -4.8L1.95 -4.85L1.85 -4.95L2.5 -4.75Q3.1 -4.45 3.1 -3.9Q3.1 -3.3 2.4 -2.6Q1.9 -2.1 1.3 -2L1.3 -1.55Q1.15 -0.6 -0.1 -0.6Q-0.5 -0.6 -0.75 -0.9L-0.85 -1Q-1.2 -0.55 -2.4 -0.55Q-3.05 -0.55 -3.5 -1.25L-3.85 -2.45L-3.8 -2.75L-4.05 -2.65Q-5.15 -2.65 -5.6 -4.55Q-5.6 -5.15 -5.05 -5.45L-4.25 -5.8L-4.35 -5.75M0.5,-8.95Q0.45 -9.5 -0.3 -9.45L-0.75 -9.25L-1 -9.4L-1.35 -9.05L-1.35 -8.95L-1.6 -8.95L-1.85 -8.7L-1.8 -8.45L-1.9 -8.45L-2.05 -8.45L-2.6 -8.25L-2.8 -7.85L-2.8 -7.7L-3.05 -7.85L-3.35 -8.2L-3.05 -8.75L-2.5 -8.9L-2.5 -9.1Q-2.5 -9.65 -2.1 -9.65L-1.8 -9.5L-1.8 -9.75Q-1.7 -10.05 -1.35 -10.05L-0.7 -9.85L-0.3 -10.1L-0.15 -10.1Q0.6 -10.1 0.6 -9.3L0.5 -8.95M1.6,3.5L1.6 3.4L0.95 3.85Q0.45 3.85 0.45 3.35L0.6 2.9L0.3 3.05L-0.2 2.8L-0.4 2.45Q-0.4 2.15 0.6 1.8L0.2 1.8L0 1.6L0.2 1.1L1.3 0.85L2 0.95L1.55 0.95L1.05 1.1Q0.85 1.3 0.8 1.8L0.8 1.85L0.4 2.3Q0.4 2.6 0.8 2.6L1.2 2.5L1.1 2.7Q1.1 3.2 1.4 3.2L1.8 3Q1.8 3.5 2.15 3.5Q2.7 3.5 2.75 2.95Q3 3.25 3.3 3.25L3.55 3.15L3.45 2.85Q3.9 2.9 3.9 3.5Q3.9 3.9 3.35 3.9L2.95 3.5Q2.85 4.05 2.05 4.05L1.55 3.9L1.6 3.5M-1.8,-9.45L-1.6 -9.4L-1.8 -9.5L-1.8 -9.45M-0.75,-9.8L-0.6 -9.5L-0.7 -9.85L-0.75 -9.8" />
<path style="fill:#CBFF5F;fill-opacity:1" d="M6.05,-5.1L6.45 -5.2L6.4 -5.15L6.05 -5.1M-2.8,-7.7L-2.7 -7.65L-2.8 -7.65L-2.8 -7.7M-1.8,-9.5L-1.6 -9.4L-1.8 -9.45L-1.8 -9.5M0.5,-8.95L0.5 -8.9Q0.5 -8.55 0.15 -8.7Q0.25 -8.7 0.35 -8.8L0.5 -8.95M-0.75,-9.25L-0.6 -9L-0.75 -9.05L-0.75 -9.25M-0.7,-9.85L-0.6 -9.5L-0.75 -9.8L-0.7 -9.85" />
</g>
</svg>
