<?xml version="1.0" encoding="utf-8"?>
<svg version="1.1" id="Layer_1"
xmlns="http://www.w3.org/2000/svg"
xmlns:xlink="http://www.w3.org/1999/xlink"
xmlns:author="http://www.sothink.com"
width="33px" height="33px"
xml:space="preserve">
<g id="152" transform="matrix(1, 0, 0, 1, 16.15, 16.5)">
<path style="fill:#4A3621;fill-opacity:1" d="M-9.25,-9.5L-9.15 -9.6Q-5.45 -13.3 -0.2 -13.3L2.05 -13.1Q5.85 -12.45 8.8 -9.45Q12.55 -5.55 12.55 -0.1Q12.55 5.45 8.7 9.35Q5.6 12.4 1.45 12.95L-0.3 13.05Q-5.15 13.05 -8.65 9.9L-8.7 9.9L-9.35 9.3Q-13.1 5.35 -13.1 -0.2L-12.85 -2.8L-9.3 -9.45L-9.25 -9.5M-1.45,-11.25Q-6.25 -10.8 -9.35 -7Q-12.4 -3.25 -12.4 1.15Q-12.4 5.6 -9.3 8.85Q-6.1 12 -1.65 12Q2.8 12 6.1 9.4Q9.45 6.9 10.45 2.05Q11.45 -2.75 7.35 -7.25Q3.35 -11.75 -1.45 -11.25" />
<path style="fill:#1E1713;fill-opacity:1" d="M-3.85,-6.7Q-6.4 -6.2 -8.35 -4.3Q-10.8 -1.85 -10.8 1.6Q-10.8 5.1 -8.35 7.65Q-5.9 10.1 -2.4 10.1Q1.1 10.1 3.6 7.65L4.25 6.9Q6.1 4.65 6.1 1.65Q6.1 -1.8 3.6 -4.3Q1.15 -6.8 -2.35 -6.8L-3.85 -6.7M7.35,-7.25Q11.45 -2.75 10.45 2.05Q9.45 6.9 6.1 9.4Q2.8 12 -1.65 12Q-6.1 12 -9.3 8.85Q-12.4 5.6 -12.4 1.15Q-12.4 -3.25 -9.35 -7Q-6.25 -10.8 -1.45 -11.25Q3.35 -11.75 7.35 -7.25" />
<path style="fill:#000000;fill-opacity:1" d="M-2.35,-6.8Q1.15 -6.8 3.6 -4.3Q6.1 -1.8 6.1 1.65Q6.1 4.65 4.25 6.9L3.6 7.65Q1.1 10.1 -2.4 10.1Q-5.9 10.1 -8.35 7.65Q-10.8 5.1 -10.8 1.6Q-10.8 -1.85 -8.35 -4.3Q-6.4 -6.2 -3.85 -6.7L-2.35 -6.8" />
<path style="fill:#725F2F;fill-opacity:1" d="M-8.9,-13.8Q-5.15 -16.4 -0.35 -16.5L0 -16.5L1.55 -16.45L1.6 -16.45Q7.3 -15.85 11.5 -11.5Q13.2 -9.75 14.2 -7.75L14.3 -7.45Q16.1 -4.55 16.05 -0.75L16.1 -0.35L16.1 -0.15L16.1 0.05L16.1 0.4L16.05 0.75Q16.55 4.15 14.3 7.5L14.2 7.8Q13.1 9.9 11.4 11.65L11.4 11.6Q6.65 16.6 -0.1 16.5L-0.45 16.5L-1.25 16.45L-1.3 16.45Q-4.5 16.3 -7.1 14.9L-7.15 14.85Q-9.55 13.65 -11.55 11.55L-11.6 11.5Q-16.15 6.75 -16.15 -0.05Q-16.15 -6.8 -11.45 -11.6L-8.9 -13.8M-13.15,-0.05Q-13.15 5.55 -9.4 9.5Q-7.75 11.25 -5.8 12.2L-5.75 12.2Q-3.7 13.3 -1.25 13.45L-0.45 13.5L-0.1 13.5Q5.35 13.55 9.25 9.55L11.45 6.65L13.15 0L11.45 -6.5Q10.65 -8.05 9.35 -9.4Q5.95 -12.95 1.35 -13.45L0 -13.5L-0.3 -13.5Q-4.15 -13.4 -7.2 -11.35L-7.15 -11.35L-9.3 -9.5L-9.3 -9.45L-12.85 -2.8L-13.15 -0.05" />
</g>
</svg>
