<?xml version="1.0" encoding="utf-8"?>
<svg version="1.1" id="Layer_1"
xmlns="http://www.w3.org/2000/svg"
xmlns:xlink="http://www.w3.org/1999/xlink"
xmlns:author="http://www.sothink.com"
width="35px" height="35px"
xml:space="preserve">
<g id="171" transform="matrix(1, 0, 0, 1, 17.2, 17.2)">
<path style="fill:#000000;fill-opacity:1" d="M-12.15,-12.15Q-7.15 -17.2 -0.1 -17.2L2.25 -17.05L4.4 -16.6L4.45 -16.6Q8.35 -15.55 11.55 -12.7L11.75 -12.5Q11.85 -12.4 12.05 -12.25L12.15 -12.15Q17.15 -7.1 17.15 0.05Q17.15 7.15 12.15 12.15Q7.05 17.2 -0.1 17.2Q-6.35 17.2 -11.05 13.3L-11.05 13.25L-12.2 12.15L-12.8 11.55L-13.05 11.25L-13.35 10.9L-13.45 10.8L-15.6 7.5L-15.6 7.4Q-17.2 4.45 -17.2 0.05Q-17.2 -6.1 -13.45 -10.6L-12.2 -12.15L-12.15 -12.15M-0.1,15.05Q6.2 15.05 10.65 10.65Q15 6.3 15 0.05Q15 -5.65 11.5 -9.7L10.85 -10.5Q10.3 -10.9 10.1 -11.2L10.05 -11.25Q7.15 -13.65 3.9 -14.55L1.95 -14.9L1.9 -14.9L-0.1 -15.05L-3.6 -14.7Q-7.6 -13.8 -10.7 -10.65L-10.7 -10.6L-11.75 -9.4L-11.8 -9.3Q-15.05 -5.35 -15.05 0.05L-14.9 2.55Q-14.6 4.75 -13.75 6.4L-13.75 6.45L-11.75 9.55L-11.5 9.8L-11.35 9.95L-11.3 10.1L-10.7 10.65L-9.65 11.65L-9.6 11.65Q-7.45 13.45 -5 14.3Q-2.7 15.05 -0.1 15.05" />
<path style="fill:#B4B4B4;fill-opacity:1" d="M-15.05,0.05Q-15.05 -5.35 -11.8 -9.3L-11.75 -9.4L-10.7 -10.6L-10.7 -10.65Q-7.6 -13.8 -3.6 -14.7Q-7.1 -13.25 -9.65 -10.45Q-12.8 -7.15 -14 -3.55L-14.9 0.25L-14.9 2.55L-15.05 0.05" />
<path style="fill:#8A8A8A;fill-opacity:1" d="M-0.1,-15.05L1.9 -14.9L1.95 -14.9L3.9 -14.55Q7.15 -13.65 10.05 -11.25L10.1 -11.2Q10.3 -10.9 10.85 -10.5L11.5 -9.7Q12.2 -6.65 12.2 -4.05Q12.2 -0.35 11.5 1.7Q11.25 2.7 8.7 7.2Q7.8 8.95 4 11.5Q-0.45 14.35 -3.5 14.35L-5 14.3Q-7.45 13.45 -9.6 11.65L-9.65 11.65L-10.7 10.65L-11.3 10.1L-11.35 9.95L-11.5 9.8L-11.75 9.55L-13.75 6.45L-13.75 6.4Q-14.6 4.75 -14.9 2.55L-14.9 0.25L-14 -3.55Q-12.8 -7.15 -9.65 -10.45Q-7.1 -13.25 -3.6 -14.7L-0.1 -15.05" />
<path style="fill:#565656;fill-opacity:1" d="M-5,14.3L-3.5 14.35Q-0.45 14.35 4 11.5Q7.8 8.95 8.7 7.2Q11.25 2.7 11.5 1.7Q12.2 -0.35 12.2 -4.05Q12.2 -6.65 11.5 -9.7Q15 -5.65 15 0.05Q15 6.3 10.65 10.65Q6.2 15.05 -0.1 15.05Q-2.7 15.05 -5 14.3" />
<path style="fill:#000000;fill-opacity:1" d="M-7,-9.5L-6.65 -8.95L-6.25 -6.45L-1.4 -12.2L-1.4 -12.25L-1.25 -12.3L-0.9 -12.45L-0.8 -12.45L-0.65 -12.4L-0.3 -12.25L14.35 2.9L14.5 3.25L14.5 3.4L14.5 3.7L14.35 4.05L14 4.2L13.75 4.2L8.35 4.2L7 11.25L7 11.4Q6.75 12.3 5.4 12.45L-5.45 12.45Q-7 12.3 -7 11.25L-8.4 4.2L-13.65 4.2L-13.8 4.2L-14.15 4.05L-14.45 3.5L-14.35 3.1L-14.25 2.95L-9.7 -2.4L-10.95 -8.7L-10.95 -8.8L-10.9 -9.1L-10.75 -9.45L-10.15 -9.7L-7.45 -9.7L-7 -9.5M1.55,10.15L1.5 10.5L1.4 11.25L1.4 11.4L5.3 11.4L5.9 11.1L7.35 3.4L7.45 3.25L7.65 3.15L13.15 3.15L-0.2 -10.6L-0.25 -10.7L-0.8 -11.25L-1.05 -10.95L-6.6 -4.45L-6.65 -4.35L-6.85 -4.35L-7 -4.45L-7.05 -4.6L-7.6 -8.15L-7.6 -8.55L-9.75 -8.55L-8.55 -2.3L-8.55 -2.15L-8.65 -2.05L-13 3.15L-12.2 3.15L-7.8 3.15L-7.6 3.15L-7.6 3.25L-7.55 3.4L-6 11.05L-6 11.15L-5.95 11.25L-5.3 11.4L-2.15 11.4L-2.15 11.25L-2.15 10.85L-2.05 10.75L-2.3 9L-2.4 6.2L-2.3 6.05L-2.15 6L-2.1 5.8L1.35 5.8L1.5 6L1.65 6.05L1.55 10.5L1.55 10.15M5.55,7.6L3.25 7.6L3.05 7.6L3 7.5L2.9 7.3L3.15 4.6L3.3 4.45L3.45 4.25L5.85 4.25L6.1 4.35L6.15 4.5L6.15 4.65L6.1 5.05L5.75 7.35L5.7 7.6L5.55 7.6M5.55,4.8L3.7 4.8L3.55 6.95L5.3 6.95L5.55 4.8M-1.45,10.9L-1.6 10.25L-1.6 10.9L-1.45 10.9M-1.4,10.9L0.95 10.9L1 10L1.05 10L1.1 6.7L-1.7 6.7L-1.4 10.9" />
<path style="fill:#FFFFFF;fill-opacity:1" d="M-13,3.15L-8.65 -2.05L-8.55 -2.15L-8.55 -2.3L-9.75 -8.55L-7.6 -8.55L-7.6 -8.15L-8.75 -8.15L-9.05 -8.1L-9.05 -7.3L-8.25 -4.35L-7.95 -2.4L-7.95 -2.25L-7.85 -2.05L-7.95 -1.5L-12.2 3.15L-13 3.15M-0.5,-10.3L-5 -5.5L-6.85 -3.5L-6.65 -4.35L-6.6 -4.45L-1.05 -10.95L-0.5 -10.3" />
<path style="fill:#4A4A4A;fill-opacity:1" d="M-0.5,-10.3L-0.25 -10.7L-0.2 -10.6L-0.5 -10.3" />
<path style="fill:#1E1E1E;fill-opacity:1" d="M5.7,7.6L5.75 7.35L6.1 5.05L6.55 3.25Q6.7 2.35 6.95 1.9L6.95 1.8L9.4 1.8L-0.5 -10.3L-1.05 -10.95L-0.8 -11.25L-0.25 -10.7L-0.5 -10.3L-0.2 -10.6L13.15 3.15L7.65 3.15L7.45 3.25L7.35 3.4L5.9 11.1L5.3 11.4L1.4 11.4L1.4 11.25L1.5 10.5L1.55 10.5L4.95 10.6L5.55 7.6L5.7 7.6" />
<path style="fill:#313131;fill-opacity:1" d="M-7.05,-4.6L-7 -4.45L-6.85 -4.35L-6.65 -4.35L-6.85 -3.5L-5 -5.5L-0.5 -10.3L9.4 1.8L6.95 1.8L6.95 1.9Q6.7 2.35 6.55 3.25L6.1 5.05L6.15 4.65L6.15 4.5L6.1 4.35L5.85 4.25L3.45 4.25L3.3 4.45L3.15 4.6L2.9 7.3L3 7.5L3.05 7.6L3.25 7.6L5.55 7.6L4.95 10.6L1.55 10.5L1.65 6.05L1.5 6L1.35 5.8L-2.1 5.8L-2.15 6L-2.3 6.05L-2.4 6.2L-2.3 9L-2.05 10.75L-2.15 10.85L-2.15 11.25L-2.15 11.4L-5.3 11.4L-5.95 11.25L-6 11.15L-6 11.05L-7.55 3.4L-7.6 3.25L-7.6 3.15L-7.8 3.15L-12.2 3.15L-7.95 -1.5L-7.85 -2.05L-7.95 -2.25L-7.95 -2.4L-8.25 -4.35L-9.05 -7.3L-9.05 -8.1L-8.75 -8.15L-7.6 -8.15L-7.05 -4.6M1.5,10.5L1.55 10.15L1.55 10.5L1.5 10.5M-7.95,0.95L-4.75 0.95L-2.3 0.7L-1.7 -5.3L-1.7 -6.8L-2.4 -5.85Q-3.8 -3.95 -7.95 0.7L-7.95 0.95M0.4,-5.1L0.55 1.55L3.4 1.5L2.05 -1.1Q0.45 -4.45 0.4 -5.1M-5.55,3.5L-5.3 8.55L-3.65 8.55Q-3.5 8.4 -3.5 7.5Q-3.5 6.4 -3.8 5.75L-4.05 3.55L-5.55 3.5" />
<path style="fill:#2A2A2A;fill-opacity:1" d="M-7.95,0.7Q-3.8 -3.95 -2.4 -5.85L-1.7 -6.8L-1.7 -5.3L-2.3 0.7L-4.75 0.95L-7.95 0.95L-7.95 0.7M2.05,-1.1L3.4 1.5L0.55 1.55L0.4 -5.1Q0.45 -4.45 2.05 -1.1M-4.05,3.55L-3.8 5.75Q-3.5 6.4 -3.5 7.5Q-3.5 8.4 -3.65 8.55L-5.3 8.55L-5.55 3.5L-4.05 3.55" />
</g>
</svg>
