<?xml version="1.0" encoding="utf-8"?>
<svg version="1.1" id="Layer_1"
xmlns="http://www.w3.org/2000/svg"
xmlns:xlink="http://www.w3.org/1999/xlink"
xmlns:author="http://www.sothink.com"
width="23px" height="25px"
xml:space="preserve">
<g id="169" transform="matrix(1, 0, 0, 1, 11.05, 12.45)">
<path style="fill:#1E1E1E;fill-opacity:1" d="M11.05,-4.3L7.35 9.35L7.35 9.45L7.35 9.55Q7.3 10.6 6.2 11.45L6.15 11.45L6.15 11.5L5.15 12L3.3 12.45L3.15 12.45L1.95 12.45Q0.85 12.4 0 11.95Q-1.2 11.1 -1.65 9.8L-1.75 9.6Q-2 8.7 -1.75 8L-1.75 7.95L-1.75 7.8L-1 6.7Q0.1 5.4 2.15 5.6Q4 5.75 5.1 6.6L6 7.45L6.05 7.5L7.75 -0.3L0.4 -4.9L-1.9 2.4L-1.85 2.9Q-1.9 4.05 -3 4.95L-3 5Q-4.15 5.75 -6 5.95Q-7.9 6.1 -9.1 5.4Q-10.45 4.65 -10.9 3.1L-11 2.65L-10.85 1.25L-10.8 1.1L-10.1 0.2Q-9 -1.15 -7.1 -0.95Q-5.15 -0.75 -4.1 0.05Q-3.75 0.2 -3.55 0.45L-3.25 0.7L-0.1 -12.25L-0.05 -12.4L0.05 -12.45L0.1 -12.4L10.9 -4.5L11.05 -4.45L11.05 -4.3M-2.05,-2.65L-3 1L-3 1.05L-3.15 1.1L-3.2 1.1L-3.25 1.1L-3.75 0.7L-4.25 0.3Q-5.25 -0.4 -7.1 -0.65Q-8.9 -0.8 -9.95 0.45L-10.4 1L-9.9 0.7Q-8.6 0.05 -6.9 0.05Q-5.65 0.05 -4.35 0.7L-3.85 0.9L-3.55 1.1L-3.3 1.25L-3.25 1.35L-2.75 1.6L-2.45 1.8L-2.45 2L-2.25 1.95L-2.45 1.8L-2.45 1.1L-0.05 -5.8L0.3 -5.35L0.4 -5.35L8 -0.6L8.1 -0.45L8.1 -0.4L6.4 7.6L6.35 7.7L6.35 7.8L6.35 7.95L6.25 8L6.15 8.05L6.1 8L4.9 6.85Q3.85 6.1 2.1 5.9Q0.3 5.75 -0.8 6.9L-1.3 7.6L-0.7 7.1Q0 6.6 1.55 6.6Q3.5 6.6 5.3 7.75L6.85 9.1L6.65 9.45Q5 10.3 2.45 10.3L-0.9 9.9L-1.35 9.8Q-0.9 10.95 0.1 11.6Q1.35 12.3 3.15 12.15L3.25 12.15L5 11.6L5 11.7L6 11.2Q6.95 10.45 7 9.5L7 9.45L7 9.25L7 9.2L7.05 9L7 9.05L6.9 8.95L7.35 7.25L8.85 0.8L10 -4.15L10.6 -4L10.65 -4.3L0.1 -12L-2.05 -2.85L-2.05 -2.65M8.85,-3.8L8.85 -3.7L8.45 -1.95L8.35 -1.85L8.3 -1.8L8.2 -1.8L0.8 -6.65L0.7 -6.65L0.6 -6.8L0.6 -6.85L1.05 -8.8L1.15 -8.85L1.25 -8.9L1.3 -8.85L8.75 -3.9L8.85 -3.8M8.5,-3.65L1.35 -8.45L0.95 -6.9L8.2 -2.3L8.5 -3.65M-4.15,3.7Q-5.75 4.45 -7.45 4.45Q-9.55 4.45 -10.55 3.1Q-10.1 4.4 -9 5.1Q-7.75 5.75 -6.05 5.6Q-4.25 5.4 -3.15 4.7Q-2.2 3.9 -2.1 2.9L-2.2 2.4L-2.2 2.35L-2.05 2.05L-3.05 3L-4.15 3.7" />
<path style="fill:#FFFFFF;fill-opacity:1" d="M5.25,-7.35L0.25 -11.15L-2.05 -2.85L0.1 -12L10.65 -4.3L10.6 -4L10 -4.15L5.25 -7.35M5.3,7.75Q3.5 6.6 1.55 6.6Q0 6.6 -0.7 7.1L-1.3 7.6L-0.8 6.9Q0.3 5.75 2.1 5.9Q3.85 6.1 4.9 6.85L6.1 8L6.15 8.05L6.35 8.45L5.45 7.75L5.3 7.75M-3.3,1.25L-3.55 1.1L-3.85 0.9L-4.35 0.7Q-5.65 0.05 -6.9 0.05Q-8.6 0.05 -9.9 0.7L-10.4 1L-9.95 0.45Q-8.9 -0.8 -7.1 -0.65Q-5.25 -0.4 -4.25 0.3L-3.75 0.7L-3.25 1.1L-3.2 1.1L-3.25 1.2L-3.3 1.25" />
<path style="fill:#000000;fill-opacity:1" d="M5.45,7.75L6.35 8.45L6.15 8.05L6.25 8L6.35 7.95L6.35 7.8L6.35 7.7L6.4 7.6L8.1 -0.4L8.1 -0.45L8 -0.6L0.4 -5.35L0.3 -5.35L-0.05 -5.8L-2.45 1.1L-2.45 1.8L-2.25 1.95L-2.45 2L-2.45 1.8L-2.75 1.6L-3.25 1.35L-3.3 1.25L-3.25 1.2L-3.2 1.1L-3.15 1.1L-3 1.05L-3 1L-2.05 -2.65L-2.05 -2.85L0.25 -11.15L5.25 -7.35L10 -4.15L8.85 0.8L7.35 7.25L6.9 8.95L7 9.05L7.05 9L7 9.2L7 9.25L7 9.45L7 9.5Q6.95 10.45 6 11.2L5 11.7L5 11.6L3.25 12.15L3.15 12.15Q1.35 12.3 0.1 11.6Q-0.9 10.95 -1.35 9.8L-0.9 9.9L2.45 10.3Q5 10.3 6.65 9.45L6.85 9.1L5.3 7.75L5.45 7.75M8.75,-3.9L1.3 -8.85L1.25 -8.9L1.15 -8.85L1.05 -8.8L0.6 -6.85L0.6 -6.8L0.7 -6.65L0.8 -6.65L8.2 -1.8L8.3 -1.8L8.35 -1.85L8.45 -1.95L8.85 -3.7L8.85 -3.8L8.75 -3.9M-3.05,3L-2.05 2.05L-2.2 2.35L-2.2 2.4L-2.1 2.9Q-2.2 3.9 -3.15 4.7Q-4.25 5.4 -6.05 5.6Q-7.75 5.75 -9 5.1Q-10.1 4.4 -10.55 3.1Q-9.55 4.45 -7.45 4.45Q-5.75 4.45 -4.15 3.7L-3.05 3" />
</g>
</svg>
