<?xml version="1.0" encoding="utf-8"?>
<svg version="1.1" id="Layer_1"
xmlns="http://www.w3.org/2000/svg"
xmlns:xlink="http://www.w3.org/1999/xlink"
xmlns:author="http://www.sothink.com"
width="29px" height="30px"
xml:space="preserve">
<g id="122" transform="matrix(1, 0, 0, 1, 14.25, 15)">
<path style="fill:#101010;fill-opacity:1" d="M9.8,-13.4Q12.15 -12.1 13.75 -11.75L14.1 -11.65L14.2 -11.6L14.3 -11.25L14.25 -11.1L14.15 -10.95L14.05 -10.9L14 -10.85Q13.2 -10.3 12.3 -9.25Q11.35 -8.1 9.65 -7.55Q7.95 -6.95 4.55 -8.95L3.65 -9.5L3.35 -9.7Q1.65 -10.6 0.95 -10.6L0.9 -10.6L-1.35 -10.15L-1.9 -10L-1.95 -9.95L-2.2 -9.85L-2.35 -9.6L-2.35 -9.55L-2.4 -9.55L-2.4 -9.45L-2.45 -9.3L-2.15 -9.45L-2.25 -9.55L-2.3 -9.55L-1.75 -9.8L-1.7 -9.8L-1.55 -9.8L-0.6 -9.55Q-0.3 -9.65 -0.05 -9.25L0.7 -9.15L1.6 -8.9L1.75 -8.9L2.5 -8.65L2.85 -8.55L2.8 -8.55Q4 -8.2 5.15 -7.65L6.4 -6.85L6.45 -6.8L7.8 -5.8L8.1 -5.6L8.25 -5.5L8.5 -5.25L9.8 -3.95L9.85 -3.95L10.25 -3.45L10.3 -3.45L10.65 -2.9L10.7 -2.8Q11.75 -1.25 12.2 0.5L12.45 1.8L12.5 2.45L12.5 2.55L12.5 3.2L12.5 3.6L12.5 4L12.5 4.1L12.5 4.25Q12.2 8.4 9.15 11.35L9.1 11.45L8.45 11.95L8.4 12.05L4.45 14.3L2.7 14.7L-0.6 15L-1.2 14.95L-2.2 14.85Q-6.05 14.6 -8.6 13L-8.6 12.95L-8.65 12.9L-8.75 12.85L-8.75 12.9L-8.95 12.75L-9.15 12.6L-9.3 12.5L-9.4 12.45L-12.1 10.1L-12.15 10.05L-12.2 10L-12.25 9.75L-12.6 9.3L-12.6 9.25L-12.8 9L-12.9 8.65L-12.85 8.5L-12.95 8.5L-13.15 8.3L-13.2 8.15L-13.7 6.7Q-14.25 5 -14.25 3.2Q-14.25 0.1 -12.9 -2.45L-12.85 -2.6Q-12.15 -3.95 -10.9 -5.1L-10.8 -5.25L-10.8 -5.3L-10.25 -5.75L-10.2 -5.8L-9.4 -6.5L-9.2 -6.75L-8.8 -7L-8.15 -7.45L-8.15 -7.4Q-7.55 -7.9 -6.75 -8.2L-6.7 -8.2L-6.65 -8.25L-6.25 -8.85L-5.35 -9.25L-5.3 -9.25L-4.9 -9.25L-4.85 -9.25L-4.75 -9.3L-4.3 -10.9L-4.05 -11.6L-4 -11.65L-3.9 -11.8L-3.8 -11.95Q-3.45 -12.35 -3.05 -12.3L-2.8 -12.3L-2.4 -12.4L-1.6 -13L-1.6 -13.05L-0.9 -13.4L-0.85 -13.4Q2.45 -15.1 4.2 -15L4.25 -15Q6.15 -14.95 8.1 -14.15L8.15 -14.15L9.7 -13.4L9.8 -13.4M-3.05,-11.35L-3.1 -11.35L-3.15 -11.35L-3.2 -11.25L-3.25 -11.15L-3.25 -11.1L-3.4 -10.9L-3.4 -10.85L-3.5 -10.6L-3.7 -10L-3.7 -9.95L-3.85 -9.3L-3.8 -9.05L-3.8 -8.95L-3.85 -8.75L-4 -8.65L-4.15 -8.55L-4.3 -8.5L-4.35 -8.45L-4.5 -8.3L-4.75 -8.3L-4.9 -8.3L-5.1 -8.3L-5.3 -8.3Q-5.6 -8.3 -5.7 -8.1L-5.75 -8L-5.75 -7.8L-5.8 -7.65L-6 -7.55L-6.4 -7.35L-6.45 -7.35L-7.7 -6.6L-8.3 -6.25L-8.7 -6L-8.85 -5.8L-9.65 -5.1L-9.65 -5.05L-10.2 -4.6L-10.25 -4.55L-12 -2.1Q-13.3 0.35 -13.3 3.2Q-13.3 4.85 -12.9 6.4L-12.25 8L-12.2 8.25L-12.25 8.3L-12.2 8.3L-12 8.5L-11.75 8.85L-11.75 8.9L-11.5 9.3L-11.4 9.45L-11.4 9.5L-11.35 9.5L-8.95 11.6L-9 11.6L-8.55 11.85L-8.3 12.05Q-8.2 12.05 -8.15 12.15Q-5.75 13.65 -2.05 13.9L-1.15 14L-1.1 14L-0.6 14.05L2.5 13.8L4.15 13.35Q6.1 12.65 7.8 11.3L7.8 11.25L7.85 11.2L8.5 10.65Q11.25 7.95 11.55 4.15L11.6 4L11.6 3.6L11.6 3.2L11.6 2.6L11.5 1.9L11.3 0.75Q10.85 -0.9 9.85 -2.4L9.55 -2.9L9.15 -3.35L7.85 -4.6L7.8 -4.7L7.5 -4.9L7.4 -4.95L7.4 -5L5.9 -6.1Q5.25 -6.45 4.7 -6.75L2.55 -7.7L2.3 -7.8L1.6 -7.95L1.55 -7.95L0.5 -8.2L-0.6 -8.3L-0.85 -8.45L-0.9 -8.6L-0.9 -8.7L-1 -8.75L-1.45 -8.8L-1.55 -8.8L-1.6 -8.8L-1.75 -8.8L-2.05 -8.65L-2.2 -8.65L-2.3 -8.6L-2.5 -8.55L-2.7 -8.65L-2.75 -8.75L-2.8 -8.8L-3.15 -8.8L-3.25 -8.8Q-3.4 -8.8 -3.45 -8.9L-3.55 -9.05L-3.5 -9.3L-3 -10.55L-2.85 -10.7L-2.65 -10.75L-2.2 -10.9L-1.6 -11.05L0.9 -11.5Q1.8 -11.55 3.75 -10.55L3.85 -10.45L4 -10.35L5.05 -9.8Q7.95 -8.05 9.35 -8.45Q10.8 -8.95 11.2 -9.35L13 -10.85L13.3 -11.1L12.9 -11.1Q11.9 -11.1 9.35 -12.55L7.75 -13.3Q5.95 -14 4 -14L0.8 -13.35L0.8 -13.3L0.1 -12.95L-1.95 -11.65L-2 -11.65L-2.45 -11.35L-2.65 -11.35L-2.8 -11.35L-2.9 -11.35L-3.05 -11.35M-2.7,-9.6L-2.6 -9.45L-2.5 -9.55L-2.65 -9.7L-2.7 -9.6M-2.6,-9.7L-2.5 -9.65L-2.4 -9.6L-2.65 -9.75L-2.65 -9.7L-2.6 -9.7M-9.5,-6.35L-9.45 -6.4L-9.45 -6.45L-9.5 -6.35" />
<path style="fill:#0A7402;fill-opacity:1" d="M6.65,-12.65Q5.3 -13.45 4.15 -13.45L2.4 -13.15L0.9 -12.6L0.15 -12.55L0.7 -12.3L0.7 -12.4L3.9 -12.55L5.25 -12.35L5.3 -12.35L8.3 -11.5L8.7 -11.35L8.9 -11.35L8.7 -11.4L8.55 -11.45L8.45 -11.55L7.1 -12.4L6.65 -12.55L6.65 -12.65M6.2,-9.35L5.15 -9.95Q2.5 -11.5 1.3 -11.65L0.1 -12.15L0.15 -12.7L0.15 -12.8L0.4 -12.95L2.15 -13.65L2.45 -13.7L4 -13.85L6.1 -13.65L7.4 -13.2L8.05 -12.85L9.05 -12.1L10.7 -10.65L9.4 -9.9Q8.35 -9.15 7.4 -9.15L6.2 -9.35M-2.6,-10.95L-2.65 -10.9L-2.75 -10.9L-2.65 -11L-2.15 -11.35L-2.05 -11.35Q-2.35 -11.1 -2.6 -10.95M-2.8,-8.75L-2.8 -8.65L-2.8 -8.55L-2.75 -8.45L-2.65 -8.4L-2.5 -8.55L-2.3 -8.6L-2.2 -8.65L-2.05 -8.65L-1.75 -8.8L-1.6 -8.8L-1.55 -8.8L-1.45 -8.8L-1.35 -8.45L-1.6 -8.3L-1.55 -8.25L-1.55 -8.2L-1.6 -7.8L-1.95 -7.5L-2.2 -7.55L-2.3 -7.55L-2.35 -7.55L-2.8 -7.65L-2.8 -7.55L-2.9 -7.15L-3.4 -7L-3.9 -7.05L-4 -7.15L-4.25 -7.25L-4.3 -7.2L-4.3 -7.05L-4.35 -7L-4.5 -6.75L-4.55 -6.75L-4.7 -6.75Q-5.15 -6.75 -5.25 -7.3Q-5.15 -7.3 -5.15 -7.35L-5.15 -7.4L-4.9 -7.7L-4.75 -7.7L-4.35 -7.65L-4.25 -7.7L-4.25 -7.8L-4.8 -8L-4.85 -8.05L-4.9 -8.05L-4.95 -8L-5.1 -7.9L-5.55 -7.95L-5.5 -8.2L-5.3 -8.3L-5.1 -8.3L-4.9 -8.25L-4.55 -8.25L-4.45 -8.25L-4.3 -8.3L-4.3 -8.4L-4.3 -8.5L-4.15 -8.55L-4 -8.65Q-4.1 -8.05 -3.6 -7.8L-3.25 -7.65Q-2.8 -7.65 -2.8 -8L-3 -8.25L-3.25 -8.3L-3.45 -8.3L-3.5 -8.2L-3.5 -8.25Q-3.7 -8.45 -3.5 -8.75L-3.25 -8.8L-3.15 -8.8L-2.8 -8.75" />
<path style="fill:#00B605;fill-opacity:1" d="M6.65,-12.55L5.35 -12.85L3.95 -13.1L3.9 -13.1L0.9 -12.6L2.4 -13.15L4.15 -13.45Q5.3 -13.45 6.65 -12.65L6.65 -12.55M7.4,-9.15Q8.35 -9.15 9.4 -9.9L10.7 -10.65L9.05 -12.1L8.05 -12.85L7.4 -13.2L9.25 -12.4Q11.7 -11.05 12.8 -10.9L11.7 -10.05L11.15 -9.5L11.1 -9.5Q10.6 -9.1 9.3 -8.65Q8.2 -8.4 6.2 -9.35L7.4 -9.15M-1.35,-8.45L-1.45 -8.8L-1 -8.75L-1.25 -8.45L-1.35 -8.45M-5.35,-7.7L-5.4 -7.7L-5.4 -7.65L-5.5 -7.65L-5.75 -7.8L-5.75 -8L-5.5 -8.2L-5.55 -7.95L-5.1 -7.9L-5.35 -7.7M-4.9,-6.7L-5 -6.7L-5.35 -6.75L-5.45 -7.05L-5.35 -7.25L-5.25 -7.3Q-5.15 -6.75 -4.7 -6.75L-4.55 -6.75L-4.9 -6.7M-2.5,-7.55L-2.6 -7.35L-2.5 -7.25L-2.4 -7.15L-2.35 -7.15L-2.5 -6.85L-2.5 -6.75L-2.6 -6.75Q-2.8 -6.6 -3.1 -6.6L-3.25 -6.6L-3.5 -6.7L-3.6 -6.7L-3.65 -6.75L-3.75 -6.75L-4.05 -6.95L-4 -7.15L-3.9 -7.05L-3.4 -7L-2.9 -7.15L-2.8 -7.55L-2.8 -7.65L-2.35 -7.55L-2.5 -7.55M-1.45,-8.1L-1.35 -8.1L-1.35 -8.05L-1.3 -7.95L-1.25 -7.95L-0.9 -7.55Q-0.9 -7.15 -1.35 -7.15L-1.9 -7.25L-2.05 -7.35L-2.05 -7.4L-2.15 -7.5L-2.2 -7.5L-2.2 -7.55L-1.95 -7.5L-1.6 -7.8L-1.55 -8.2L-1.45 -8.1" />
<path style="fill:#3C2D25;fill-opacity:1" d="M3.9,-13.1L3.95 -13.1L5.35 -12.85L6.65 -12.55L7.1 -12.4L8.45 -11.55L8.55 -11.45L8.7 -11.4L8.9 -11.35L8.7 -11.35L8.3 -11.5L5.3 -12.35L5.25 -12.35L3.9 -12.55L0.7 -12.4L0.7 -12.3L0.15 -12.55L0.9 -12.6L3.9 -13.1M-2.05,-11.35L-2.15 -11.35L-2.65 -11L-2.75 -10.9L-2.65 -10.9L-2.6 -10.95L-2.15 -11.1L-1.75 -11.25L-1.7 -11.25L0.35 -11.65L0.9 -11.7L1.3 -11.65Q2.5 -11.5 5.15 -9.95L6.2 -9.35Q8.2 -8.4 9.3 -8.65Q10.6 -9.1 11.1 -9.5L11.15 -9.5L11.7 -10.05L12.8 -10.9Q11.7 -11.05 9.25 -12.4L7.4 -13.2L6.1 -13.65L4 -13.85L2.45 -13.7L2.15 -13.65L0.4 -12.95L0.15 -12.8L0.15 -12.7L-2.05 -11.35M-3.6,-7.8Q-4.1 -8.05 -4 -8.65L-3.85 -8.75L-3.8 -8.95L-3.8 -9.05L-3.85 -9.3L-3.75 -9.4L-3.6 -9.65L-3.6 -9.8L-3.35 -10.25L-3.3 -10.25L-3.3 -10.35L-3.05 -10.8L-2.95 -11L-2.95 -11.05L-2.9 -11.2L-2.9 -11.35L-2.8 -11.35L-2.65 -11.35L-2.45 -11.35L-2 -11.65L-1.95 -11.65L0.1 -12.95L0.8 -13.3L0.8 -13.35L4 -14Q5.95 -14 7.75 -13.3L9.35 -12.55Q11.9 -11.1 12.9 -11.1L13.3 -11.1L13 -10.85L11.2 -9.35Q10.8 -8.95 9.35 -8.45Q7.95 -8.05 5.05 -9.8L4 -10.35L3.85 -10.45L3.75 -10.55Q1.8 -11.55 0.9 -11.5L-1.6 -11.05L-2.2 -10.9L-2.65 -10.75L-2.85 -10.7L-3 -10.55L-3.5 -9.3L-3.55 -9.05L-3.45 -8.9Q-3.4 -8.8 -3.25 -8.8L-3.5 -8.75Q-3.7 -8.45 -3.5 -8.25L-3.5 -8.2L-3.4 -8.05Q-3.15 -7.95 -3.25 -7.75L-3.6 -7.8M-3.15,-8.8L-2.8 -8.8L-2.75 -8.75L-2.7 -8.65L-2.5 -8.55L-2.65 -8.4L-2.75 -8.45L-2.8 -8.55L-2.8 -8.65L-2.8 -8.75L-3.15 -8.8M-2.4,-7.3L-2.4 -7.25L-2.35 -7.2L-2.4 -7.2L-2.4 -7.25L-2.5 -7.35L-2.4 -7.15L-2.5 -7.25L-2.6 -7.35L-2.5 -7.55L-2.35 -7.55L-2.3 -7.55L-2.2 -7.55L-2.2 -7.5L-2.15 -7.5L-2.05 -7.4L-2.05 -7.35L-1.9 -7.25L-1.35 -7.15Q-0.9 -7.15 -0.9 -7.55L-1.25 -7.95L-1.3 -7.95L-1.35 -8.05L-1.35 -8.1L-1.45 -8.1L-1.55 -8.2L-1.55 -8.25L-1.6 -8.3L-1.35 -8.45L-1.25 -8.45L-1.2 -8.4L-0.9 -8.45L-0.9 -8.6L-0.85 -8.45L-0.6 -8.3L0.5 -8.2L1.55 -7.95L1.6 -7.95L2.3 -7.8L2.55 -7.7L4.7 -6.75Q5.25 -6.45 5.9 -6.1L7.4 -5L7.4 -4.95L7.5 -4.9L7.8 -4.7L7.85 -4.6L9.15 -3.35L9.55 -2.9L9.85 -2.4Q10.85 -0.9 11.3 0.75L11.5 1.9L11.6 2.6L11.6 3.2L11.6 3.6L11.6 4L11.55 4.15Q11.25 7.95 8.5 10.65L7.85 11.2L7.8 11.25L7.8 11.3Q6.1 12.65 4.15 13.35L2.5 13.8L-0.6 14.05L-1.1 14L-1.15 14L-2.05 13.9Q-5.75 13.65 -8.15 12.15Q-8.2 12.05 -8.3 12.05L-8.55 11.85L-9 11.6L-8.95 11.6L-11.35 9.5L-11.4 9.5L-11.4 9.45L-11.5 9.3L-11.75 8.9L-11.75 8.85L-12 8.5L-12.2 8.3L-12.25 8.3L-12.2 8.25L-12.25 8L-12.9 6.4Q-13.3 4.85 -13.3 3.2Q-13.3 0.35 -12 -2.1L-10.25 -4.55L-10.2 -4.6L-9.65 -5.05L-9.65 -5.1L-8.85 -5.8L-8.7 -6L-8.3 -6.25L-7.7 -6.6L-6.45 -7.35L-6.4 -7.35L-6 -7.55L-5.8 -7.65L-5.75 -7.8L-5.5 -7.65L-5.4 -7.65L-5.4 -7.7L-5.35 -7.7L-5.1 -7.9L-4.95 -8L-4.9 -8.05L-4.85 -8.05L-4.8 -8L-4.25 -7.8L-4.25 -7.7L-4.35 -7.65L-4.75 -7.7L-4.9 -7.7L-5.15 -7.4L-5.15 -7.35Q-5.15 -7.3 -5.25 -7.3L-5.35 -7.25L-5.45 -7.05L-5.35 -6.75L-5 -6.7L-4.9 -6.7L-4.55 -6.75L-4.5 -6.75L-4.35 -7L-4.3 -7.05L-4.3 -7.2L-4.25 -7.25L-4 -7.15L-4.05 -6.95L-3.75 -6.75L-3.65 -6.75L-3.6 -6.7L-3.5 -6.7L-3.25 -6.6L-3.1 -6.6Q-2.8 -6.6 -2.6 -6.75L-2.5 -6.75L-2.5 -6.85L-2.35 -7.15L-2.35 -7.2L-2.35 -7.3L-2.3 -7.3L-2.25 -7.35L-2.2 -7.35L-2.2 -7.4L-2.25 -7.5L-2.3 -7.55L-2.35 -7.35L-2.4 -7.3M-5.5,-8.2L-5.75 -8L-5.7 -8.1Q-5.6 -8.3 -5.3 -8.3L-5.5 -8.2M-4.3,-8.4L-4.3 -8.3L-4.45 -8.25L-4.55 -8.25L-4.9 -8.25L-5.1 -8.3L-4.9 -8.3L-4.75 -8.3L-4.5 -8.3L-4.35 -8.45L-4.3 -8.5L-4.3 -8.4M-3.2,-11.25L-3.15 -11.35L-3.1 -11.35L-3.2 -11.25M-5.9,-7.25L-6.05 -7.2L-6.3 -7.15L-7.9 -6.25Q-8.15 -6 -8.5 -5.8L-8.7 -5.65L-9 -5.4L-9.45 -4.95L-9.85 -4.6L-10.05 -4.4L-10.05 -4.3Q-11.55 -2.8 -12.25 -0.95Q-13.05 0.95 -13.05 3.2Q-13.05 5.3 -12.4 7.15L-12.2 7.5L-11.95 8L-11.8 8.35L-11.8 8.4L-11.55 8.7L-11.55 8.75L-11.3 9.25L-11.15 9.35L-9.15 11.2L-8.4 11.65L-8.3 11.75L-8.15 11.8Q-6.25 13.05 -3.5 13.55L-2.05 13.7L-1.15 13.75L-0.6 13.8L2.45 13.55L3.35 13.3L3.45 13.3L4.05 13.1L6.05 12.25L6.05 12.2L7.7 11.05L7.8 10.9L8 10.75L8.35 10.45L9.1 9.5L9.15 9.5L9.5 9.05Q10.6 7.65 11 5.95L11 5.9L11.3 4.15L11.3 4L11.3 3.6L11.3 3.2L11.3 2.6L11.2 1.85L11.2 1.7L11 0.6L10.45 -0.8L9.45 -2.6L8.5 -3.6L8 -4.2L7.9 -4.2L7.65 -4.45L7.4 -4.75L7.35 -4.75L7 -4.95L6.65 -5.25L4.95 -6.4L4.6 -6.5L4.5 -6.55L2.65 -7.35L2.3 -7.55L1.6 -7.7L1 -7.8L0.55 -7.9L-0.85 -8.05L-0.9 -8.05Q-0.6 -7.8 -0.6 -7.55Q-0.6 -7.15 -0.85 -6.95Q-1 -6.75 -1.35 -6.75L-1.55 -6.8L-2 -7L-2.05 -7L-2.2 -6.65L-2.2 -6.6L-2.35 -6.6L-2.35 -6.5L-2.4 -6.5L-3.1 -6.3L-3.25 -6.3L-3.3 -6.3L-3.45 -6.3L-3.6 -6.35L-3.7 -6.45L-3.8 -6.45L-3.85 -6.45L-4.2 -6.6L-4.45 -6.45L-4.9 -6.4L-5 -6.4L-5.55 -6.45L-5.55 -6.5Q-5.75 -6.6 -5.75 -7.05L-5.7 -7.3L-5.75 -7.3L-5.8 -7.35L-5.9 -7.25M2.9,11.8L3.3 11.7L3.35 11.65Q5.65 10.9 7.9 8.55L7.8 8.7Q6.3 11.05 3.35 12.05L3 12.15L2.6 12.3L-0.05 12.55L-1.35 12.55L-3.4 12.35L-0.05 12.3L2.5 11.95L2.8 11.8L2.9 11.8M-3.25,-10.15L-3.15 -10.25L-3.25 -10.35L-3.25 -10.15M-2.15,-7.35L-2.1 -7.35L-2.15 -7.4L-2.15 -7.35" />
<path style="fill:#FF7E00;fill-opacity:1" d="M10.8,0.6L10.85 1L10.8 1.6L10.8 1.85L10.05 4L9.95 4.15Q9.05 5.8 7.25 7.5L7.2 7.6L5.35 9.2L5.1 9.4L4.95 9.35Q4.75 9.35 4.6 9.5L4.5 9.75L4.5 9.8L4.2 9.95L1.65 10.95Q-0.15 11.7 -2.65 11.6Q-5.15 11.55 -8.2 10.25L-8.3 10.25L-9.15 9.85Q-11.45 8.75 -12.2 7.5L-12.4 7.15Q-13.05 5.3 -13.05 3.2L-12.8 3.3Q-12.55 2.1 -11.75 0.75L-11.7 0.6Q-10.7 -1.3 -8.8 -2.95L-7.9 -3.75L-7.15 -4.3L-6.3 -4.95L-6 -5.05L-5.7 -5.25L-5.05 -5.65L-4.9 -5.7L-3.7 -6.2L-3.45 -6.3L-3.3 -6.3L-3.25 -6.3L-3.3 -6L-3.25 -5.7L-3.15 -5.65L-3.1 -5.6L-2.7 -5.4Q-2.4 -5.4 -2.25 -5.6L-2.2 -5.65L-2.15 -5.7L-2.05 -6L-2.15 -6.4L-2.25 -6.5L-2.35 -6.5L-2.35 -6.6L-2.2 -6.6L-2.2 -6.65L-1.55 -6.8L-1.35 -6.75Q-1 -6.75 -0.85 -6.95L0.55 -7.05L0.85 -7.05L1.6 -7L2.3 -7L2.65 -6.95L4.5 -6.55L4.6 -6.5L4.95 -6.4L6.65 -5.25L7 -4.95L7.35 -4.75L7.4 -4.75L7.65 -4.45L7.9 -4.2L8 -4.2L8.5 -3.6L9.45 -2.6L10.45 -0.8L10.8 0.6M2.5,-4.95L2.4 -4.75L2.5 -4.45L2.75 -4.35L3 -4.45L3.05 -4.75L3 -4.95L2.75 -5.05L2.5 -4.95M-0.25,-4.95L-0.3 -5.05L-0.45 -5.05L-0.6 -5.15L-0.85 -5.05L-0.9 -5.05L-0.9 -5L-1 -4.95L-1.05 -4.75L-0.9 -4.5Q-0.8 -4.35 -0.6 -4.35Q-0.45 -4.35 -0.3 -4.5L-0.2 -4.75L-0.25 -4.95M1.75,-1.65L2.15 -1.7L2.3 -1.95L2.15 -2.2L1.75 -2.3L1.4 -2.2L1.2 -1.95L1.4 -1.7L1.75 -1.65M-0.25,-1.7L-1.05 -1.9L-1.85 -1.45L-2.05 -0.95L-1.75 -0.35Q-1.4 -0.05 -0.85 -0.05Q-0.3 -0.05 0.05 -0.4L0.35 -1.1L-0.25 -1.7M6,-2.7L6 -2.6L6.15 -2.45Q6.3 -2.25 6.55 -2.25L6.85 -2.45L6.95 -2.6L7 -2.7L6.85 -2.95L6.55 -3.1L6.15 -2.95L6 -2.7M7.35,-0.4L7 -0.35L6.95 0L7 0.35L7.35 0.45L7.55 0.35L7.6 0.35L7.75 0L7.6 -0.35L7.35 -0.4M8.1,1.85L8.05 2.05L8.15 2.35L8.45 2.5L8.8 2.35L8.9 2.05L8.8 1.85L8.8 1.75Q8.65 1.6 8.45 1.6L8.15 1.75L8.1 1.85M5.65,2.6L5.45 3.1L5.65 3.55L6.1 3.75Q6.35 3.75 6.55 3.55L6.75 3.1L6.55 2.6L6.1 2.45Q5.85 2.45 5.65 2.6M4.6,5.45L4.5 5.2L4.2 5.15L3.9 5.2L3.75 5.45L3.9 5.7L4.2 5.8L4.5 5.7L4.6 5.45M-0.1,1.35L-0.25 1.85L-0.1 2.2L0.15 2.45L0.6 2.2L0.7 1.85L0.6 1.35L0.15 1.2Q0.05 1.2 -0.1 1.35M1.25,9Q1 9 0.8 9.25L0.6 9.75L0.8 10.2L1.25 10.4Q1.55 10.4 1.7 10.2L1.9 9.75L1.7 9.25Q1.55 9 1.25 9M-9.75,1.3L-9.95 1.85L-9.75 2.4L-9.3 2.6L-9.25 2.6L-9.15 2.9Q-8.7 3.6 -7.65 3.5L-7.15 3.4Q-6.35 3 -5.6 1.25Q-4.75 -0.9 -3.25 -1.55Q-1.75 -2.2 -2.05 -2.95Q-2.3 -3.7 -3 -3.7L-3.85 -3.7L-4.8 -3.5L-5.6 -3.3L-5.95 -3.1L-7.1 -2.55L-7.15 -2.5Q-7.65 -2.45 -8.45 -1.55Q-9.3 -0.65 -9.45 1.1L-9.75 1.3M-4,2.8L-4.25 2.9L-4.35 3.25L-4.25 3.5L-4.05 3.65L-3.8 3.5L-3.6 3.4L-3.5 3.25L-3.7 2.9L-4 2.8M-7.5,6.3Q-7.65 6.15 -7.85 6.15L-8.15 6.3L-8.3 6.65L-8.15 7L-7.85 7.15L-7.5 7L-7.3 6.65L-7.5 6.3M-2.85,10L-3 10.25L-2.85 10.55L-2.65 10.7Q-2.45 10.7 -2.35 10.55L-2.2 10.25L-2.35 10Q-2.45 9.9 -2.65 9.9L-2.85 10" />
<path style="fill:#E24A00;fill-opacity:1" d="M5.1,9.4L5.35 9.2L7.2 7.6L7.25 7.5Q9.05 5.8 9.95 4.15L10.05 4L10.8 1.85L10.8 1.6L10.85 1L10.8 0.6L10.45 -0.8L11 0.6L11.2 1.7L11.2 1.85L11.3 2.6L11.3 3.2L11.3 3.6L11.3 4L11.3 4.15L11 5.9L11 5.95Q10.6 7.65 9.5 9.05L9.15 9.5L9.1 9.5L8.35 10.45L8 10.75L7.8 10.9L7.7 11.05L6.05 12.2L6.05 12.25L4.05 13.1L3.45 13.3L3.35 13.3L2.45 13.55L-0.6 13.8L-1.15 13.75L-2.05 13.7L-3.5 13.55Q-6.25 13.05 -8.15 11.8L-8.3 11.75L-8.4 11.65L-9.15 11.2L-11.15 9.35L-11.3 9.25L-11.55 8.75L-11.55 8.7L-11.8 8.4L-11.8 8.35L-11.95 8L-12.2 7.5Q-11.45 8.75 -9.15 9.85L-8.3 10.25L-8.2 10.25Q-5.15 11.55 -2.65 11.6Q-0.15 11.7 1.65 10.95L4.2 9.95L4.5 9.8L4.6 10.05L4.95 10.15L5.25 10.05L5.25 9.75L5.25 9.5L5.1 9.4M3.35,11.65L3.3 11.5L3.05 11.3L2.9 11.5L2.75 11.65L2.8 11.8L2.5 11.95L-0.05 12.3L-3.4 12.35L-1.35 12.55L-0.05 12.55L2.6 12.3L3 12.15L3.35 12.05Q6.3 11.05 7.8 8.7L7.9 8.55Q5.65 10.9 3.35 11.65M7.95,8.55L8 8.5L8.05 8.4L7.9 8.55L7.95 8.55M7.9,7.9L7.7 7.85L7.4 7.95L7.35 8.25L7.4 8.55L7.6 8.45L7.9 7.95L7.9 7.9M-3.5,13.3L-3.25 13.2L-3.05 12.95L-3.25 12.6Q-3.3 12.5 -3.5 12.5L-3.75 12.6L-3.9 12.95L-3.75 13.2L-3.5 13.3" />
<path style="fill:#FFA800;fill-opacity:1" d="M-0.6,-7.55Q-0.6 -7.8 -0.9 -8.05L-0.85 -8.05L0.55 -7.9L1 -7.8L1.6 -7.7L2.3 -7.55L2.65 -7.35L4.5 -6.55L2.65 -6.95L2.3 -7L1.6 -7L0.85 -7.05L0.55 -7.05L-0.85 -6.95Q-0.6 -7.15 -0.6 -7.55M-2.05,-7L-2 -7L-1.55 -6.8L-2.2 -6.65L-2.05 -7M-12.25,-0.95Q-11.55 -2.8 -10.05 -4.3L-10.05 -4.4L-9.85 -4.6L-9.45 -4.95L-9 -5.4L-8.7 -5.65L-8.5 -5.8Q-8.15 -6 -7.9 -6.25L-6.3 -7.15L-6.05 -7.2L-5.9 -7.25L-5.75 -7.3L-5.7 -7.3L-5.75 -7.05Q-5.75 -6.6 -5.55 -6.5L-5.55 -6.45L-5 -6.4L-4.9 -6.4L-4.45 -6.45L-4.2 -6.6L-3.85 -6.45L-3.8 -6.45L-3.7 -6.45L-3.6 -6.35L-3.45 -6.3L-3.7 -6.2L-4.9 -5.7L-5.05 -5.65L-5.7 -5.25L-6 -5.05L-6.3 -4.95L-7.15 -4.3L-7.9 -3.75L-8.8 -2.95Q-10.7 -1.3 -11.7 0.6L-11.75 0.75Q-12.55 2.1 -12.8 3.3L-13.05 3.2Q-13.05 0.95 -12.25 -0.95M0.35,-1.1L0.05 -0.4Q-0.3 -0.05 -0.85 -0.05Q-1.4 -0.05 -1.75 -0.35L-2.05 -0.95L-1.85 -1.45L-1.05 -1.9L-0.25 -1.7L0.35 -1.1M-2.35,-7.35L-2.3 -7.3L-2.35 -7.3L-2.4 -7.3L-2.35 -7.35M-9.15,2.6L-8.8 2.4L-8.6 1.85L-8.8 1.3L-9.3 1.1L-9.45 1.1Q-9.3 -0.65 -8.45 -1.55Q-7.65 -2.45 -7.15 -2.5L-7.1 -2.55L-5.95 -3.1L-5.6 -3.3L-4.8 -3.5L-3.85 -3.7L-3 -3.7Q-2.3 -3.7 -2.05 -2.95Q-1.75 -2.2 -3.25 -1.55Q-4.75 -0.9 -5.6 1.25Q-6.35 3 -7.15 3.4L-7.65 3.5Q-8.7 3.6 -9.15 2.9L-9.25 2.6L-9.15 2.6M-5.15,-2.3L-5.45 -2.2L-5.55 -1.9L-5.45 -1.6Q-5.3 -1.45 -5.15 -1.45L-4.95 -1.6L-4.9 -1.9L-4.95 -2.2L-5.15 -2.3" />
<path style="fill:#D74700;fill-opacity:1" d="M-3.1,-6.3L-2.4 -6.5L-2.35 -6.5L-2.25 -6.5L-2.15 -6.4L-2.05 -6L-2.15 -5.7L-2.2 -5.65L-2.25 -5.6Q-2.4 -5.4 -2.7 -5.4L-3.1 -5.6L-3.15 -5.65L-3.25 -5.7L-3.3 -6L-3.25 -6.3L-3.1 -6.3M5.25,9.5L5.25 9.75L5.25 10.05L4.95 10.15L4.6 10.05L4.5 9.8L4.5 9.75L4.6 9.5Q4.75 9.35 4.95 9.35L5.1 9.4L5.25 9.5M2.75,-5.05L3 -4.95L3.05 -4.75L3 -4.45L2.75 -4.35L2.5 -4.45L2.4 -4.75L2.5 -4.95L2.75 -5.05M-0.2,-4.75L-0.3 -4.5Q-0.45 -4.35 -0.6 -4.35Q-0.8 -4.35 -0.9 -4.5L-1.05 -4.75L-1 -4.95L-0.9 -5L-0.9 -5.05L-0.85 -5.05L-0.6 -5.15L-0.45 -5.05L-0.3 -5.05L-0.25 -4.95L-0.2 -4.75M1.4,-1.7L1.2 -1.95L1.4 -2.2L1.75 -2.3L2.15 -2.2L2.3 -1.95L2.15 -1.7L1.75 -1.65L1.4 -1.7M6.15,-2.95L6.55 -3.1L6.85 -2.95L7 -2.7L6.95 -2.6L6.85 -2.45L6.55 -2.25Q6.3 -2.25 6.15 -2.45L6 -2.6L6 -2.7L6.15 -2.95M7.6,-0.35L7.75 0L7.6 0.35L7.55 0.35L7.35 0.45L7 0.35L6.95 0L7 -0.35L7.35 -0.4L7.6 -0.35M8.15,1.75L8.45 1.6Q8.65 1.6 8.8 1.75L8.8 1.85L8.9 2.05L8.8 2.35L8.45 2.5L8.15 2.35L8.05 2.05L8.1 1.85L8.15 1.75M6.1,2.45L6.55 2.6L6.75 3.1L6.55 3.55Q6.35 3.75 6.1 3.75L5.65 3.55L5.45 3.1L5.65 2.6Q5.85 2.45 6.1 2.45M4.5,5.7L4.2 5.8L3.9 5.7L3.75 5.45L3.9 5.2L4.2 5.15L4.5 5.2L4.6 5.45L4.5 5.7M0.15,1.2L0.6 1.35L0.7 1.85L0.6 2.2L0.15 2.45L-0.1 2.2L-0.25 1.85L-0.1 1.35Q0.05 1.2 0.15 1.2M1.7,9.25L1.9 9.75L1.7 10.2Q1.55 10.4 1.25 10.4L0.8 10.2L0.6 9.75L0.8 9.25Q1 9 1.25 9Q1.55 9 1.7 9.25M2.8,11.8L2.75 11.65L2.9 11.5L3.05 11.3L3.3 11.5L3.35 11.65L3.3 11.7L2.9 11.8L2.8 11.8M7.9,8.55L8.05 8.4L8 8.5L7.95 8.55L7.9 8.55M7.9,7.95L7.6 8.45L7.4 8.55L7.35 8.25L7.4 7.95L7.7 7.85L7.9 7.9L7.9 7.95M-9.45,1.1L-9.3 1.1L-8.8 1.3L-8.6 1.85L-8.8 2.4L-9.15 2.6L-9.25 2.6L-9.3 2.6L-9.75 2.4L-9.95 1.85L-9.75 1.3L-9.45 1.1M-4.95,-2.2L-4.9 -1.9L-4.95 -1.6L-5.15 -1.45Q-5.3 -1.45 -5.45 -1.6L-5.55 -1.9L-5.45 -2.2L-5.15 -2.3L-4.95 -2.2M-3.7,2.9L-3.5 3.25L-3.6 3.4L-3.8 3.5L-4.05 3.65L-4.25 3.5L-4.35 3.25L-4.25 2.9L-4 2.8L-3.7 2.9M-7.3,6.65L-7.5 7L-7.85 7.15L-8.15 7L-8.3 6.65L-8.15 6.3L-7.85 6.15Q-7.65 6.15 -7.5 6.3L-7.3 6.65M-2.65,9.9Q-2.45 9.9 -2.35 10L-2.2 10.25L-2.35 10.55Q-2.45 10.7 -2.65 10.7L-2.85 10.55L-3 10.25L-2.85 10L-2.65 9.9M-3.75,13.2L-3.9 12.95L-3.75 12.6L-3.5 12.5Q-3.3 12.5 -3.25 12.6L-3.05 12.95L-3.25 13.2L-3.5 13.3L-3.75 13.2" />
<path style="fill:#005B02;fill-opacity:1" d="M-2.05,-11.35L0.15 -12.7L0.1 -12.15L1.3 -11.65L0.9 -11.7L0.35 -11.65L-1.7 -11.25L-1.75 -11.25L-2.15 -11.1L-2.6 -10.95Q-2.35 -11.1 -2.05 -11.35M-3.25,-7.75Q-3.15 -7.95 -3.4 -8.05L-3.5 -8.2L-3.45 -8.3L-3.25 -8.3L-3 -8.25L-2.8 -8Q-2.8 -7.65 -3.25 -7.65L-3.6 -7.8L-3.25 -7.75" />
<path style="fill:#B16710;fill-opacity:1" d="M-3.4,-10.9L-3.25 -11.1L-3.25 -11.15L-3.2 -11.25L-3.1 -11.35L-3.05 -11.35L-2.9 -11.35L-2.9 -11.2L-2.95 -11.05L-2.95 -11L-3.05 -10.8L-3.35 -10.9L-3.4 -10.9" />
<path style="fill:#804909;fill-opacity:1" d="M-3.35,-10.9L-3.05 -10.8L-3.3 -10.35L-3.3 -10.25L-3.35 -10.25L-3.6 -9.8L-3.6 -9.65L-3.75 -9.4L-3.85 -9.3L-3.7 -9.95L-3.7 -10L-3.5 -10.6L-3.4 -10.85L-3.4 -10.9L-3.35 -10.9" />
<path style="fill:#B47429;fill-opacity:1" d="M-3.25,-10.35L-3.15 -10.25L-3.25 -10.15L-3.25 -10.35" />
<path style="fill:#065600;fill-opacity:1" d="M-1,-8.75L-0.9 -8.7L-0.9 -8.6L-0.9 -8.45L-1.2 -8.4L-1.25 -8.45L-1 -8.75M-2.35,-7.3L-2.35 -7.2L-2.35 -7.15L-2.4 -7.15L-2.5 -7.35L-2.4 -7.25L-2.4 -7.2L-2.35 -7.2L-2.4 -7.25L-2.4 -7.3L-2.35 -7.3M-2.15,-7.4L-2.1 -7.35L-2.15 -7.35L-2.15 -7.4M-2.35,-7.35L-2.3 -7.55L-2.25 -7.5L-2.2 -7.4L-2.2 -7.35L-2.25 -7.35L-2.3 -7.3L-2.35 -7.35" />
</g>
</svg>
