<?xml version="1.0" encoding="utf-8"?>
<svg version="1.1" id="Layer_1"
xmlns="http://www.w3.org/2000/svg"
xmlns:xlink="http://www.w3.org/1999/xlink"
xmlns:author="http://www.sothink.com"
width="160px" height="84px"
xml:space="preserve">
<g id="190" transform="matrix(1, 0, 0, 1, 80, 41.9)">
<path style="fill:#001911;fill-opacity:1" d="M2.35,-8.85L3 -8.8L14 -8.3L19.7 -9.15L20.4 -9L20.95 -8.5L21.1 -7.8L20.55 -0.5L20.5 0L20.25 0.65L19.75 1.05L19.05 1.15L6.35 -1.05L0.65 2.2L1 18.95L1.25 28.6L29.2 29.25L31.3 28.8L30.95 25.05L29.65 25.15L29 25.05Q28.65 24.9 28.45 24.6L28.25 23.9L28.25 20.55L28.3 6.9L28.3 6.8L28.95 -0.7L30.25 -16.25L27.5 -18.05L15.45 -17.9L15.3 -17.9L2 -19L2.35 -9.2L2.35 -8.85M0.8,-21.4L15.5 -20.15L27.85 -20.3L28.45 -20.1L28.45 -20.15L32.15 -17.75L32.1 -17.75L32.5 -17.3L32.55 -16.8L30.55 7L30.5 22.55L30.55 22.7L30.65 22.8L30.8 22.8L31.95 22.65L32.45 22.75L32.85 23.1L33.05 23.6L33.65 29.75L33.45 30.4L32.85 30.8L29.5 31.5L29.3 31.5L0 30.8L-0.65 30.55L-1 29.85L-1.65 1.5L-1.5 1L-1.45 0.95L-1.15 0.65L-1.1 0.65L5.65 -3.15L5.65 -3.2L6.25 -3.3L18.05 -1.3L18.2 -1.3L18.3 -1.4L18.35 -1.5L18.75 -6.35L18.75 -6.5L18.6 -6.6L18.5 -6.65L14.3 -6.05L14.05 -6.05L1.05 -6.65Q0.65 -6.65 0.4 -6.9Q0.1 -7.2 0.1 -7.6L-0.3 -20.35L-0.15 -20.85L-0.1 -20.9L0.25 -21.25L0.8 -21.4M40.3,-18.9L52.9 -21.35L53.55 -21.25L54 -20.85L54.1 -20.25L50.1 16.65L50.15 16.8L50.3 16.9L56 19.05L56.1 19.05L56.25 19L56.3 18.85L61.5 -20.5L61.75 -20.95L61.75 -21L62.2 -21.3L62.7 -21.35L68.15 -20.3L68.2 -20.3L68.35 -20.25L68.4 -20.2L74.8 -17.2L75.3 -16.75L75.3 -16.8L75.35 -16.15L75.35 -16.1L68.6 19.55L68.55 19.6L66.35 35.8L66.25 36.1L64.75 39.25L64.5 39.6L64.05 39.8L56.85 41.4L56.5 41.4L41.9 40L41.2 39.65Q40.9 39.3 40.95 39L41.3 34.4Q41.35 33.95 41.65 33.7L41.7 33.7Q41.95 33.4 42.4 33.4L55.15 34.1L55.3 34.05L55.4 33.9L55.75 30.9L55.7 30.75L55.6 30.65L38.95 24.45L38.45 24L38.5 24.05L38.3 23.4L39.55 -3.7L39.5 -17.95L39.75 -18.55L39.75 -18.6Q39.95 -18.85 40.3 -18.9M58.8,17.45L58.35 20.7L58.05 21.35L57.4 21.75L56.7 21.7L48.6 18.65L47.95 18.1Q47.7 17.75 47.75 17.35L47.85 16.7L49.9 -2.3L51.7 -18.85L41.75 -16.9L41.8 -4.3L40.9 16.55L40.6 22.6L57.3 28.85L57.95 29.35L58.1 30.15L57.5 35.3Q57.45 35.8 57.05 36.1L56.2 36.4L43.45 35.75L43.3 37.9L56.55 39.15L62.95 37.7L64.15 35.3L66.3 19.25L66.35 19.2L66.55 18L69.45 2.8L72.95 -15.6L67.6 -18.15L63.6 -18.9L60.8 2.15L58.8 17.45M18.6,24.3L18.2 25.1Q17.85 25.4 17.4 25.4L8 25.5L7.35 25.35L6.9 24.9L6.7 24.25L6.75 21.8L6.9 10.8L7.1 10.15L7.6 9.7L8.3 9.55L18.7 10.5L19.55 10.95Q19.85 11.35 19.8 11.9L18.65 23.85L18.6 24.3M9.3,12L9.2 12.1L9.15 12.2L9 23L9.05 23.15L9.15 23.25L9.25 23.25L16.2 23.15L16.4 23.1L16.45 22.95L17.45 12.95L17.4 12.75L17.25 12.65L9.45 11.95L9.3 12M-45.15,0.05L-45.3 0.7L-45.8 1.2L-46.45 1.35L-57.4 0.65L-58.2 0.3L-58.6 -0.5L-60 -23.4L-60 -23.7L-59.75 -24.25Q-59.45 -24.65 -59 -24.7L-48.4 -26.8L-47.7 -26.75Q-47.35 -26.65 -47.15 -26.35L-46.9 -25.65L-46.3 -17.35L-45.15 0.05M-65.55,8.4L-62.65 28.4L-55.95 29.2L-57.7 9.35L-57.9 7.5L-57.75 6.8L-57.3 6.3L-56.65 6.1L-38.75 5.85L-34.4 1.05L-34.6 -7L-34.05 -35.95L-48.9 -39.15L-72.8 -37.65L-69.85 -21.65L-69.85 -21.6L-69.55 -19.45L-65.55 8.4M-48.65,-41.35L-32.6 -37.9L-32.55 -37.9L-32 -37.55L-31.8 -36.9L-32.35 -5.75L-32.15 1.45L-32.35 2.2L-37.4 7.8L-37.8 8.05L-38.15 8.1L-55.25 8.35L-55.35 8.4L-55.45 8.5L-55.5 8.65L-53.55 30.55L-53.65 31.1L-54.05 31.5L-54.65 31.6L-63.85 30.55L-64.4 30.3L-64.7 29.75L-72.05 -21.25L-75.25 -38.6L-75.2 -39.15L-74.85 -39.6L-74.3 -39.8L-48.85 -41.4L-48.65 -41.35M-49.35,-24.35L-57.45 -22.7L-57.6 -22.6L-57.65 -22.4L-56.4 -1.7L-56.3 -1.55L-56.15 -1.5L-47.75 -1L-47.6 -1L-47.5 -1.1L-47.5 -1.25L-49.05 -24.1L-49.1 -24.25L-49.2 -24.3L-49.35 -24.35M-8.1,-39.5Q-7.85 -39.25 -7.9 -38.8L-9.4 -13.45L-9.75 22.2L-9.65 22.4L-9.5 22.45L-5.9 22.45L-5.3 22.65L-5.35 22.6L-4.95 23.05Q-4.85 23.3 -4.9 23.6L-5.65 30.05L-5.95 30.6Q-6.25 30.85 -6.55 30.9L-19.75 31.8L-20.3 31.7L-20.65 31.35L-20.7 31.3L-20.85 30.8L-20.6 1.7L-22.55 -25.15L-22.6 -25.3L-22.8 -25.4L-27.7 -25.4L-28.3 -25.65L-28.65 -26.15L-28.65 -26.2L-31.1 -40.2L-31 -40.75L-31 -40.8L-30.65 -41.2L-30.6 -41.25L-30.05 -41.4L-8.8 -39.9L-8.15 -39.5L-8.1 -39.5M-18.35,1.5L-18.35 1.6L-18.5 19.5L-18.6 29.45L-7.75 28.75L-7.3 24.7L-10.8 24.7Q-11.3 24.7 -11.65 24.35Q-12.05 23.95 -12.05 23.45L-11.95 14.6L-11.65 -12.9L-10.2 -37.7L-28.65 -39L-26.65 -27.65L-21.65 -27.65Q-21.15 -27.65 -20.8 -27.3Q-20.45 -27 -20.4 -26.5L-19.05 -8.45L-18.35 1.5" />
<path style="fill:#CBFF5F;fill-opacity:1" d="M24.55,-0.05L20.55 -0.5L21.1 -7.8L20.95 -8.5L20.4 -9L19.7 -9.15L14 -8.3L3 -8.8L2.35 -9.2L2 -19L15.3 -17.9L15.45 -17.9L27.5 -18.05L30.25 -16.25L28.95 -0.7L24.55 -0.05M41.75,-16.9L51.7 -18.85L49.9 -2.3Q45.15 -4.55 43.8 -4.55L41.8 -4.3L41.75 -16.9M67.3,2.95Q64.1 2.95 60.8 2.15L63.6 -18.9L67.6 -18.15L72.95 -15.6L69.45 2.8L67.3 2.95M-66.65,-21.15Q-68.3 -20.3 -69.55 -19.45L-69.85 -21.6L-69.85 -21.65L-72.8 -37.65L-48.9 -39.15L-34.05 -35.95L-34.6 -7Q-38.65 -9.45 -43.35 -14.3L-46.3 -17.35L-46.9 -25.65L-47.15 -26.35Q-47.35 -26.65 -47.7 -26.75L-48.4 -26.8L-59 -24.7Q-59.45 -24.65 -59.75 -24.25L-60 -23.7Q-63 -23.05 -66.65 -21.15M-18.35,-9.05L-19.05 -8.45L-20.4 -26.5Q-20.45 -27 -20.8 -27.3Q-21.15 -27.65 -21.65 -27.65L-26.65 -27.65L-28.65 -39L-10.2 -37.7L-11.65 -12.9Q-15 -11.85 -18.35 -9.05" />
<path style="fill:#062018;fill-opacity:1" d="M0.25,-21.25L-0.1 -20.9L-0.15 -20.85L-0.3 -20.35L0.1 -7.6Q0.1 -7.2 0.4 -6.9Q0.65 -6.65 1.05 -6.65L14.05 -6.05L14.3 -6.05L18.5 -6.65L18.6 -6.6L18.75 -6.5L18.75 -6.35L18.35 -1.5L18.3 -1.4L18.2 -1.3L18.05 -1.3L6.25 -3.3L5.65 -3.2L5.65 -3.15L-1.1 0.65L-1.15 0.65L-1.45 0.95L-1.5 1L-1.65 1.5L-1 29.85L-0.65 30.55L0 30.8L29.3 31.5L29.5 31.5L32.85 30.8L33.45 30.4L33.65 29.75L33.05 23.6L32.85 23.1L32.45 22.75L31.95 22.65L30.8 22.8L30.65 22.8L30.55 22.7L30.5 22.55L30.55 7L32.55 -16.8L32.5 -17.3L32.1 -17.75L32.15 -17.75L28.45 -20.15L28.45 -20.1L27.85 -20.3L15.5 -20.15L0.8 -21.4L0.25 -21.25M0.8,-21.9L0.85 -21.9L15.55 -20.65L27.85 -20.8L28.7 -20.55L32.4 -18.15L32.9 -17.6L32.95 -17.55L33.05 -16.75L31.05 7.05L31 22.25L31.85 22.15L31.9 22.15L32.65 22.3L33.25 22.8L33.55 23.55L34.15 29.7Q34.2 30.2 33.85 30.7Q33.5 31.2 32.95 31.3L29.6 32L29.55 32L29.3 32L0 31.3Q-0.6 31.3 -1 30.9L-1.5 29.85L-2.15 1.5L-1.9 0.75L-1.9 0.7L-1.35 0.2L-1.35 0.15L5.4 -3.6Q5.8 -3.9 6.35 -3.8L17.9 -1.85L18.25 -6.1L14.35 -5.55L14.3 -5.55L14.05 -5.55L1.05 -6.15Q0.45 -6.15 0.05 -6.55Q-0.4 -7 -0.4 -7.6L-0.8 -20.35L-0.55 -21.15Q-0.35 -21.55 0.05 -21.7L0.8 -21.9M40.2,-19.4L52.8 -21.85L53.75 -21.7Q54.2 -21.55 54.45 -21.1L54.6 -20.2L50.65 16.5L55.85 18.5L61 -20.55L61.35 -21.3Q61.6 -21.7 62.05 -21.8L62 -21.75L62.85 -21.85L68.25 -20.8L68.6 -20.65L68.65 -20.65L75 -17.65L75.7 -17L75.75 -17L75.85 -16.05L69.05 19.7L69.05 19.75L66.85 35.85L66.85 35.9L66.75 36.2L66.75 36.25L65.2 39.45L65.2 39.5L64.8 40L64.75 40.05L64.2 40.3L64.15 40.3L56.95 41.9L56.9 41.9L56.5 41.9L41.85 40.5Q41.15 40.45 40.8 39.95L40.8 40Q40.4 39.5 40.45 38.95L40.8 34.35Q40.85 33.7 41.35 33.35L41.35 33.3Q41.75 32.9 42.4 32.9L54.95 33.6L55.25 31L38.8 24.9L38.75 24.9L38.05 24.3L37.8 23.4L39.05 -3.7L39 -17.95Q39 -18.5 39.35 -18.9L40.2 -19.4M39.75,-18.6L39.75 -18.55L39.5 -17.95L39.55 -3.7L38.3 23.4L38.5 24.05L38.45 24L38.95 24.45L55.6 30.65L55.7 30.75L55.75 30.9L55.4 33.9L55.3 34.05L55.15 34.1L42.4 33.4Q41.95 33.4 41.7 33.7L41.65 33.7Q41.35 33.95 41.3 34.4L40.95 39Q40.9 39.3 41.2 39.65L41.9 40L56.5 41.4L56.85 41.4L64.05 39.8L64.5 39.6L64.75 39.25L66.25 36.1L66.35 35.8L68.55 19.6L68.6 19.55L75.35 -16.1L75.35 -16.15L75.3 -16.8L75.3 -16.75L74.8 -17.2L68.4 -20.2L68.35 -20.25L68.2 -20.3L68.15 -20.3L62.7 -21.35L62.2 -21.3L61.75 -21L61.75 -20.95L61.5 -20.5L56.3 18.85L56.25 19L56.1 19.05L56 19.05L50.3 16.9L50.15 16.8L50.1 16.65L54.1 -20.25L54 -20.85L53.55 -21.25L52.9 -21.35L40.3 -18.9Q39.95 -18.85 39.75 -18.6M9.45,11.95L17.25 12.65L17.4 12.75L17.45 12.95L16.45 22.95L16.4 23.1L16.2 23.15L9.25 23.25L9.15 23.25L9.05 23.15L9 23L9.15 12.2L9.2 12.1L9.3 12L9.45 11.95M9.5,22.75L16 22.65L16.95 13.15L9.65 12.5L9.5 22.75M-48.55,-41.85L-32.5 -38.4Q-31.95 -38.35 -31.6 -37.85Q-31.3 -37.45 -31.3 -36.9L-31.85 -5.75L-31.65 1.45Q-31.65 2.05 -32 2.5L-37.05 8.15L-37.6 8.5L-38.15 8.6L-54.95 8.85L-53.05 30.5L-53.2 31.35L-53.85 31.95L-53.8 31.95L-54.7 32.1L-63.9 31.05Q-64.4 31 -64.75 30.65L-65.2 29.8L-72.5 -21.1L-72.55 -21.15L-75.75 -38.45L-75.75 -38.5L-75.65 -39.35L-75.15 -40L-74.35 -40.3L-48.9 -41.9L-48.5 -41.8L-48.55 -41.85M-48.85,-41.4L-74.3 -39.8L-74.85 -39.6L-75.2 -39.15L-75.25 -38.6L-72.05 -21.25L-64.7 29.75L-64.4 30.3L-63.85 30.55L-54.65 31.6L-54.05 31.5L-53.65 31.1L-53.55 30.55L-55.5 8.65L-55.45 8.5L-55.35 8.4L-55.25 8.35L-38.15 8.1L-37.8 8.05L-37.4 7.8L-32.35 2.2L-32.15 1.45L-32.35 -5.75L-31.8 -36.9L-32 -37.55L-32.55 -37.9L-32.6 -37.9L-48.65 -41.35L-48.85 -41.4M-49.2,-24.3L-49.1 -24.25L-49.05 -24.1L-47.5 -1.25L-47.5 -1.1L-47.6 -1L-47.75 -1L-56.15 -1.5L-56.3 -1.55L-56.4 -1.7L-57.65 -22.4L-57.6 -22.6L-57.45 -22.7L-49.35 -24.35L-49.2 -24.3M-49.5,-23.8L-57.1 -22.25L-55.9 -1.95L-48 -1.5L-49.5 -23.8M-8.15,-39.5L-8.8 -39.9L-30.05 -41.4L-30.6 -41.25L-30.65 -41.2L-31 -40.8L-31 -40.75L-31.1 -40.2L-28.65 -26.2L-28.65 -26.15L-28.3 -25.65L-27.7 -25.4L-22.8 -25.4L-22.6 -25.3L-22.55 -25.15L-20.6 1.7L-20.85 30.8L-20.7 31.3L-20.65 31.35L-20.3 31.7L-19.75 31.8L-6.55 30.9Q-6.25 30.85 -5.95 30.6L-5.65 30.05L-4.9 23.6Q-4.85 23.3 -4.95 23.05L-5.35 22.6L-5.3 22.65L-5.9 22.45L-9.5 22.45L-9.65 22.4L-9.75 22.2L-9.4 -13.45L-7.9 -38.8Q-7.85 -39.25 -8.1 -39.5L-8.15 -39.5M-7.4,-38.75L-8.9 -13.4L-9.25 21.95L-5.9 21.95Q-5.5 21.95 -5.05 22.2Q-4.7 22.45 -4.5 22.85L-4.4 23.65L-5.15 30.1Q-5.2 30.65 -5.6 31L-5.95 31.25L-6.5 31.4L-19.75 32.3L-20.5 32.15L-21.1 31.6L-21.1 31.55L-21.35 30.8L-21.1 1.7L-23 -24.9L-27.7 -24.9Q-28.25 -24.9 -28.65 -25.25Q-29.1 -25.65 -29.15 -26.1L-31.6 -40.1Q-31.7 -40.6 -31.45 -41L-30.9 -41.65L-30 -41.9L-8.75 -40.4Q-8.15 -40.35 -7.75 -39.85Q-7.35 -39.45 -7.4 -38.75" />
<path style="fill:#CCFF00;fill-opacity:1" d="M1,18.95L0.65 2.2L6.35 -1.05L19.05 1.15L19.75 1.05L20.25 0.65L20.5 0L20.55 -0.5L24.55 -0.05L28.95 -0.7L28.3 6.8L28.3 6.9L28.25 20.55Q22.1 23.35 18.65 23.85L19.8 11.9Q19.85 11.35 19.55 10.95L18.7 10.5L8.3 9.55L7.6 9.7L7.1 10.15L6.9 10.8L6.75 21.8Q3.9 20.7 1 18.95M3,-8.8L2.35 -8.85L2.35 -9.2L3 -8.8M47.85,16.7L42.55 16.45L40.9 16.55L41.8 -4.3L43.8 -4.55Q45.15 -4.55 49.9 -2.3L47.85 16.7M60.8,2.15Q64.1 2.95 67.3 2.95L69.45 2.8L66.55 18L66 17.95L58.8 17.45L60.8 2.15M-62.2,7.95L-65.55 8.4L-69.55 -19.45Q-68.3 -20.3 -66.65 -21.15Q-63 -23.05 -60 -23.7L-60 -23.4L-58.6 -0.5L-58.2 0.3L-57.4 0.65L-46.45 1.35L-45.8 1.2L-45.3 0.7L-45.15 0.05L-46.3 -17.35L-43.35 -14.3Q-38.65 -9.45 -34.6 -7L-34.4 1.05L-38.75 5.85L-56.65 6.1L-57.3 6.3L-57.75 6.8L-57.9 7.5L-57.7 9.35Q-61.2 7.95 -62.2 7.95M-16.9,18.2L-18.5 19.5L-18.35 1.6L-18.35 1.5L-19.05 -8.45L-18.35 -9.05Q-15 -11.85 -11.65 -12.9L-11.95 14.6Q-13.8 15.55 -16.9 18.2" />
<path style="fill:#76A100;fill-opacity:1" d="M6.75,21.8L6.7 24.25L6.9 24.9L7.35 25.35L8 25.5L17.4 25.4Q17.85 25.4 18.2 25.1L18.6 24.3L18.65 23.85Q22.1 23.35 28.25 20.55L28.25 23.9L28.45 24.6Q28.65 24.9 29 25.05L29.65 25.15L30.95 25.05L31.3 28.8L29.2 29.25L1.25 28.6L1 18.95Q3.9 20.7 6.75 21.8M58.8,17.45L66 17.95L66.55 18L66.35 19.2L66.3 19.25L64.15 35.3L62.95 37.7L56.55 39.15L43.3 37.9L43.45 35.75L56.2 36.4L57.05 36.1Q57.45 35.8 57.5 35.3L58.1 30.15L57.95 29.35L57.3 28.85L40.6 22.6L40.9 16.55L42.55 16.45L47.85 16.7L47.75 17.35Q47.7 17.75 47.95 18.1L48.6 18.65L56.7 21.7L57.4 21.75L58.05 21.35L58.35 20.7L58.8 17.45M-11.95,14.6L-12.05 23.45Q-12.05 23.95 -11.65 24.35Q-11.3 24.7 -10.8 24.7L-7.3 24.7L-7.75 28.75L-18.6 29.45L-18.5 19.5L-16.9 18.2Q-13.8 15.55 -11.95 14.6M-57.7,9.35L-55.95 29.2L-62.65 28.4L-65.55 8.4L-62.2 7.95Q-61.2 7.95 -57.7 9.35" />
<path style="fill:#0000FF;fill-opacity:0" d="M80,-40L80 40L-80 40L-80 -40L80 -40" />
</g>
</svg>
