<svg width="35" height="35" xmlns="http://www.w3.org/2000/svg">

 <g>
  <title>background</title>
  <rect fill="none" id="canvas_background" height="37" width="37" y="-1" x="-1"/>
 </g>
 <g>
  <title>Layer 1</title>
  <path  id="svg_1" d="m35.274576,5.002709c-0.160534,-4.862184 -3.456472,-4.784169 -4.622284,-4.81744c-1.166366,-0.033271 -15.499874,-0.227162 -19.545341,-0.127922c-4.046574,0.099814 -9.017605,-0.655672 -10.373844,1.380755c-0.956564,1.43353 -0.716316,25.126639 -0.67978,28.394674c0.037643,3.268035 1.422667,4.468666 3.579917,4.83006s24.999083,0.413022 28.38027,0.208805s3.107171,-2.403557 3.298152,-3.301306c0.190981,-0.897175 0.123999,-21.704868 -0.037643,-26.567052l0.000554,-0.000574zm-2.181607,26.934183c-0.20482,-0.134806 -3.290955,-6.284241 -3.624203,-6.292846c-0.333247,-0.010326 -1.053991,0.441704 -0.891243,0.575936c0.163856,0.133658 3.783076,6.59917 3.572721,6.678906c-0.210355,0.08031 -1.584309,-0.001721 -1.708308,-0.048186c-0.123999,-0.045891 -2.745692,-4.850138 -2.911762,-4.854727c-0.167177,-0.004589 -1.009153,0.315503 -0.848618,0.534634c0.161642,0.219705 2.798281,4.464651 2.509319,4.371147c-0.289516,-0.094651 -1.908145,-0.355658 -1.908145,-0.355658s-1.501827,-3.051772 -1.668451,-3.057508c-0.16607,-0.004015 -0.961546,0.102108 -0.844743,0.406138c0.116249,0.30403 1.758682,2.801664 1.38281,2.833788c-0.376426,0.032124 -1.956306,-0.098666 -2.079197,-0.188154c-0.122892,-0.089488 -1.071706,-2.007745 -1.195705,-2.01176c-0.12566,-0.003442 -0.745655,-0.193317 -0.793261,0.020651c-0.047607,0.213395 1.44481,2.061667 0.732369,2.213108c-0.712441,0.151441 -11.178177,0.282805 -14.679488,0.269611c-3.500757,-0.014341 -4.539249,-0.130217 -5.184708,-0.965438s-0.587888,-2.940486 -0.66262,-7.929445c-0.073071,-4.989533 -0.451711,-20.389509 0.290069,-21.658403c0.641031,-1.093934 28.748392,-1.070988 29.883204,0.122186c1.134812,1.193174 0.500425,18.627856 0.381961,18.409872c-0.11957,-0.217984 -1.113777,-2.009466 -1.238883,-2.013481c-0.125106,-0.002868 -0.768351,0.666571 -0.608924,0.929299c0.160534,0.262154 2.083626,3.15388 2.117947,3.413166c0.035428,0.258139 0.080821,3.226159 -0.042071,3.136671c-0.122892,-0.089488 -2.07034,-3.627134 -2.23641,-3.63115c-0.167177,-0.005736 -0.730708,0.795641 -0.611138,1.013624c0.119017,0.217984 2.880209,4.509968 2.952726,4.898897c0.073624,0.388929 0.120678,3.313353 -0.084142,3.177973l-0.001107,0.001147zm-17.525929,-24.143418c-1.439274,-0.728525 -3.147582,-0.738276 -4.372072,-0.167503c-1.478024,0.68837 -1.461417,1.634878 -1.61254,2.619246c-0.151124,0.984369 0.027678,12.983225 0.439532,14.713901c0.411854,1.732397 3.075618,1.893016 5.314243,0.797361c2.238625,-1.097376 10.574789,-7.308191 10.526075,-10.145995c-0.049821,-2.839525 -8.855964,-7.087913 -10.295238,-7.817011zm0.689744,14.679482c-1.957413,1.491468 -3.186885,2.272767 -3.75872,1.826474c-0.571281,-0.446293 -1.202347,-14.220569 -0.304462,-15.054644c0.695834,-0.646494 3.489132,0.443425 6.854266,2.431092c3.36458,1.987667 4.699783,3.487739 4.683176,4.088342s-5.516848,5.216695 -7.474261,6.708736zm-11.863493,-17.664712c-0.176034,0.338448 -0.184338,5.325113 -0.149463,5.583825c0.034321,0.258139 0.953796,0.15603 1.208437,-0.008605c0.254641,-0.164635 0.075285,-4.38262 0.16607,-4.680914c0.091892,-0.298294 1.671772,-0.12448 1.965163,-0.201922c0.29339,-0.076868 0.189873,-0.853578 -0.014946,-0.988384c-0.20482,-0.134232 -2.923941,-0.189302 -3.175814,0.296573l0.000554,-0.000574z"/>
 </g>
</svg>