<?xml version="1.0" encoding="utf-8"?>
<svg version="1.1" id="Layer_1"
xmlns="http://www.w3.org/2000/svg"
xmlns:xlink="http://www.w3.org/1999/xlink"
xmlns:author="http://www.sothink.com"
width="25px" height="24px"
xml:space="preserve">
<g id="170" transform="matrix(1, 0, 0, 1, 12.05, 11.9)">
<path style="fill:#000000;fill-opacity:1" d="M9.25,-5.6Q11.1 -3.05 10.75 0.3Q10.45 3.5 9.55 5.15L8.55 6.5Q6.95 8.2 4.25 8.55L5.9 8.8Q7.3 8.8 8.4 8.05L10 6.35Q11.8 3.7 11.8 0.05Q11.8 -3.6 10 -6.25L8.4 -7.95Q7.3 -8.8 5.9 -8.8Q4.5 -8.8 3.3 -7.85L5.15 -7.95Q7.05 -8.1 8.55 -6.4L9.25 -5.6M10.25,-6.45Q12.1 -3.75 12.1 0.05Q12.1 3.85 10.25 6.55L8.55 8.35L8.55 8.25L7.05 9.05L5.9 9.2Q4.65 9.2 3.55 8.55L3.55 8.35L3.55 8.2L3.7 8.2Q6.6 8.05 8.4 6.25L9.25 5L9.25 4.9Q9.85 4 10.15 2.5L10.15 2.45L10.45 0.3L10.45 -1.05L10.15 -2.9L9.05 -5.3L8.4 -6.15Q6.9 -7.8 5.2 -7.65L2.85 -7.5L2.75 -7.6L2.7 -7.65L2.7 -7.7L2.75 -7.8L3.4 -8.4L4.35 -8.8L5.9 -9.05Q7.3 -9.05 8.55 -8.25L10.25 -6.45M-11.25,-4.75L-6.65 -4.95L-6.4 -4.9L-6.25 -4.75L-6.05 -4.8L-5.7 -4.65L-5.55 -4.3L-5.55 -4.05L-5.55 4.65L-5.7 5L-6.05 5.15L-6.1 5.15L-6.3 5.35Q-6.45 5.55 -6.75 5.55L-10.85 5.65L-11.4 5.4L-11.6 4.9L-12.05 -3.9L-11.9 -4.4Q-11.75 -4.75 -11.25 -4.75M-10.2,4.5L-7.1 4.4L-7.1 -3.05L-7.1 -3.75L-10.9 -3.6L-10.55 4.5L-10.2 4.5M-4.05,4.3L-4.05 4.8L1.15 10.3L1 -8.15L0.95 -10.2L-4.05 -4.15L-4.05 -3.5L-4.05 4.3M-4.9,-4.9L0.5 -11.4Q0.55 -11.75 1 -11.85L1.15 -11.9L1.7 -11.7L1.8 -11.6L1.95 -11.45L2 -11.2L2.3 11.05L2.15 11.6Q2 11.95 1.5 11.95L1 11.7L-4.9 5.4L-5.05 5.05L-5.05 -4.6L-4.9 -4.9M3,-3.3L2.85 -3.4L2.85 -3.45L2.9 -3.6Q3.7 -4.9 4.85 -4.9Q5.7 -4.9 6.25 -4.4L7.05 -3.3Q7.9 -1.85 7.9 0.3Q7.9 2.35 7.05 3.85Q6.1 5.35 4.85 5.35L3.55 5L3.2 4.65L3.2 4.4L3.3 4.35L3.35 4.2L3.55 4.2Q4.7 4.2 5.55 3.15Q6.25 2 6.25 0.45Q6.25 -1.05 5.55 -2.25Q4.7 -3.4 3.55 -3.4L3.05 -3.3L3 -3.3M3.55,-3.75Q4.75 -3.75 5.7 -2.55Q6.55 -1.25 6.55 0.45Q6.55 2.2 5.7 3.4Q4.9 4.55 3.85 4.65Q4.35 5 4.85 5Q5.95 5 6.75 3.65Q7.6 2.2 7.6 0.3Q7.6 -1.7 6.75 -3.1Q5.95 -4.45 4.85 -4.45Q4 -4.45 3.4 -3.75L3.55 -3.75" />
<path style="fill:#1E1E1E;fill-opacity:1" d="M8.55,-6.4Q7.05 -8.1 5.15 -7.95L3.3 -7.85Q4.5 -8.8 5.9 -8.8Q7.3 -8.8 8.4 -7.95L10 -6.25Q11.8 -3.6 11.8 0.05Q11.8 3.7 10 6.35L8.4 8.05Q7.3 8.8 5.9 8.8L4.25 8.55Q6.95 8.2 8.55 6.5L9.55 5.15Q10.45 3.5 10.75 0.3Q11.1 -3.05 9.25 -5.6L8.55 -6.4M-7.1,-3.05L-7.1 4.4L-10.2 4.5L-10.25 4.05L-9.35 4.05L-7.75 4L-7.7 2.05L-7.85 -2.4L-7.75 -2.9L-7.1 -3.05M-0.75,6.9L0.6 8.1L0.6 7.75L0.6 7.25L0.6 4.4L0.45 -0.6L0.3 -3.45L0.2 -5.25L0.2 -7.5L1 -8.15L1.15 10.3L-4.05 4.8L-4.05 4.3L-0.75 6.9M3.4,-3.75Q4 -4.45 4.85 -4.45Q5.95 -4.45 6.75 -3.1Q7.6 -1.7 7.6 0.3Q7.6 2.2 6.75 3.65Q5.95 5 4.85 5Q4.35 5 3.85 4.65Q4.9 4.55 5.7 3.4Q6.55 2.2 6.55 0.45Q6.55 -1.25 5.7 -2.55Q4.75 -3.75 3.55 -3.75L3.4 -3.75" />
<path style="fill:#FFFFFF;fill-opacity:1" d="M-10.55,4.5L-10.9 -3.6L-7.1 -3.75L-7.1 -3.05L-7.75 -2.9L-9.25 -2.9L-10.45 -2.9L-10.25 2.3L-10.25 4.05L-10.2 4.5L-10.55 4.5M0.2,-7.5L-4.05 -3.5L-4.05 -4.15L0.95 -10.2L1 -8.15L0.2 -7.5" />
<path style="fill:#3A3A3A;fill-opacity:1" d="M-10.25,2.3L-10.45 -2.9L-9.25 -2.9L-7.75 -2.9L-7.85 -2.4L-7.7 2.05L-7.75 4L-9.35 4.05L-10.25 4.05L-10.25 2.3M-4.05,4.3L-4.05 -3.5L0.2 -7.5L0.2 -5.25L0.3 -3.45L0.45 -0.6L0.6 4.4L0.6 7.25L0.6 7.75L0.6 8.1L-0.75 6.9L-4.05 4.3M0,-3.3L0 -3.8L0.15 -5.45L-3.75 -1.85Q-3.2 -1.95 -1.35 -2.75L0 -3.3M0,4.15Q-0.5 3.85 -1.55 3.5L-3.45 2.65L0.1 5.65L0.1 4.15L0 4.15" />
<path style="fill:#252525;fill-opacity:1" d="M-1.35,-2.75Q-3.2 -1.95 -3.75 -1.85L0.15 -5.45L0 -3.8L0 -3.3L-1.35 -2.75M0.1,4.15L0.1 5.65L-3.45 2.65L-1.55 3.5Q-0.5 3.85 0 4.15L0.1 4.15" />
</g>
</svg>
