<?xml version="1.0" encoding="utf-8"?>
<svg version="1.1" id="Layer_1"
xmlns="http://www.w3.org/2000/svg"
xmlns:xlink="http://www.w3.org/1999/xlink"
xmlns:author="http://www.sothink.com"
width="21px" height="21px"
xml:space="preserve">
<g id="13" transform="matrix(1, 0, 0, 1, 10.5, 10.45)">
<path style="fill:#000000;fill-opacity:1" d="M-4.8,9L-4.75 9L-1.7 9.45L-1.6 9.45L4.7 9Q8.5 8.3 9.05 5.25L9.1 5.2Q9.75 2.6 9.45 -1.15L9.2 -3.1L9.05 -3.95L9.05 -4Q8.8 -5.95 7.9 -7.1L6.45 -8.25L4.75 -8.8L4.7 -8.8L2.05 -9.35Q-1.35 -9.75 -4.7 -8.8L-4.75 -8.8Q-8.6 -7.95 -9.05 -4.75Q-9.55 -2.35 -9.4 0.7L-9.05 4.45Q-8.9 6 -8.25 7Q-7.6 8 -8.15 7.05Q-5.75 8.9 -4.8 9M9.4,-6.55L9.65 -5.95L10.05 -4.1Q11 1.75 10.05 5.45L10.05 5.4Q9.5 9.2 4.9 10Q-0.05 11.05 -4.95 10L-6.6 9.6Q-8.5 8.85 -9.35 7.05Q-9.9 6 -10.05 4.55Q-10.9 -1.05 -10.05 -4.95Q-9.5 -8.75 -4.95 -9.8L-4.95 -9.75Q-0.05 -11.15 4.95 -9.75L4.9 -9.8L7.05 -9.1Q8.6 -8.25 9.4 -6.55" />
<path style="fill:#69665A;fill-opacity:1" d="M7.9,-7.1Q8.25 -5.6 8.25 -3Q8.25 3.55 6 5.75Q3.65 8 -3.25 8L-4.05 7.9L-4.25 7.85L-4.4 7.8L-4.5 7.8L-6.25 7.25L-7.3 6.9Q-8.05 3.85 -7.85 2.85Q-7.65 1.85 -7.55 -0.75Q-7.5 -3.4 -4.75 -5.95Q-2.05 -8.5 2 -8.5L5.9 -8.35L6.45 -8.25L7.9 -7.1M0.5,-5.15L-0.65 -4.55L-0.7 -4.6L-1.25 -4.75Q-3.55 -4.75 -6 -0.1Q-6 2.55 -4.35 4.45L-3.5 5.25Q-1.4 7 0.85 7Q3.2 7 5 3.75L5.7 2.35Q6.5 0.55 6.5 -0.85Q6.5 -5.05 2.7 -5.25L2.25 -5.25L0.5 -5.15" />
<path style="fill:#BDBAAF;fill-opacity:1" d="M-8.15,7.05Q-7.6 8 -8.25 7Q-8.9 6 -9.05 4.45L-9.4 0.7Q-9.55 -2.35 -9.05 -4.75Q-8.6 -7.95 -4.75 -8.8L-4.7 -8.8Q-1.35 -9.75 2.05 -9.35L4.7 -8.8L4.75 -8.8L6.45 -8.25L5.9 -8.35L2 -8.5Q-2.05 -8.5 -4.75 -5.95Q-7.5 -3.4 -7.55 -0.75Q-7.65 1.85 -7.85 2.85Q-8.05 3.85 -7.3 6.9Q-6.55 7.8 -8.15 7.05" />
<path style="fill:#625F53;fill-opacity:1" d="M3.75,-4.75Q4.1 -3.95 3.4 -3.3Q2.8 -2.75 2.1 -2.75L1.1 -2.9Q0.75 -3.05 0.5 -3.65L0.6 -4L1.05 -4.5Q1.7 -5 2.6 -5L3.75 -4.75M3.5,0.5L4.75 0.5L4.75 2Q4.55 1.9 4 3L2.25 3L2.25 1.5Q2.65 1.1 3.05 1.05Q2.9 1 3.1 0.85L3.5 0.5M1.1,3.15Q1.65 4.25 -0.25 4.25Q-2.15 4.25 -2.9 3.35L-3.75 2.25L-3.55 1L-3.55 0.95L-3.5 0.4Q-3.35 0.25 -1.1 -0.6Q1.1 -1.45 0.8 0.3Q0.5 2 1.1 3.15" />
<path style="fill:#6D6A5C;fill-opacity:1" d="M2.6,-5Q1.7 -5 1.05 -4.5L0.6 -4L0.5 -3.65Q0.75 -3.05 1.1 -2.9L2.1 -2.75Q2.8 -2.75 3.4 -3.3Q4.1 -3.95 3.75 -4.75L2.6 -5M2.25,-5.25L2.7 -5.25Q6.5 -5.05 6.5 -0.85Q6.5 0.55 5.7 2.35L5 3.75Q3.2 7 0.85 7Q-1.4 7 -3.5 5.25L-4.35 4.45Q-6 2.55 -6 -0.1Q-3.55 -4.75 -1.25 -4.75L-0.7 -4.6L-0.65 -4.55L0.5 -5.15L2.25 -5.25M3.1,0.85Q2.9 1 3.05 1.05Q2.65 1.1 2.25 1.5L2.25 3L4 3Q4.55 1.9 4.75 2L4.75 0.5L3.5 0.5L3.1 0.85M0.8,0.3Q1.1 -1.45 -1.1 -0.6Q-3.35 0.25 -3.5 0.4L-3.55 0.95L-3.55 1L-3.75 2.25L-2.9 3.35Q-2.15 4.25 -0.25 4.25Q1.65 4.25 1.1 3.15Q0.5 2 0.8 0.3" />
<path style="fill:#3A382E;fill-opacity:1" d="M-8.15,7.05Q-6.55 7.8 -7.3 6.9L-6.25 7.25L-4.5 7.8L-4.4 7.8L-4.25 7.85L-4.05 7.9L-3.25 8Q3.65 8 6 5.75Q8.25 3.55 8.25 -3Q8.25 -5.6 7.9 -7.1Q8.8 -5.95 9.05 -4L9.05 -3.95L9.2 -3.1L9.45 -1.15Q9.75 2.6 9.1 5.2L9.05 5.25Q8.5 8.3 4.7 9L-1.6 9.45L-1.7 9.45L-4.75 9L-4.8 9Q-5.75 8.9 -8.15 7.05" />
</g>
</svg>
