<?xml version="1.0" encoding="utf-8"?>
<svg version="1.1" id="Layer_1"
xmlns="http://www.w3.org/2000/svg"
xmlns:xlink="http://www.w3.org/1999/xlink"
xmlns:author="http://www.sothink.com"
width="20px" height="19px"
xml:space="preserve">
<g id="11" transform="matrix(1, 0, 0, 1, 9.2, 9.55)">
<path style="fill:#000000;fill-opacity:1" d="M-5.3,5.85L-5.05 6.1L-4.85 6.15L-4.35 6.15Q-4.15 6.2 -4.05 6.35L-3.25 6.55L-2.65 6.75L-1.85 7.2L-2.3 6.65L-2.35 6.8L-2.5 6.55L-2.65 6.1L-2.7 6.1L-2.65 6.05L-2.85 5.3L-2.8 5.3L-2.7 5.1L-2.75 4.9L-2.95 3.75Q-3.2 2.4 -1.65 0.65L-1.1 0.1L-0.45 -0.55Q0.45 -1.35 1.5 -1.8L1.6 -1.8L3.9 -2.35L5.05 -2.4L5.85 -2.5L6.95 -2.55L7.15 -2.6L8.05 -2.4L7.7 -3L8.7 -1.9L7.9 -4.35L7.8 -4.7Q7 -6.6 4 -7.5L1.45 -7.9L1.4 -7.9L-0.55 -8.05L-1.65 -7.95L-1.95 -8.05Q-2 -7.95 -2.15 -7.95L-2.6 -7.95L-2.7 -7.85Q-2.85 -7.75 -2.95 -7.75L-4.35 -7.3Q-5.6 -6.85 -6.4 -5.9L-6.5 -5.9L-6.9 -5.3L-7.15 -5.05Q-7.1 -4.95 -7.2 -4.85L-7.65 -3.75L-8.05 -1.85L-8.25 -1.3L-8.3 -1.2L-8.15 -0.75L-8.2 -0.45Q-8.25 2.1 -7.55 4L-7.2 4.55Q-6.6 5.45 -5.3 5.85M9.8,4.3L9.8 4.65L9.8 4.75L9.7 4.85L9.6 4.8Q9.3 5.4 9.25 6.1Q7.95 8.4 5.55 9.2L3.9 9.45Q1.95 9.55 0.4 8.9L-0.05 8.75Q-3.75 7.95 -4.95 7.4Q-6.65 6.75 -7.5 5.95Q-8.35 5.35 -8.75 3.8Q-9.15 2.15 -9.05 1.05L-9.2 -0.15L-9.2 -0.4L-9.2 -0.95L-9.2 -1.95Q-9.25 -3.1 -8.8 -4.45L-8.55 -5.1L-8.1 -5.95L-8.15 -6.05L-7.9 -6.25L-7.55 -6.8L-6.85 -7.3Q-5.8 -8.05 -3.4 -8.8L-3.05 -8.9L-2.7 -9.05L-1.45 -9.5L-0.05 -9.55L0.85 -9.55L0.9 -9.4L1.35 -9.55L2.8 -9.25L3.4 -9.2Q7.95 -8.1 8.95 -5.2L9 -5.1Q10.35 -1.8 10.1 -0.25L9.95 0.45L10 0.65L9.95 0.75L10.25 3L10.05 4.35L9.8 4.3M6.2,-1.4L6.1 -1.4L4.4 -1.25L4.25 -1.2L2.8 -0.7L2.45 -0.65Q0.9 0 -0.2 1.25L-1.1 2.15Q-1.8 2.95 -1.85 3.7L-1.6 4.5L-1.6 4.75L-1.35 5.1L-1.35 5.35L-0.25 6.9L0.05 6.95Q1.5 8.05 3.75 7.95L5.2 7.75Q7.1 7.2 8.2 5L8.25 5.05L8.6 4L8.95 3.55L8.95 3.45L9 2.05L8.9 1.05L8.7 0.1Q8.25 -1.2 7.85 -1.4L7.5 -1.5L7.2 -1.4L6.75 -1.4L6.2 -1.4M-1.65,7.25L-1.2 7.55L-1.65 7.2L-1.65 7.25M-1.3,7.8L-1.05 7.9L-1.1 7.8L-1.45 7.75L-1.35 7.8L-1.3 7.8" />
<path style="fill:#C6C6C6;fill-opacity:1" d="M-1.35,5.35L-1.35 5.1L-1.6 4.75L-1.6 4.5L-1.85 3.7Q-1.8 2.95 -1.1 2.15L-0.2 1.25Q0.9 0 2.45 -0.65L2.8 -0.7Q3 -0.55 3.35 -0.4L3.6 0L3.55 0L2.75 0.4Q2 0.7 1.45 1.55L1.75 1.7L4 1.15Q4.05 1.95 3.45 2.8L2.2 3.95Q0.6 5 -1.35 5.35" />
<path style="fill:#797979;fill-opacity:1" d="M-5.9,-4.6L-5.15 -4.7Q-5.2 -4.1 -5.5 -3.6L-5.55 -3.5L-6.15 -2.35L-6.15 -2.25L-6.9 -2.2L-7.15 -2.25Q-7.1 -3.45 -6.35 -4.3L-5.9 -4.6M-0.1,-3.55Q-0.65 -3.8 -0.85 -3.3L-0.85 -3.2L-1.2 -2.8L-1.25 -3.05Q-1.4 -3.5 -1 -4L-0.95 -4.05Q-0.1 -4.95 0.65 -4.6L0.95 -4.35L0.85 -3.8Q0.7 -3.4 0.05 -3.5L-0.1 -3.55M4,1.15L1.75 1.7L1.45 1.55Q2 0.7 2.75 0.4L3.55 0L3.6 0L3.85 0.45L3.9 1L4.1 1L4 1.15M2.45,5.05Q2.4 4.55 2.85 4.55L3.45 5.25Q3.85 5.35 3.4 5.7Q2.55 5.75 2.45 5.05" />
<path style="fill:#999999;fill-opacity:1" d="M2.2,3.95L3.45 2.8Q4.05 1.95 4 1.15L4.1 1L3.9 1L3.85 0.45L3.6 0L3.35 -0.4Q3 -0.55 2.8 -0.7L4.25 -1.2L4.4 -1.25L6.1 -1.4L6.2 -1.4L6.75 -1.4L6.85 -1.25L7.3 0.1L7.35 0.45Q7.55 2.4 6.1 4.55Q5 6.25 3.45 6.85L1.9 7.3L0.05 6.95L-0.25 6.9L-1.35 5.35Q0.6 5 2.2 3.95M3.4,5.7Q3.85 5.35 3.45 5.25L2.85 4.55Q2.4 4.55 2.45 5.05Q2.55 5.75 3.4 5.7" />
<path style="fill:#626262;fill-opacity:1" d="M1.9,7.3L3.45 6.85Q5 6.25 6.1 4.55Q7.55 2.4 7.35 0.45L7.3 0.1L6.85 -1.25L6.75 -1.4L7.2 -1.4L7.5 -1.5L7.85 -1.4Q8.25 -1.2 8.7 0.1L8.9 1.05L9 2.05L8.95 3.45L8.95 3.55L8.6 4L8.25 5.05L8.2 5Q7.1 7.2 5.2 7.75L3.75 7.95Q1.5 8.05 0.05 6.95L1.9 7.3" />
<path style="fill:#4D4D4D;fill-opacity:1" d="M-3.35,1.3Q-2.6 0.35 -1.55 -0.45Q-0.35 -1.3 1.25 -1.95L1.5 -2Q4.8 -3.2 6.95 -2.55L5.85 -2.5L5.05 -2.4L3.9 -2.35L1.6 -1.8L1.5 -1.8Q0.45 -1.35 -0.45 -0.55L-1.1 0.1L-1.65 0.65Q-3.2 2.4 -2.95 3.75L-2.75 4.9L-2.7 5.1L-2.8 5.3L-2.85 5.3L-2.65 6.05L-2.7 6.1L-2.75 6.1L-2.5 6.55L-2.35 6.8L-2.3 6.65L-1.85 7.2L-2.65 6.75L-3.25 6.55L-4.05 6.35Q-4.15 6.2 -4.35 6.15Q-5 3.65 -3.35 1.3M9.8,4.65L9.8 4.3L10.05 4.35L9.8 4.65M-1.65,7.2L-1.2 7.55L-1.65 7.25L-1.65 7.2M-1.35,7.8L-1.45 7.75L-1.1 7.8L-1.05 7.9L-1.3 7.8L-1.35 7.8" />
<path style="fill:#858585;fill-opacity:1" d="M-4.35,6.15L-4.85 6.15L-5.05 6.1L-5.3 5.85Q-6.6 5.45 -7.2 4.55Q-5.95 0.35 -5.2 -1.05L-4.9 -1.65L-4.2 -2.8L-3.35 -3.7L-1.6 -4.95L-1.05 -5.1Q0.5 -5.7 2.25 -5.8L3.55 -5.6Q5.5 -5.45 7.7 -4.55L7.8 -4.7L7.9 -4.35L8.7 -1.9L7.7 -3L8.05 -2.4L7.15 -2.6L6.95 -2.55Q4.8 -3.2 1.5 -2L1.25 -1.95Q-0.35 -1.3 -1.55 -0.45Q-2.6 0.35 -3.35 1.3Q-5 3.65 -4.35 6.15M0.05,-3.5Q0.7 -3.4 0.85 -3.8L0.95 -4.35L0.65 -4.6Q-0.1 -4.95 -0.95 -4.05L-1 -4Q-1.4 -3.5 -1.25 -3.05L-1.2 -2.8L-0.85 -3.2L-0.85 -3.3Q-0.65 -3.8 -0.1 -3.55L0.05 -3.5" />
<path style="fill:#434343;fill-opacity:1" d="M-7.05,9.05L-7.1 9.05L-7.35 8.95L-7.1 8.95L-7.05 9.05" />
<path style="fill:#ADADAD;fill-opacity:1" d="M7.7,-4.55Q5.5 -5.45 3.55 -5.6L2.25 -5.8Q0.5 -5.7 -1.05 -5.1L-1.6 -4.95L-3.35 -3.7L-4.2 -2.8L-4.9 -1.65L-5.2 -1.05Q-5.95 0.35 -7.2 4.55L-7.55 4Q-8.25 2.1 -8.2 -0.45L-8.15 -0.75L-8.3 -1.2L-8.25 -1.3L-8.05 -1.85L-7.65 -3.75L-7.2 -4.85Q-7.1 -4.95 -7.15 -5.05L-6.9 -5.3L-6.5 -5.9L-6.4 -5.9Q-5.6 -6.85 -4.35 -7.3L-2.95 -7.75Q-2.85 -7.75 -2.7 -7.85L-2.6 -7.95L-2.15 -7.95Q-2 -7.95 -1.95 -8.05L-1.65 -7.95L-0.55 -8.05L1.4 -7.9L1.45 -7.9L4 -7.5Q7 -6.6 7.8 -4.7L7.7 -4.55M-6.35,-4.3Q-7.1 -3.45 -7.15 -2.25L-6.9 -2.2L-6.15 -2.25L-6.15 -2.35L-5.55 -3.5L-5.5 -3.6Q-5.2 -4.1 -5.15 -4.7L-5.9 -4.6L-6.35 -4.3" />
</g>
</svg>
