<?xml version="1.0" encoding="utf-8"?>
<svg version="1.1" id="Layer_1"
xmlns="http://www.w3.org/2000/svg"
xmlns:xlink="http://www.w3.org/1999/xlink"
xmlns:author="http://www.sothink.com"
width="20px" height="20px"
xml:space="preserve">
<g id="9" transform="matrix(1, 0, 0, 1, 10, 10)">
<path style="fill:#000000;fill-opacity:1" d="M-7.2,6.5L-7.1 6.15L-7.05 5.85L-7.05 5.8L-6.95 5.7L-6.8 5.65L-6.6 5.75L-6.55 5.95L-6.45 6L-6.35 6.05L-6.1 6.15L-5.95 6.3L-5.85 6.35L-5.5 6.4L-5.3 6.4L-5.1 6.2L-4.85 5.6L-4.95 5.3L-5 5.05L-5.05 4.75L-5.15 4.55L-5.35 4.35L-5.45 4.2L-6.75 3.2L-6.85 3L-5.95 3.45Q-4.9 4 -4.8 4.2L-4.35 4.8L-4.9 3.9L-4.25 4.75L-3.8 5.6L-3.85 5.95L-3.85 6L-4 6.4L-3.95 6.4L-3.8 6.3L-3.6 6.3L-3.3 6.1L-3.15 6.1L-3 6.15L-2.85 6.2L-2.6 6.35L-2.55 6.35L-2 6.4L-0.6 6.45L-0.4 6.45L-0.3 6.5L-0.1 6.7L0 7L0 7.05L0 7.15L0 7.3L0.65 7.4Q1.1 7.35 1.4 7.1L1.4 7.05L1.5 7L1.8 6.9Q2 6.9 2.15 7.05L2.35 7.35L2.5 7.85Q2.7 8.4 3.25 8.4L3.3 8.4L3.75 8.25L3.75 8.2L4.2 8L3.85 7.15L3.8 6.85L3.8 6.75L4 6.45L4.25 6.35L4.25 6.1L4.25 5.6L4.35 5.6L4.4 5.5L4.7 5.4L5 5.45L5.05 5.5L5.5 5.75L5.75 5.8L5.8 5.8L6.05 5.8L6.1 5.8L6.3 5.65L6.55 5.35L6.55 5.3L6.55 4.95L6.5 4.7L6.45 4.55L6.35 4.4L6.35 4.25L6.2 3.95L6.05 3.7L6.05 3.6L6.05 3.55L6.1 3.35L6.1 3.3L6.3 3.1L6.6 3.05L6.85 3.1L7 3.1L7.25 3.2L7.3 3.2L7.65 3.2L8.75 3L8.9 2.65L8.9 2.6Q8.9 1.9 8.4 1.5L8.25 1.35L8.2 1.3L8.15 1.3L7.75 1.1L7.55 1L7.25 0.95L7.15 0.95L7.05 1L6.85 1L6.75 1L6.7 1L6.5 0.8L6.35 0.65L6.35 0.5L6.25 0.35L6.2 0.1L6.2 0L6.25 -0.15L6.25 -0.25L6.3 -0.35L6.45 -0.6L6.45 -0.7L6.55 -1.1L6.55 -2.6L6.55 -2.8L6.55 -2.9L6.6 -2.95L6.65 -3.1L6.7 -3.15L6.75 -3.2L7.05 -3.25L7.1 -3.25L7.3 -3.25L7.45 -3.95L7.25 -4.5L7.15 -4.75L7.1 -4.75L7.05 -4.85L7 -5.1L7.1 -5.45L7.25 -5.6L7.4 -5.65L7.9 -5.8L8.05 -5.95Q8.4 -6.2 8.4 -6.6L8.4 -6.65L8.25 -7.15L8.2 -7.15L8.05 -7.5L7.5 -7.4L7.25 -7.15L7.15 -7.05L7.05 -6.95L7 -6.9L6.85 -6.6L6.2 -6.2L5.35 -6.05L5.5 -5.95L5.35 -5.95L4.6 -6.1L4.5 -6.2L4.25 -6.4L4.1 -6.9L3.85 -7.7L3.7 -7.75L3.6 -7.95L3.6 -8.15L3.8 -8.3L4.6 -8.55L6 -8.85L6.35 -8.85L6.45 -8.85L6.5 -8.8L6.6 -8.75L6.7 -8.7L6.75 -8.65L6.8 -8.65L7 -8.55L7.15 -8.45L7.5 -8.45L7.45 -8.7L7.4 -10L8.2 -10L8.25 -8.75L8.2 -8.45L9.1 -7.85L9.15 -7.75L9.2 -7.6L9.45 -6.65L9.4 -5.95L9.15 -5.45Q8.9 -5 8.25 -4.85L8.5 -4Q8.55 -3.2 8.2 -2.65L8.2 -2.7L7.65 -2.25L7.55 -0.8L8.1 -0.1L8.15 0.1L9.05 0.65L9.1 0.65L9.15 0.75Q10 1.5 10 2.6Q10.05 3.45 9.3 3.95L9.15 3.95L8.1 4.2L8.1 4.55L8.05 4.65Q7.95 5.45 7.3 6L7.05 6.4L7 6.45L6.95 6.65L6.85 6.8L6.65 7.1L6.65 7.15Q6.15 7.75 5.35 7.75L5.2 7.75L5.2 8Q5.25 8.8 4.35 9.2L4.2 9.25L3.3 9.5L2.15 9.2L1.45 8.25L0.75 8.5L-0.55 8.2L-0.5 8.2L-1 7.65L-2.9 7.35L-3.05 7.3Q-3.1 8.25 -3.8 9.1L-3.8 9.15L-3.85 9.2Q-4.55 10 -5.7 10Q-6.55 10.1 -6.95 9.3L-7 9.2L-7.3 8.35L-7.05 7.4L-10 7.4L-10 6.5L-7.2 6.5M-8.3,-8.75L-8.35 -8.45L-8.4 -8.35L-8.5 -8.15L-8.65 -8L-8.7 -7.85L-8.8 -7.45L-8.8 -7.25L-8.6 -7.05Q-8.3 -6.75 -7.95 -6.75Q-7.85 -6.75 -7.7 -6.9L-7.5 -6.95L-7.3 -7Q-7.2 -7 -7 -7.15L-6.85 -7.3L-6.7 -7.4L-6.3 -8L-5.7 -8.8L-5.5 -8.85L-5.95 -8L-6.7 -6.7L-7.35 -6.25L-6.4 -6.8L-7 -6.3L-7.25 -6.1L-7.45 -5.95L-7.95 -5.65Q-8.5 -5.65 -8.95 -5.95Q-9 -5.85 -9.15 -5.85L-9.85 -5.25L-10 -4.85L-10 -6.3L-9.6 -6.5L-9.75 -6.8L-9.8 -7.45L-9.75 -8.15Q-9.7 -8.4 -8.45 -9.05L-8.4 -9L-8.3 -8.75M-4.15,6.8L-4.15 6.7L-4.35 7Q-4.85 7.45 -5.5 7.45L-6.1 7.35L-6.25 7.35L-6.25 7.65L-6 8.8L-5.75 8.9L-5.7 8.9Q-5 8.9 -4.55 8.4L-4.15 7.5L-4.1 7.2L-4.15 7L-4.15 6.8M6.05,-7.45L6 -7.5L6 -7.75L6.15 -7.95L6.35 -7.95L6.45 -7.85L6.55 -7.95L6.55 -8L6.6 -8L6.55 -8.05Q6.35 -8.05 6.15 -8.35L6 -8.35L4.75 -8L4 -7.75L4.3 -7.25L4.5 -7.05L4.55 -6.95L4.65 -6.9Q5.05 -6.6 5.35 -6.6Q5.65 -6.6 5.75 -6.8L5.75 -7.05L6.05 -7.45" />
<path style="fill:#D5FF7E;fill-opacity:1" d="M7.9,-5.95L7.95 -6.05Q7.95 -6.9 7.5 -7.05L7.25 -7.05L7.15 -7.05L7.25 -7.15L7.5 -7.4L8.05 -7.5L8.2 -7.15L8.25 -7.15L8.4 -6.65L8.4 -6.6Q8.4 -6.2 8.05 -5.95L7.9 -5.8L7.9 -5.95M7.05,-4.85L7.1 -4.75L7.15 -4.75L7.25 -4.5L7.45 -3.95L7.3 -3.25L7.1 -3.25L7.1 -3.3L7.15 -3.5L7 -4.35L6.8 -4.75L6.55 -5.05L6.85 -4.9L7.05 -4.85M7.9,3L8.15 2.35L8.15 2.3L8.05 1.85L8.05 1.6L7.95 1.55L7.75 1.35L7.75 1.3L7.7 1.25L7.65 1.25L7.15 1L7.05 1L7.15 0.95L7.25 0.95L7.55 1L7.75 1.1L8.15 1.3L8.2 1.3L8.25 1.35L8.4 1.5Q8.9 1.9 8.9 2.6L8.9 2.65L8.75 3L7.65 3.2L7.3 3.2L7.9 3M5.9,3.35L6.05 3.55L6.05 3.6L6.05 3.7L6.2 3.95L6.35 4.25L6.35 4.4L6.45 4.55L6.5 4.7L6.55 4.95L6.55 5.3L6.55 5.35L6.3 5.65L6.1 5.8L6.05 5.8L5.8 5.8L5.75 5.8L5.5 5.75Q6.05 5.6 6.05 4.55L6 4L5.8 3.6L5.75 3.35L5.7 3.05L5.9 3.35M3.85,6L4.25 6.1L4.25 6.35L4 6.2L3.75 6.05L3.7 6.05L3.45 5.8L3.85 6M3.4,6.4L3.55 6.5L3.8 6.85L3.85 7.15L4.2 8L3.75 8.2L3.75 8.25L3.3 8.4L3.25 8.4Q2.7 8.4 2.5 7.85L2.7 7.9Q3.65 7.9 3.65 7.2L3.4 6.4M1.75,6.4L1.6 6.8L1.5 7L1.4 7.05L1.4 7.1Q1.1 7.35 0.65 7.4L0 7.3L0 7.15L0 7.05L0.25 7.1L1.4 6.75L1.75 6.4M-5.45,4.2L-5.35 4.35L-5.15 4.55L-5.05 4.75L-5 5.05L-4.95 5.3L-4.85 5.6L-5.1 6.2L-5.3 6.4L-5.5 6.4L-5.85 6.35L-5.4 5.65L-5.4 5.6L-5.35 5.05L-5.45 4.2M-6,7.85Q-5.85 8.15 -5.45 8.15Q-4.65 8.15 -4.35 7.65L-4.15 7L-4.1 7.2L-4.15 7.5L-4.55 8.4Q-5 8.9 -5.7 8.9L-5.75 8.9L-6 8.8L-6.25 7.65L-6.25 7.35L-6 7.85M-3.6,-3.25L-3.4 -3.85L-3.2 -4.3L-3.2 -4.35L-3.15 -4.4Q-2.6 -5.2 -1.95 -4.4Q-1.6 -4.15 -1.6 -3.65L-1.6 -3.55L-1.65 -3.15L-2 -2.65L-2.2 -2.5L-2.1 -2.85Q-2.1 -3.9 -2.9 -3.9L-3.3 -3.8L-3.6 -3.25M-1.4,-2.8L-1.35 -2.85L-1.2 -2.85L-0.65 -2.85L-0.5 -2.65L-0.45 -2.55L-0.45 -2.45L-0.7 -2L-0.7 -1.9L-0.75 -1.9L-0.8 -1.95L-0.95 -1.9L-0.95 -1.95Q-0.95 -2.8 -1.35 -2.8L-1.4 -2.8M-1,-1.4L-0.7 -1.4L-0.5 -0.9L-0.45 -0.7L-0.5 -0.4L-0.6 0L-0.8 0.15L-0.95 0.2L-0.95 0.15Q-0.8 -0.05 -0.8 -0.35L-0.8 -0.4L-0.8 -0.8L-0.95 -1.25L-1 -1.4M-2.65,1.25L-2.65 1.45L-2.6 1.6Q-2.6 2.15 -2.75 2.3L-3.15 2.35L-3.3 2.35L-3.35 2.35L-3.4 2.3L-3.55 2.2L-3.95 1.8L-3.95 1.7L-4 1.6L-3.2 1.95L-2.75 1.65L-2.65 1.25M-6.7,-7.4L-6.85 -7.3L-7 -7.15Q-7.2 -7 -7.3 -7L-7.5 -6.95L-7.7 -6.9Q-7.85 -6.75 -7.95 -6.75Q-8.3 -6.75 -8.6 -7.05L-8.8 -7.25L-8.8 -7.45L-8.7 -7.85Q-8.45 -7.3 -7.5 -7.3L-6.7 -7.4M4.5,-7.1L5 -7Q5.55 -7 5.6 -7.25L5.75 -7.05L5.75 -6.8Q5.65 -6.6 5.35 -6.6Q5.05 -6.6 4.65 -6.9L4.55 -6.95L4.5 -7.05L4.5 -7.1" />
<path style="fill:#AAE72C;fill-opacity:1" d="M0.15,-9.35L-0.1 -10L7.4 -10L7.45 -8.7L7.5 -8.45L7.15 -8.45L7 -8.55L7.1 -8.85L7.15 -9.4L7.1 -9.65L6.6 -9.55L6.55 -9.55L5.9 -9.65L5.7 -9.65L5 -9.65L5.9 -9.25L6.15 -9.1L6.45 -8.85L6.35 -8.85L6 -8.85L4.6 -8.55L3.8 -8.3L3.6 -8.15L3.6 -7.95L3.7 -7.75L3.85 -7.7L4.1 -6.9L4.25 -6.4L4.5 -6.2L4.6 -6.1L5.35 -5.95L5.5 -5.95L5.35 -6.05L6.2 -6.2L6.85 -6.6L7 -6.9L7.05 -6.95L7.15 -7.05L7.25 -7.05L7.5 -7.05Q7.95 -6.9 7.95 -6.05L7.9 -5.95L7.9 -5.8L7.4 -5.65L7.25 -5.65L7 -5.6L6.55 -5.6L6.5 -5.6L6.3 -5.55L6.25 -5.35L6.3 -5.1L6.5 -5.05L6.55 -5.05L6.8 -4.75L7 -4.35L7.15 -3.5L7.1 -3.3L7.1 -3.25L7.05 -3.25L6.85 -3.25L6.15 -3.45L6 -3.45L6 -3.3L6 -3.25L6 -3.1Q6.05 -2.6 6.25 -2L6.45 -1.6L6.55 -1.1L6.45 -0.7L6.45 -0.6L6.3 -0.35L6.15 -0.5Q5.9 -0.8 6.1 -0.35L6.1 -0.25L6.15 -0.2L6.1 0.3L6.05 0.8Q5.75 0.85 5.7 1L5.9 1L6.2 1L6.7 1L6.75 1L6.85 1L7.05 1L7.15 1L7.65 1.25L7.7 1.25L7.75 1.3L7.75 1.35L7.95 1.55L8.05 1.6L8.05 1.85L8.15 2.3L8.15 2.35L7.9 3L7.3 3.2L7.25 3.2L7 3.1L6.85 3.05Q6.35 3 6.05 2.65L6.05 2.6L5.75 2.4L5.7 2.35L5.55 2.2L5.45 2.2L5.35 2.15L5.15 2.15L5.15 2.2L5.45 2.65L5.45 2.7L5.55 2.85L5.7 3.05L5.75 3.35L5.8 3.6L6 4L6.05 4.55Q6.05 5.6 5.5 5.75L5.05 5.5L5 5.45L4.25 3.95L4.25 5.05L4.25 5.6L4.25 6.1L3.85 6L3.45 5.8L3.1 5.5L2.65 5.15L3.05 5.85L3.25 6.15L3.35 6.4L3.4 6.4L3.65 7.2Q3.65 7.9 2.7 7.9L2.5 7.85L2.35 7.35L2.3 6.9L2.3 6.4L2.2 6.2L2 6.15L1.8 6.2L1.75 6.4L1.4 6.75L0.25 7.1L0 7.05L0 7L0.2 6.05L0.2 5.85L-0.2 5.85L-1.6 6.35L-2 6.4L-2.55 6.35L-2.6 6.35L-2.85 6.2L-2.7 6.05Q-2.4 5.8 -2.85 6L-2.9 6L-2.95 6.05L-3.85 5.95L-3.8 5.6L-4.25 4.75L-4.9 3.9L-4.35 4.8L-4.8 4.2Q-4.9 4 -5.95 3.45L-6.85 3L-6.75 3.2L-5.45 4.2L-5.35 5.05L-5.4 5.6L-5.4 5.65L-5.85 6.35L-5.95 6.3L-6.1 6.15L-6.35 6.05L-6.45 6L-6.5 5.85L-6.55 5.75L-6.8 5.15L-7.05 4.7L-7.3 4.2L-7.35 4L-7.4 3.8L-7.45 3.65L-7.55 3.3L-7.65 3.1L-7.65 2.95L-7.65 3.9L-7.55 3.95L-7.5 4.3L-7.5 4.35L-7.35 5.05L-7.05 5.8L-7.05 5.85L-7.1 6.15L-7.2 6.5L-10 6.5L-10 -4.85L-9.85 -5.25L-9.15 -5.85Q-9 -5.85 -8.95 -5.95Q-8.5 -5.65 -7.95 -5.65L-7.45 -5.95L-7.4 -5.65Q-7.4 -5.35 -7.7 -5.05L-7.3 -4.75L-7.25 -4.4L-7.3 -4.2Q-7.4 -4 -7.65 -4L-7.45 -3.6Q-7.45 -3.25 -7.9 -3.25L-8 -3.3L-8.15 -3.35Q-8 -3.25 -8 -2.95L-8 -2.9Q-8 -2.5 -8.25 -2.5L-8.4 -2.55L-8.5 -2.65L-8.7 -2.95L-8.8 -2.95Q-9.2 -3 -9.4 -3.25L-9.55 -3.8L-9.55 -4.25L-9.65 -3.5L-9.4 -2.3L-8.95 -2.1Q-8.8 -2.1 -8.8 -2.3L-8.8 -2.7L-8.65 -2.45L-8.5 -2.1L-8.2 -1.65L-8 -1.65L-7.85 -1.85Q-7.55 -2.15 -7.55 -2.45L-7.75 -2.7L-7.35 -2.55L-7.3 -2.55Q-7.05 -2.55 -6.95 -2.8L-6.9 -3.1L-6.9 -3.15Q-6.9 -3.65 -7.3 -3.85L-7.25 -3.85L-6.85 -3.8Q-6.7 -3.85 -6.7 -4.3Q-6.7 -5.2 -7.25 -5.3L-6.85 -5.7L-6.9 -6.1L-7.25 -6.1L-7 -6.3L-6.4 -6.8L-7.35 -6.25L-6.7 -6.7L-5.95 -8L-5.5 -8.85L-5.7 -8.8L-6.3 -8L-6.7 -7.4L-7.5 -7.3Q-8.45 -7.3 -8.7 -7.85L-8.65 -8L-8.5 -8.15L-8.4 -8.35L-8.35 -8.45L-7.8 -8.8L-7.55 -8.85L-6.95 -9.2L-6.65 -9.35L-6.55 -9.4L-6.05 -9.55L-6.05 -9.65L-5.6 -9.7L-5.45 -9.7L-6.25 -9.7L-6.5 -9.65L-6.6 -9.65L-6.55 -10L-0.15 -10L0.15 -9.35M-4.15,7L-4.35 7.65Q-4.65 8.15 -5.45 8.15Q-5.85 8.15 -6 7.85L-6.25 7.35L-6.1 7.35L-5.5 7.45Q-4.85 7.45 -4.35 7L-4.15 6.7L-4.15 6.8L-4.15 7M-7.3,6.3L-7.1 6.15L-7.35 6.3L-7.3 6.3M-1.6,3.6L-1.95 3.8L-1.85 3.8L-1.6 3.6M-3.3,-3.8L-2.9 -3.9Q-2.1 -3.9 -2.1 -2.85L-2.2 -2.5L-2.5 -2.15L-2.55 -1.9L-2.55 -1.85L-2.25 -2.1L-1.7 -2.45L-1.4 -2.7L-1.4 -2.8L-1.35 -2.8Q-0.95 -2.8 -0.95 -1.95L-0.95 -1.9L-1.25 -1.65L-1.4 -1.65L-1.5 -1.6L-1.9 -1.3L-1.55 -1.3L-1.5 -1.3L-1 -1.4L-0.95 -1.25L-0.8 -0.8L-0.8 -0.4L-0.8 -0.35Q-0.8 -0.05 -0.95 0.15L-0.95 0.2L-1.2 0.3L-1.25 0.45Q-1.35 0.35 -1.4 0.35L-1.45 0.35L-1.7 0.35L-2.4 0.2L-2.55 0.25L-2.85 -0.2L-3.2 -0.8L-3 -0.15L-2.65 1.25L-2.75 1.65L-3.2 1.95L-4 1.6L-4 1.55L-4.25 1L-4.25 2.2L-4.25 2.4L-4.15 2.55L-4 2.95Q-3.7 3.55 -3.2 3.55L-1.95 2.95Q-1.4 2.5 -1.4 1.85L-1.5 1.6L-1.2 1.6Q-0.7 1.6 -0.15 1.25Q0.45 0.8 0.45 0L0.45 -0.2L0.2 -1.6L0.05 -1.65L0.2 -1.8L0.3 -2L0.4 -2.5L0.4 -2.85Q0.3 -3.9 -0.45 -4L-0.8 -4L-1.35 -5.25Q-1.95 -6 -2.65 -6Q-3.1 -6 -3.4 -5.35L-3.6 -4.65L-3.6 -4.55L-3.8 -4L-4 -2.35L-3.85 -2.7L-3.6 -3.25L-3.3 -3.8M2,-2.8Q2.25 -2.6 2.45 -2.6L2.65 -2.85L2.65 -3.2L2.7 -2.95Q2.95 -2.2 3.2 -2.2L3.45 -2.45L3.75 -2.95L3.6 -3.25L4.05 -3.15Q4.5 -3.15 4.5 -3.65Q4.5 -4.2 4.1 -4.35L4.2 -4.35L4.55 -4.3L4.7 -4.85Q4.7 -5.7 4.2 -5.8L4.5 -6.1L3.9 -6.1L3.65 -5.6Q4.2 -5.6 4.2 -4.95Q4.2 -4.6 3.7 -4.6L3.85 -4.15Q3.85 -3.85 3.4 -3.85L3.25 -3.95L3.35 -3.5L3.1 -3.1L2.9 -3.2L2.65 -3.5L2.4 -3.55Q2.15 -3.6 1.95 -3.8L1.9 -3.85L1.8 -4.3L1.8 -4.85L1.75 -4L1.75 -3.95L1.75 -3.55L1.95 -2.85L2 -2.8M5.6,-7.25Q5.55 -7 5 -7L4.5 -7.1L4.5 -7.05L4.3 -7.25L4 -7.75L4.75 -8L6 -8.35L6.15 -8.35Q6.35 -8.05 6.55 -8.05L6.6 -8L6.55 -8L6.55 -7.95L6.45 -7.85L6.35 -7.95L6.15 -7.95L6 -7.75L6 -7.5L6.05 -7.45L5.35 -7.4L4.8 -7.45L5.55 -7.25L5.6 -7.25" />
<path style="fill:#001505;fill-opacity:1" d="M6.85,-4.9L6.55 -5.05L6.5 -5.05L6.3 -5.1L6.25 -5.35L6.3 -5.55L6.5 -5.6L6.55 -5.6L7 -5.6L7.25 -5.65L7.4 -5.65L7.25 -5.6L7.1 -5.45L7 -5.1L7.05 -4.85L6.85 -4.9M6.25,-3.25L6.2 -3.25L6.1 -3.3L6 -3.45L6.15 -3.45L6.85 -3.25L7.05 -3.25L6.75 -3.2L6.7 -3.15L6.65 -3.1L6.6 -2.95L6.55 -2.9L6.25 -3.25M6.1,-0.25L6.1 -0.35Q5.9 -0.8 6.15 -0.5L6.3 -0.35L6.25 -0.25L6.25 -0.15L6.2 0L6.15 -0.2L6.1 -0.25M6.05,0.8Q6.15 0.65 6.35 0.65L6.5 0.8L6.7 1L6.2 1L5.9 1L5.7 1Q5.75 0.85 6.05 0.8M5.7,3.05L5.55 2.85L5.45 2.7L5.45 2.65L5.15 2.2L5.15 2.15L5.35 2.15L5.45 2.2L5.55 2.2L5.7 2.35L5.75 2.4L6.05 2.6L6.05 2.65Q6.35 3 6.85 3.05L7 3.1L6.85 3.1L6.6 3.05L6.3 3.1L6.1 3.3L6.1 3.35L6.05 3.55L5.9 3.35L5.7 3.05M4.25,5.05L4.25 3.95L5 5.45L4.7 5.4L4.4 5.5L4.25 5.05M3.55,6.5L3.4 6.4L3.35 6.4L3.25 6.15L3.05 5.85L2.65 5.15L3.1 5.5L3.45 5.8L3.7 6.05L3.75 6.05L4 6.2L4.25 6.35L4 6.45L3.8 6.75L3.8 6.85L3.55 6.5M1.6,6.8L1.75 6.4L1.8 6.2L2 6.15L2.2 6.2L2.3 6.4L2.3 6.9L2.35 7.35L2.15 7.05Q2 6.9 1.8 6.9L1.5 7L1.6 6.8M0.2,5.85L0.2 6.05L0 7L-0.1 6.7L-0.3 6.5L-0.4 6.45L0.2 5.85M-2.9,6L-2.85 6Q-2.4 5.8 -2.7 6.05L-2.85 6.2L-3 6.15L-3.15 6.1L-2.95 6.05L-2.9 6M-3.8,6.3L-3.95 6.4L-4 6.4L-3.85 6L-3.8 6.3M-7.35,5.05L-7.5 4.35L-7.5 4.3L-7.55 3.95L-7.65 3.9L-7.65 2.95L-7.65 3.1L-7.55 3.3L-7.45 3.65L-7.4 3.8L-7.35 4L-7.3 4.2L-7.05 4.7L-6.8 5.15L-6.55 5.75L-6.5 5.85L-6.45 6L-6.55 5.95L-6.6 5.75L-6.8 5.65L-6.95 5.7L-7.05 5.8L-7.35 5.05M-8.35,-8.45L-8.3 -8.75L-8.4 -9L-7.9 -9.25L-7.5 -9.4L-7.45 -9.45L-6.85 -9.65L-6.6 -9.65L-6.5 -9.65L-6.25 -9.7L-5.45 -9.7L-5.6 -9.7L-6.05 -9.65L-6.05 -9.55L-6.55 -9.4L-6.65 -9.35L-6.95 -9.2L-7.55 -8.85L-7.8 -8.8L-8.35 -8.45M-0.15,-10L-0.1 -10L0.15 -9.35L-0.15 -10M-7.35,6.3L-7.1 6.15L-7.3 6.3L-7.35 6.3M-1.85,3.8L-1.95 3.8L-1.6 3.6L-1.85 3.8M-4.25,1L-4 1.55L-4 1.6L-3.95 1.7L-3.95 1.8L-3.55 2.2L-3.4 2.3L-3.35 2.35L-3.3 2.35L-3.15 2.35L-2.75 2.3Q-2.6 2.15 -2.6 1.6L-2.65 1.45L-2.65 1.25L-3 -0.15L-3.2 -0.8L-2.85 -0.2L-2.55 0.25L-2.4 0.2L-1.7 0.35L-1.45 0.35L-1.4 0.35Q-1.35 0.35 -1.25 0.45L-1.2 0.3L-0.95 0.2L-0.8 0.15L-0.6 0L-0.5 -0.4L-0.45 -0.7L-0.5 -0.9L-0.7 -1.4L-1 -1.4L-1.5 -1.3L-1.55 -1.3L-1.9 -1.3L-1.5 -1.6L-1.4 -1.65L-1.25 -1.65L-0.95 -1.9L-0.8 -1.95L-0.75 -1.9L-0.7 -1.9L-0.7 -2L-0.45 -2.45L-0.45 -2.55L-0.5 -2.65L-0.65 -2.85L-1.2 -2.85L-1.35 -2.85L-1.4 -2.8L-1.4 -2.7L-1.7 -2.45L-2.25 -2.1L-2.55 -1.85L-2.55 -1.9L-2.5 -2.15L-2.2 -2.5L-2 -2.65L-1.65 -3.15L-1.6 -3.55L-1.6 -3.65Q-1.6 -4.15 -1.95 -4.4Q-2.6 -5.2 -3.15 -4.4L-3.2 -4.35L-3.2 -4.3L-3.4 -3.85L-3.6 -3.25L-3.85 -2.7L-4 -2.35L-3.8 -4L-3.6 -4.55L-3.6 -4.65L-3.5 -4.75L-3.45 -4.85Q-2.6 -5.95 -1.6 -4.85L-1.4 -4.55L-1.2 -3.7L-1.2 -3.55L-1.2 -3.45L-0.75 -3.45L-0.6 -3.35L-0.25 -3.1L-0.05 -2.6L-0.1 -2.1L-0.4 -1.75L-0.1 -1.2L-0.1 -0.7L-0.2 0.1L-0.45 0.5L-0.45 0.55L-1.15 0.85L-1.2 0.85L-1.4 0.9L-2.05 0.85L-2.2 0.85L-2.25 0.8L-2.2 1L-2.05 1.6Q-2.05 2.4 -2.5 2.7Q-2.65 2.9 -3.15 2.9L-3.35 2.85L-3.4 2.85L-3.5 2.85L-3.95 2.4L-4.25 2.2L-4.25 1M5.55,-7.25L4.8 -7.45L5.35 -7.4L6.05 -7.45L5.75 -7.05L5.6 -7.25L5.55 -7.25M7.15,-9.4L7.1 -8.85L7 -8.55L7.15 -9.4" />
<path style="fill:#6B9A0B;fill-opacity:1" d="M6.15,-9.1L5.9 -9.25L5 -9.65L5.7 -9.65L5.9 -9.65L6.55 -9.55L6.6 -9.55L7.1 -9.65L7.15 -9.4L7 -8.55L6.8 -8.65L6.75 -8.65L6.7 -8.7L6.6 -8.75L6.5 -8.8L6.45 -8.85L6.15 -9.1M6.55,-2.9L6.55 -2.8L6.55 -2.6L6.55 -1.1L6.45 -1.6L6.25 -2Q6.05 -2.6 6 -3.1L6 -3.25L6 -3.3L6 -3.45L6.1 -3.3L6.2 -3.25L6.25 -3.25L6.55 -2.9M6.2,0L6.2 0.1L6.25 0.35L6.35 0.5L6.35 0.65Q6.15 0.65 6.05 0.8L6.1 0.3L6.15 -0.2L6.2 0M4.4,5.5L4.35 5.6L4.25 5.6L4.25 5.05L4.4 5.5M-0.4,6.45L-0.6 6.45L-2 6.4L-1.6 6.35L-0.2 5.85L0.2 5.85L-0.4 6.45M-3.85,6L-3.85 5.95L-2.95 6.05L-3.15 6.1L-3.3 6.1L-3.6 6.3L-3.8 6.3L-3.85 6M-3.4,-5.35Q-3.1 -6 -2.65 -6Q-1.95 -6 -1.35 -5.25L-0.8 -4L-0.45 -4Q0.3 -3.9 0.4 -2.85L0.4 -2.5L0.3 -2L0.2 -1.8L0.05 -1.65L0.2 -1.6L0.45 -0.2L0.45 0Q0.45 0.8 -0.15 1.25Q-0.7 1.6 -1.2 1.6L-1.5 1.6L-1.4 1.85Q-1.4 2.5 -1.95 2.95L-3.2 3.55Q-3.7 3.55 -4 2.95L-4.15 2.55L-4.25 2.4L-4.25 2.2L-3.95 2.4L-3.5 2.85L-3.4 2.85L-3.35 2.85L-3.15 2.9Q-2.65 2.9 -2.5 2.7Q-2.05 2.4 -2.05 1.6L-2.2 1L-2.25 0.8L-2.2 0.85L-2.05 0.85L-1.4 0.9L-1.2 0.85L-1.15 0.85L-0.45 0.55L-0.45 0.5L-0.2 0.1L-0.1 -0.7L-0.1 -1.2L-0.4 -1.75L-0.1 -2.1L-0.05 -2.6L-0.25 -3.1L-0.6 -3.35L-0.75 -3.45L-1.2 -3.45L-1.2 -3.55L-1.2 -3.7L-1.4 -4.55L-1.6 -4.85Q-2.6 -5.95 -3.45 -4.85L-3.5 -4.75L-3.6 -4.65L-3.4 -5.35M-7.25,-6.1L-6.9 -6.1L-6.85 -5.7L-7.25 -5.3Q-6.7 -5.2 -6.7 -4.3Q-6.7 -3.85 -6.85 -3.8L-7.25 -3.85L-7.3 -3.85Q-6.9 -3.65 -6.9 -3.15L-6.9 -3.1L-6.95 -2.8Q-7.05 -2.55 -7.3 -2.55L-7.35 -2.55L-7.75 -2.7L-7.55 -2.45Q-7.55 -2.15 -7.85 -1.85L-8 -1.65L-8.2 -1.65L-8.5 -2.1L-8.65 -2.45L-8.8 -2.7L-8.8 -2.3Q-8.8 -2.1 -8.95 -2.1L-9.4 -2.3L-9.65 -3.5L-9.55 -4.25L-9.55 -3.8L-9.4 -3.25Q-9.2 -3 -8.8 -2.95L-8.7 -2.95L-8.5 -2.65L-8.4 -2.55L-8.25 -2.5Q-8 -2.5 -8 -2.9L-8 -2.95Q-8 -3.25 -8.15 -3.35L-8 -3.3L-7.9 -3.25Q-7.45 -3.25 -7.45 -3.6L-7.65 -4Q-7.4 -4 -7.3 -4.2L-7.25 -4.4L-7.3 -4.75L-7.7 -5.05Q-7.4 -5.35 -7.4 -5.65L-7.45 -5.95L-7.25 -6.1M1.95,-2.85L1.75 -3.55L1.75 -3.95L1.75 -4L1.8 -4.85L1.8 -4.3L1.9 -3.85L1.95 -3.8Q2.15 -3.6 2.4 -3.55L2.65 -3.5L2.9 -3.2L3.1 -3.1L3.35 -3.5L3.25 -3.95L3.4 -3.85Q3.85 -3.85 3.85 -4.15L3.7 -4.6Q4.2 -4.6 4.2 -4.95Q4.2 -5.6 3.65 -5.6L3.9 -6.1L4.5 -6.1L4.2 -5.8Q4.7 -5.7 4.7 -4.85L4.55 -4.3L4.2 -4.35L4.1 -4.35Q4.5 -4.2 4.5 -3.65Q4.5 -3.15 4.05 -3.15L3.6 -3.25L3.75 -2.95L3.45 -2.45L3.2 -2.2Q2.95 -2.2 2.7 -2.95L2.65 -3.2L2.65 -2.85L2.45 -2.6Q2.25 -2.6 2 -2.8L1.95 -2.85" />
</g>
</svg>
