<?xml version="1.0" encoding="utf-8"?>
<svg version="1.1" id="Layer_1"
xmlns="http://www.w3.org/2000/svg"
xmlns:xlink="http://www.w3.org/1999/xlink"
xmlns:author="http://www.sothink.com"
width="20px" height="20px"
xml:space="preserve">
<g id="10" transform="matrix(1, 0, 0, 1, 10, 10)">
<path style="fill:#000000;fill-opacity:1" d="M-6.5,-7.2L-6.15 -7.1L-5.85 -7.05L-5.8 -7.05L-5.7 -6.95L-5.65 -6.8L-5.75 -6.6L-5.95 -6.55L-6 -6.45L-6.05 -6.35L-6.15 -6.1L-6.3 -5.95L-6.35 -5.85L-6.4 -5.5L-6.4 -5.3L-6.2 -5.1L-5.6 -4.85L-5.3 -4.95L-5.05 -5L-4.75 -5.05Q-4.7 -5.05 -4.55 -5.15L-4.35 -5.35L-4.2 -5.45L-3.2 -6.75L-3 -6.85L-3.45 -5.95Q-4 -4.9 -4.2 -4.8L-4.8 -4.35L-3.9 -4.9Q-4.35 -4.45 -4.75 -4.25L-5.6 -3.8L-5.95 -3.85L-6 -3.85L-6.4 -4L-6.4 -3.95L-6.3 -3.8L-6.3 -3.6L-6.1 -3.3L-6.1 -3.15L-6.15 -3L-6.2 -2.85L-6.35 -2.6L-6.35 -2.55L-6.4 -2L-6.45 -0.6L-6.45 -0.4L-6.5 -0.3L-6.7 -0.1L-7 0L-7.05 0L-7.15 0L-7.3 0L-7.4 0.65L-7.1 1.4L-7.05 1.4L-7 1.5L-6.9 1.8L-7.05 2.15L-7.35 2.35L-7.85 2.5Q-8.4 2.7 -8.4 3.25L-8.4 3.3L-8.25 3.75L-8.2 3.75L-8 4.2Q-7.55 4.2 -7.15 3.85L-6.85 3.8L-6.75 3.8Q-6.55 3.85 -6.45 4L-6.35 4.25L-6.1 4.25L-5.6 4.25L-5.6 4.35L-5.5 4.4L-5.4 4.7L-5.45 5L-5.5 5.05L-5.75 5.5L-5.8 5.75L-5.8 5.8L-5.8 6.05L-5.8 6.1L-5.65 6.3L-5.35 6.55L-5.3 6.55L-4.95 6.55L-4.7 6.5L-4.55 6.45L-4.4 6.35L-4.25 6.35L-3.95 6.2L-3.7 6.05L-3.6 6.05L-3.55 6.05L-3.35 6.1L-3.3 6.1L-3.1 6.3L-3.05 6.6L-3.1 6.85L-3.1 7L-3.2 7.25L-3.2 7.3L-3.2 7.65L-3 8.75L-2.65 8.9L-2.6 8.9Q-1.9 8.9 -1.5 8.4L-1.35 8.25L-1.3 8.2L-1.3 8.15L-1.1 7.75L-1 7.55L-0.95 7.25L-0.95 7.15L-1 7.05L-1 6.85L-1 6.75L-1 6.7L-0.8 6.5L-0.65 6.35L-0.5 6.35L-0.35 6.25L-0.1 6.2L0 6.2L0.15 6.25L0.25 6.25L0.35 6.3L0.6 6.45L0.7 6.45L1.1 6.55L2.6 6.55L2.8 6.55L2.9 6.55L2.95 6.6L3.1 6.65L3.15 6.7L3.2 6.75L3.25 7.05L3.25 7.1L3.25 7.3L3.95 7.45L4.5 7.25L4.75 7.15L4.75 7.1L4.85 7.05L5.1 7L5.45 7.1L5.6 7.25L5.65 7.4L5.8 7.9L5.95 8.05Q6.2 8.4 6.6 8.4L6.65 8.4L7.15 8.25L7.15 8.2L7.5 8.05L7.4 7.5L7.15 7.25L7.05 7.15L6.95 7.05L6.9 7L6.6 6.85L6.2 6.2Q5.9 5.7 6.05 5.35L5.95 5.5L5.95 5.35L6.1 4.6L6.2 4.5L6.4 4.25L6.9 4.1L7.7 3.85L7.75 3.7L7.95 3.6L8.15 3.6L8.3 3.8L8.55 4.6L8.85 6L8.85 6.35L8.85 6.45L8.8 6.5L8.75 6.6L8.7 6.7L8.65 6.75L8.65 6.8L8.55 7L8.45 7.15L8.45 7.5L8.7 7.45L10 7.4L10 8.2L8.75 8.25L8.45 8.2L7.85 9.1L7.75 9.15L7.6 9.2L6.65 9.45L5.95 9.4Q5.65 9.35 5.45 9.15Q5 8.9 4.85 8.25L4 8.5Q3.2 8.55 2.65 8.2L2.7 8.2L2.25 7.65L0.8 7.55L0.1 8.1L-0.1 8.15L-0.65 9.05L-0.65 9.1L-0.75 9.15Q-1.5 10 -2.6 10Q-3.45 10.05 -3.95 9.3L-3.95 9.15L-4.2 8.1L-4.55 8.1L-4.65 8.05Q-5.45 7.95 -6 7.3L-6.4 7.05L-6.45 7L-6.65 6.95Q-6.75 6.85 -6.8 6.85L-7.1 6.65L-7.15 6.65Q-7.75 6.15 -7.75 5.35L-7.75 5.2L-8 5.2Q-8.8 5.25 -9.2 4.35L-9.25 4.2L-9.5 3.3Q-9.55 2.65 -9.2 2.15L-8.25 1.45L-8.5 0.75Q-8.55 -0.1 -8.2 -0.55L-8.2 -0.5L-7.65 -1Q-7.75 -1.9 -7.35 -2.9L-7.3 -3.05Q-8.25 -3.1 -9.1 -3.8L-9.15 -3.8L-9.2 -3.85Q-10 -4.55 -10 -5.7Q-10.1 -6.55 -9.3 -6.95L-9.2 -7L-8.35 -7.3L-7.4 -7.05L-7.4 -10L-6.5 -10L-6.5 -7.2M8.75,-8.3L8.45 -8.35L8.35 -8.4L8.15 -8.5L8 -8.65L7.85 -8.7L7.45 -8.8L7.25 -8.8L7.05 -8.6Q6.75 -8.3 6.75 -7.95L6.9 -7.7L6.95 -7.5L7 -7.3L7.15 -7L7.3 -6.85L7.4 -6.7L8 -6.3L8.8 -5.7L8.85 -5.5L8 -5.95Q6.8 -6.55 6.7 -6.7L6.25 -7.35L6.8 -6.4L6.3 -7L6.1 -7.25L5.95 -7.45L5.65 -7.95Q5.65 -8.5 5.95 -8.95L5.85 -9.15L5.25 -9.85L4.85 -10L6.3 -10L6.5 -9.6L6.8 -9.75L7.45 -9.8L8.15 -9.75Q8.4 -9.7 9.05 -8.45L9 -8.4L8.75 -8.3M-6.8,-4.15L-6.7 -4.15L-7 -4.35Q-7.45 -4.85 -7.45 -5.5L-7.35 -6.1L-7.35 -6.25L-7.65 -6.25L-8.8 -6L-8.9 -5.75L-8.9 -5.7Q-8.9 -5 -8.4 -4.55L-7.5 -4.15L-7.2 -4.1L-7 -4.15L-6.8 -4.15M7.45,6.05L7.5 6L7.75 6L7.95 6.15L7.95 6.35L7.85 6.45L7.95 6.55L8 6.55L8 6.6L8.05 6.55L8.35 6.15L8.35 6L8 4.75L7.75 4L7.25 4.3L7.05 4.5L6.95 4.55L6.9 4.65Q6.6 5.05 6.6 5.35L6.8 5.75L7.05 5.75L7.45 6.05" />
<path style="fill:#D5FF7E;fill-opacity:1" d="M5.95,7.9L6.05 7.95Q6.9 7.95 7.05 7.5L7.05 7.25L7.05 7.15L7.15 7.25L7.4 7.5L7.5 8.05L7.15 8.2L7.15 8.25L6.65 8.4L6.6 8.4Q6.2 8.4 5.95 8.05L5.8 7.9L5.95 7.9M4.85,7.05L4.75 7.1L4.75 7.15L4.5 7.25L3.95 7.45L3.25 7.3L3.25 7.1L3.3 7.1L3.5 7.15L4.35 7L4.75 6.8L5.05 6.55L4.9 6.85L4.85 7.05M-3,7.9L-2.35 8.15L-2.3 8.15L-1.85 8.05L-1.6 8.05L-1.55 7.95L-1.35 7.75L-1.3 7.75L-1.25 7.7L-1.25 7.65L-1 7.15L-1 7.05L-0.95 7.15L-0.95 7.25L-1 7.55L-1.1 7.75L-1.3 8.15L-1.3 8.2L-1.35 8.25L-1.5 8.4Q-1.9 8.9 -2.6 8.9L-2.65 8.9L-3 8.75L-3.2 7.65L-3.2 7.3L-3 7.9M-3.35,5.9L-3.55 6.05L-3.6 6.05L-3.7 6.05L-3.95 6.2L-4.25 6.35L-4.4 6.35L-4.55 6.45L-4.7 6.5L-4.95 6.55L-5.3 6.55L-5.35 6.55L-5.65 6.3L-5.8 6.1L-5.8 6.05L-5.8 5.8L-5.8 5.75L-5.75 5.5Q-5.6 6.05 -4.55 6.05L-4 6L-3.6 5.8L-3.35 5.75L-3.05 5.7L-3.35 5.9M-6,3.85L-6.1 4.25L-6.35 4.25L-6.2 4L-6.05 3.75L-6.05 3.7L-5.8 3.45L-6 3.85M-6.4,3.4L-6.5 3.55L-6.85 3.8L-7.15 3.85Q-7.55 4.2 -8 4.2L-8.2 3.75L-8.25 3.75L-8.4 3.3L-8.4 3.25Q-8.4 2.7 -7.85 2.5L-7.9 2.7Q-7.9 3.65 -7.2 3.65L-6.4 3.4M-6.4,1.75L-6.8 1.6L-7 1.5L-7.05 1.4L-7.1 1.4L-7.4 0.65L-7.3 0L-7.15 0L-7.05 0L-7.1 0.25L-6.75 1.4L-6.4 1.75M-4.2,-5.45L-4.35 -5.35L-4.55 -5.15Q-4.7 -5.05 -4.75 -5.05L-5.05 -5L-5.3 -4.95L-5.6 -4.85L-6.2 -5.1L-6.4 -5.3L-6.4 -5.5L-6.35 -5.85L-5.65 -5.4L-5.6 -5.4L-5.05 -5.35L-4.2 -5.45M-7.85,-6L-8.15 -5.45Q-8.15 -4.65 -7.65 -4.35L-7 -4.15L-7.2 -4.1L-7.5 -4.15L-8.4 -4.55Q-8.9 -5 -8.9 -5.7L-8.9 -5.75L-8.8 -6L-7.65 -6.25L-7.35 -6.25Q-7.75 -6.05 -7.85 -6M3.25,-3.6L3.85 -3.4L4.3 -3.2L4.35 -3.2L4.4 -3.15Q5.2 -2.6 4.4 -1.95Q4.15 -1.6 3.65 -1.6L3.55 -1.6L3.15 -1.65L2.65 -2L2.5 -2.2L2.85 -2.1Q3.9 -2.1 3.9 -2.9L3.8 -3.3L3.25 -3.6M2.8,-1.4L2.85 -1.35L2.85 -1.2L2.85 -0.65L2.65 -0.5L2.55 -0.45L2.45 -0.45L2 -0.7L1.9 -0.7L1.9 -0.75L1.95 -0.8L1.9 -0.95L1.95 -0.95Q2.8 -0.95 2.8 -1.35L2.8 -1.4M1.4,-1L1.4 -0.7Q1.2 -0.5 0.9 -0.5L0.7 -0.45L0.4 -0.5L0 -0.6L-0.15 -0.8L-0.2 -0.95L-0.15 -0.95L0.35 -0.8L0.4 -0.8L0.8 -0.8L1.25 -0.95L1.4 -1M-1.25,-2.65L-1.45 -2.65L-1.6 -2.6L-2.3 -2.75L-2.35 -3.15L-2.35 -3.3L-2.35 -3.35L-2.3 -3.4L-2.2 -3.55L-1.8 -3.95L-1.7 -3.95L-1.6 -4L-1.95 -3.2L-1.65 -2.75L-1.25 -2.65M7.4,-6.7L7.3 -6.85L7.15 -7L7 -7.3L6.95 -7.5L6.9 -7.7L6.75 -7.95Q6.75 -8.3 7.05 -8.6L7.25 -8.8L7.45 -8.8L7.85 -8.7Q7.3 -8.45 7.3 -7.5L7.4 -6.7M7.1,4.5L7 5Q7 5.55 7.25 5.6Q7.1 5.7 7.05 5.75L6.8 5.75L6.6 5.35Q6.6 5.05 6.9 4.65L6.95 4.55L7.05 4.5L7.1 4.5" />
<path style="fill:#AAE72C;fill-opacity:1" d="M9.35,0.15L10 -0.1L10 7.4L8.7 7.45L8.45 7.5L8.45 7.15L8.55 7L8.85 7.1L9.4 7.15L9.65 7.1L9.55 6.6L9.55 6.55L9.65 5.9L9.65 5.7L9.65 5L9.25 5.9L9.1 6.15L8.85 6.45L8.85 6.35L8.85 6L8.55 4.6L8.3 3.8L8.15 3.6L7.95 3.6L7.75 3.7L7.7 3.85L6.9 4.1L6.4 4.25L6.2 4.5L6.1 4.6L5.95 5.35L5.95 5.5L6.05 5.35Q5.9 5.7 6.2 6.2L6.6 6.85L6.9 7L6.95 7.05L7.05 7.15L7.05 7.25L7.05 7.5Q6.9 7.95 6.05 7.95L5.95 7.9L5.8 7.9L5.65 7.4L5.65 7.25L5.6 7L5.6 6.55L5.6 6.5L5.55 6.3L5.35 6.25L5.1 6.3L5.05 6.5L5.05 6.55L4.75 6.8L4.35 7L3.5 7.15L3.3 7.1L3.25 7.1L3.25 7.05L3.25 6.85L3.45 6.15L3.45 6L3.3 6L3.25 6L3.1 6L2 6.25L1.6 6.45L1.1 6.55L0.7 6.45L0.6 6.45L0.35 6.3L0.5 6.15Q0.8 5.9 0.35 6.1L0.25 6.1L0.2 6.15L-0.3 6.1L-0.8 6.05Q-0.85 5.75 -1 5.7L-1 5.9L-1 6.2L-1 6.7L-1 6.75L-1 6.85L-1 7.05L-1 7.15L-1.25 7.65L-1.25 7.7L-1.3 7.75L-1.35 7.75L-1.55 7.95L-1.6 8.05L-1.85 8.05L-2.3 8.15L-2.35 8.15L-3 7.9L-3.2 7.3L-3.2 7.25L-3.1 7L-3.05 6.85L-2.65 6.05L-2.6 6.05L-2.4 5.75L-2.35 5.7L-2.2 5.55L-2.2 5.45L-2.15 5.35L-2.15 5.15L-2.2 5.15L-2.65 5.45L-2.7 5.45L-2.85 5.55L-3.05 5.7L-3.35 5.75L-3.6 5.8L-4 6L-4.55 6.05Q-5.6 6.05 -5.75 5.5L-5.5 5.05L-5.45 5L-3.95 4.25L-5.05 4.25L-5.6 4.25L-6.1 4.25L-6 3.85L-5.8 3.45L-5.5 3.1L-5.15 2.65L-5.85 3.05L-6.15 3.25L-6.4 3.35L-6.4 3.4L-7.2 3.65Q-7.9 3.65 -7.9 2.7L-7.85 2.5L-7.35 2.35L-6.9 2.3L-6.4 2.3L-6.2 2.2L-6.15 2L-6.2 1.8L-6.4 1.75L-6.75 1.4L-7.1 0.25L-7.05 0L-7 0L-6.05 0.2L-5.85 0.2L-5.85 -0.2L-6.35 -1.6L-6.4 -2L-6.35 -2.55L-6.35 -2.6L-6.2 -2.85L-6.05 -2.7Q-5.8 -2.4 -6 -2.85L-6 -2.9L-6.05 -2.95L-5.95 -3.85L-5.6 -3.8L-4.75 -4.25Q-4.35 -4.45 -3.9 -4.9L-4.8 -4.35L-4.2 -4.8Q-4 -4.9 -3.45 -5.95L-3 -6.85L-3.2 -6.75L-4.2 -5.45L-5.05 -5.35L-5.6 -5.4L-5.65 -5.4L-6.35 -5.85L-6.3 -5.95L-6.15 -6.1L-6.05 -6.35L-6 -6.45L-5.85 -6.5L-5.75 -6.55L-5.15 -6.8L-4.7 -7.05L-4.2 -7.3L-4 -7.35L-3.8 -7.4L-3.65 -7.45L-3.3 -7.55L-3.1 -7.65L-2.95 -7.65L-3.9 -7.65L-3.95 -7.55L-4.3 -7.5L-4.35 -7.5L-5.05 -7.35L-5.8 -7.05L-5.85 -7.05L-6.15 -7.1L-6.5 -7.2L-6.5 -10L4.85 -10L5.25 -9.85L5.85 -9.15L5.95 -8.95Q5.65 -8.5 5.65 -7.95L5.95 -7.45L5.65 -7.4Q5.35 -7.4 5.05 -7.7L4.75 -7.3L4.4 -7.25L4.2 -7.3L4 -7.65L3.6 -7.45Q3.25 -7.45 3.25 -7.9L3.3 -8L3.35 -8.15Q3.25 -8 2.95 -8L2.9 -8Q2.5 -8 2.5 -8.25L2.55 -8.4L2.65 -8.5L2.95 -8.7L2.95 -8.8L3.25 -9.4L3.8 -9.55L4.25 -9.55L3.5 -9.65L2.3 -9.4L2.1 -8.95Q2.1 -8.8 2.3 -8.8L2.7 -8.8L2.45 -8.65L2.1 -8.5L1.65 -8.2L1.65 -8L1.85 -7.85Q2.15 -7.55 2.45 -7.55L2.7 -7.75L2.55 -7.35L2.55 -7.3L2.8 -6.95L3.1 -6.9L3.15 -6.9L3.85 -7.3L3.85 -7.25L3.8 -6.85Q3.85 -6.7 4.3 -6.7Q5.2 -6.7 5.3 -7.25L5.7 -6.85L6.1 -6.9L6.1 -7.25L6.3 -7L6.8 -6.4L6.25 -7.35L6.7 -6.7Q6.8 -6.55 8 -5.95L8.85 -5.5L8.8 -5.7L8 -6.3L7.4 -6.7L7.3 -7.5Q7.3 -8.45 7.85 -8.7L8 -8.65L8.15 -8.5L8.35 -8.4L8.45 -8.35L8.8 -7.8L8.85 -7.55L9.2 -6.95L9.35 -6.65L9.4 -6.55L9.55 -6.05L9.65 -6.05L9.7 -5.6L9.7 -5.45L9.7 -6.25L9.65 -6.5L9.65 -6.6L10 -6.55L10 -0.15L9.35 0.15M-7,-4.15L-7.65 -4.35Q-8.15 -4.65 -8.15 -5.45L-7.85 -6Q-7.75 -6.05 -7.35 -6.25L-7.35 -6.1L-7.45 -5.5Q-7.45 -4.85 -7 -4.35L-6.7 -4.15L-6.8 -4.15L-7 -4.15M-6.3,-7.3L-6.15 -7.1L-6.3 -7.35L-6.3 -7.3M-3.6,-1.6L-3.8 -1.95L-3.8 -1.85L-3.6 -1.6M3.8,-3.3L3.9 -2.9Q3.9 -2.1 2.85 -2.1L2.5 -2.2L2.15 -2.5L1.9 -2.55L1.85 -2.55L2.1 -2.25L2.45 -1.7L2.7 -1.4L2.8 -1.4L2.8 -1.35Q2.8 -0.95 1.95 -0.95L1.9 -0.95L1.65 -1.25L1.65 -1.4L1.6 -1.5L1.3 -1.9L1.3 -1.55L1.3 -1.5L1.4 -1L1.25 -0.95L0.8 -0.8L0.4 -0.8L0.35 -0.8L-0.15 -0.95L-0.2 -0.95L-0.3 -1.2L-0.45 -1.25L-0.35 -1.4L-0.35 -1.45L-0.35 -1.7L-0.2 -2.4L-0.25 -2.55L0.2 -2.85L0.8 -3.2L0.15 -3L-1.25 -2.65L-1.65 -2.75L-1.95 -3.2L-1.6 -4L-1.55 -4L-1 -4.25L-2.2 -4.25L-2.4 -4.25L-2.55 -4.15L-2.95 -4Q-3.55 -3.7 -3.55 -3.2L-2.95 -1.95Q-2.5 -1.4 -1.85 -1.4L-1.6 -1.5L-1.6 -1.2L-1.25 -0.15Q-0.8 0.45 0 0.45L0.2 0.45L1.6 0.2L1.65 0.05L1.8 0.2L2 0.3L2.5 0.4L2.85 0.4Q3.9 0.3 4 -0.45L4 -0.8Q4.7 -0.95 5.25 -1.35Q6 -1.95 6 -2.65Q6 -3.1 5.35 -3.4L4.65 -3.6L4.55 -3.6L4 -3.8L2.35 -4L2.7 -3.85L3.25 -3.6L3.8 -3.3M2.8,2L2.6 2.45L2.85 2.65L3.2 2.65L2.95 2.7Q2.2 2.95 2.2 3.2L2.45 3.45L2.95 3.75Q3.2 3.75 3.25 3.6L3.15 4.05Q3.15 4.5 3.65 4.5L4.35 4.1L4.35 4.2L4.3 4.55L4.85 4.7Q5.7 4.7 5.8 4.2L6.1 4.5L6.1 3.9L5.6 3.65Q5.6 4.2 4.95 4.2Q4.6 4.2 4.6 3.7L4.15 3.85Q3.85 3.85 3.85 3.4L3.95 3.25L3.5 3.35Q3.1 3.35 3.1 3.1L3.2 2.9L3.5 2.65L3.55 2.4L3.8 1.95L3.85 1.9L4.3 1.8L4.85 1.8L4 1.75L3.95 1.75L3.55 1.75L2.85 1.95L2.8 2M7.25,5.6Q7 5.55 7 5L7.1 4.5L7.05 4.5L7.25 4.3L7.75 4L8 4.75L8.35 6L8.35 6.15L8.05 6.55L8 6.6L8 6.55L7.95 6.55L7.85 6.45L7.95 6.35L7.95 6.15L7.75 6L7.5 6L7.45 6.05L7.4 5.35L7.45 4.8L7.25 5.55L7.25 5.6" />
<path style="fill:#001505;fill-opacity:1" d="M4.9,6.85L5.05 6.55L5.05 6.5L5.1 6.3L5.35 6.25L5.55 6.3L5.6 6.5L5.6 6.55L5.6 7L5.65 7.25L5.65 7.4L5.6 7.25L5.45 7.1L5.1 7L4.85 7.05L4.9 6.85M3.25,6.25L3.25 6.2L3.3 6.1L3.45 6L3.45 6.15L3.25 6.85L3.25 7.05L3.2 6.75L3.15 6.7L3.1 6.65L2.95 6.6L2.9 6.55L3.25 6.25M0.25,6.1L0.35 6.1Q0.8 5.9 0.5 6.15L0.35 6.3L0.25 6.25L0.15 6.25L0 6.2L0.2 6.15L0.25 6.1M-0.8,6.05L-0.65 6.35L-0.8 6.5L-1 6.7L-1 6.2L-1 5.9L-1 5.7Q-0.85 5.75 -0.8 6.05M-3.05,5.7L-2.85 5.55L-2.7 5.45L-2.65 5.45L-2.2 5.15L-2.15 5.15L-2.15 5.35L-2.2 5.45L-2.2 5.55L-2.35 5.7L-2.4 5.75L-2.6 6.05L-2.65 6.05L-3.05 6.85L-3.1 7L-3.1 6.85L-3.05 6.6L-3.1 6.3L-3.3 6.1L-3.35 6.1L-3.55 6.05L-3.35 5.9L-3.05 5.7M-5.05,4.25L-3.95 4.25L-5.45 5L-5.4 4.7L-5.5 4.4L-5.05 4.25M-6.5,3.55L-6.4 3.4L-6.4 3.35L-6.15 3.25L-5.85 3.05L-5.15 2.65L-5.5 3.1L-5.8 3.45L-6.05 3.7L-6.05 3.75L-6.2 4L-6.35 4.25L-6.45 4Q-6.55 3.85 -6.75 3.8L-6.85 3.8L-6.5 3.55M-6.8,1.6L-6.4 1.75L-6.2 1.8L-6.15 2L-6.2 2.2L-6.4 2.3L-6.9 2.3L-7.35 2.35L-7.05 2.15L-6.9 1.8L-7 1.5L-6.8 1.6M-5.85,0.2L-6.05 0.2L-7 0L-6.7 -0.1L-6.5 -0.3L-6.45 -0.4L-5.85 0.2M-6,-2.9L-6 -2.85Q-5.8 -2.4 -6.05 -2.7L-6.2 -2.85L-6.15 -3L-6.1 -3.15L-6.05 -2.95L-6 -2.9M-6.3,-3.8L-6.4 -3.95L-6.4 -4L-6 -3.85L-6.3 -3.8M-5.05,-7.35L-4.35 -7.5L-4.3 -7.5L-3.95 -7.55L-3.9 -7.65L-2.95 -7.65L-3.1 -7.65L-3.3 -7.55L-3.65 -7.45L-3.8 -7.4L-4 -7.35L-4.2 -7.3L-4.7 -7.05L-5.15 -6.8L-5.75 -6.55L-5.85 -6.5L-6 -6.45L-5.95 -6.55L-5.75 -6.6L-5.65 -6.8L-5.7 -6.95L-5.8 -7.05L-5.05 -7.35M8.45,-8.35L8.75 -8.3L9 -8.4L9.25 -7.9L9.4 -7.5L9.45 -7.45L9.65 -6.85L9.65 -6.6L9.65 -6.5L9.7 -6.25L9.7 -5.45L9.7 -5.6L9.65 -6.05L9.55 -6.05L9.4 -6.55L9.35 -6.65L9.2 -6.95L8.85 -7.55L8.8 -7.8L8.45 -8.35M10,-0.15L10 -0.1L9.35 0.15L10 -0.15M-6.3,-7.35L-6.15 -7.1L-6.3 -7.3L-6.3 -7.35M-3.8,-1.85L-3.8 -1.95L-3.6 -1.6L-3.8 -1.85M-1,-4.25L-1.55 -4L-1.6 -4L-1.7 -3.95L-1.8 -3.95L-2.2 -3.55L-2.3 -3.4L-2.35 -3.35L-2.35 -3.3L-2.35 -3.15L-2.3 -2.75L-1.6 -2.6L-1.45 -2.65L-1.25 -2.65L0.15 -3L0.8 -3.2L0.2 -2.85L-0.25 -2.55L-0.2 -2.4L-0.35 -1.7L-0.35 -1.45L-0.35 -1.4L-0.45 -1.25L-0.3 -1.2L-0.2 -0.95L-0.15 -0.8L0 -0.6L0.4 -0.5L0.7 -0.45L0.9 -0.5Q1.2 -0.5 1.4 -0.7L1.4 -1L1.3 -1.5L1.3 -1.55L1.3 -1.9L1.6 -1.5L1.65 -1.4L1.65 -1.25L1.9 -0.95L1.95 -0.8L1.9 -0.75L1.9 -0.7L2 -0.7L2.45 -0.45L2.55 -0.45L2.65 -0.5L2.85 -0.65L2.85 -1.2L2.85 -1.35L2.8 -1.4L2.7 -1.4L2.45 -1.7L2.1 -2.25L1.85 -2.55L1.9 -2.55L2.15 -2.5L2.5 -2.2L2.65 -2L3.15 -1.65L3.55 -1.6L3.65 -1.6Q4.15 -1.6 4.4 -1.95Q5.2 -2.6 4.4 -3.15L4.35 -3.2L4.3 -3.2L3.85 -3.4L3.25 -3.6L2.7 -3.85L2.35 -4L4 -3.8L4.55 -3.6L4.65 -3.6L4.75 -3.5L4.85 -3.45Q5.95 -2.6 4.85 -1.6L4.55 -1.4L3.7 -1.2L3.55 -1.2L3.45 -1.2L3.45 -0.75L3.35 -0.6L3.1 -0.25L2.6 -0.05L2.1 -0.1L1.75 -0.4Q1.6 -0.15 1.2 -0.1L0.7 -0.1L-0.1 -0.2Q-0.35 -0.25 -0.5 -0.45L-0.55 -0.45L-0.85 -1.15L-0.85 -1.2L-0.9 -1.4L-0.85 -2.05L-0.85 -2.2L-0.8 -2.25L-1 -2.2L-1.6 -2.05Q-2.4 -2.05 -2.7 -2.5Q-2.9 -2.65 -2.9 -3.15L-2.85 -3.35L-2.85 -3.4L-2.85 -3.5L-2.4 -3.95L-2.2 -4.25L-1 -4.25M7.25,5.55L7.45 4.8L7.4 5.35L7.45 6.05L7.05 5.75Q7.1 5.7 7.25 5.6L7.25 5.55M9.4,7.15L8.85 7.1L8.55 7L9.4 7.15" />
<path style="fill:#6B9A0B;fill-opacity:1" d="M9.1,6.15L9.25 5.9L9.65 5L9.65 5.7L9.65 5.9L9.55 6.55L9.55 6.6L9.65 7.1L9.4 7.15L8.55 7L8.65 6.8L8.65 6.75L8.7 6.7L8.75 6.6L8.8 6.5L8.85 6.45L9.1 6.15M2.9,6.55L2.8 6.55L2.6 6.55L1.1 6.55L1.6 6.45L2 6.25L3.1 6L3.25 6L3.3 6L3.45 6L3.3 6.1L3.25 6.2L3.25 6.25L2.9 6.55M0,6.2L-0.1 6.2L-0.35 6.25L-0.5 6.35L-0.65 6.35L-0.8 6.05L-0.3 6.1L0.2 6.15L0 6.2M-5.5,4.4L-5.6 4.35L-5.6 4.25L-5.05 4.25L-5.5 4.4M-6.45,-0.4L-6.45 -0.6L-6.4 -2L-6.35 -1.6L-5.85 -0.2L-5.85 0.2L-6.45 -0.4M-6,-3.85L-5.95 -3.85L-6.05 -2.95L-6.1 -3.15L-6.1 -3.3L-6.3 -3.6L-6.3 -3.8L-6 -3.85M5.35,-3.4Q6 -3.1 6 -2.65Q6 -1.95 5.25 -1.35Q4.7 -0.95 4 -0.8L4 -0.45Q3.9 0.3 2.85 0.4L2.5 0.4L2 0.3L1.8 0.2L1.65 0.05L1.6 0.2L0.2 0.45L0 0.45Q-0.8 0.45 -1.25 -0.15L-1.6 -1.2L-1.6 -1.5L-1.85 -1.4Q-2.5 -1.4 -2.95 -1.95L-3.55 -3.2Q-3.55 -3.7 -2.95 -4L-2.55 -4.15L-2.4 -4.25L-2.2 -4.25L-2.4 -3.95L-2.85 -3.5L-2.85 -3.4L-2.85 -3.35L-2.9 -3.15Q-2.9 -2.65 -2.7 -2.5Q-2.4 -2.05 -1.6 -2.05L-1 -2.2L-0.8 -2.25L-0.85 -2.2L-0.85 -2.05L-0.9 -1.4L-0.85 -1.2L-0.85 -1.15L-0.55 -0.45L-0.5 -0.45Q-0.35 -0.25 -0.1 -0.2L0.7 -0.1L1.2 -0.1Q1.6 -0.15 1.75 -0.4L2.1 -0.1L2.6 -0.05L3.1 -0.25L3.35 -0.6L3.45 -0.75L3.45 -1.2L3.55 -1.2L3.7 -1.2L4.55 -1.4L4.85 -1.6Q5.95 -2.6 4.85 -3.45L4.75 -3.5L4.65 -3.6L5.35 -3.4M6.1,-7.25L6.1 -6.9L5.7 -6.85L5.3 -7.25Q5.2 -6.7 4.3 -6.7Q3.85 -6.7 3.8 -6.85L3.85 -7.25L3.85 -7.3L3.15 -6.9L3.1 -6.9L2.8 -6.95L2.55 -7.3L2.55 -7.35L2.7 -7.75L2.45 -7.55Q2.15 -7.55 1.85 -7.85L1.65 -8L1.65 -8.2L2.1 -8.5L2.45 -8.65L2.7 -8.8L2.3 -8.8Q2.1 -8.8 2.1 -8.95L2.3 -9.4L3.5 -9.65L4.25 -9.55L3.8 -9.55L3.25 -9.4L2.95 -8.8L2.95 -8.7L2.65 -8.5L2.55 -8.4L2.5 -8.25Q2.5 -8 2.9 -8L2.95 -8Q3.25 -8 3.35 -8.15L3.3 -8L3.25 -7.9Q3.25 -7.45 3.6 -7.45L4 -7.65L4.2 -7.3L4.4 -7.25L4.75 -7.3L5.05 -7.7Q5.35 -7.4 5.65 -7.4L5.95 -7.45L6.1 -7.25M2.85,1.95L3.55 1.75L3.95 1.75L4 1.75L4.85 1.8L4.3 1.8L3.85 1.9L3.8 1.95L3.55 2.4L3.5 2.65L3.2 2.9L3.1 3.1Q3.1 3.35 3.5 3.35L3.95 3.25L3.85 3.4Q3.85 3.85 4.15 3.85L4.6 3.7Q4.6 4.2 4.95 4.2Q5.6 4.2 5.6 3.65L6.1 3.9L6.1 4.5L5.8 4.2Q5.7 4.7 4.85 4.7L4.3 4.55L4.35 4.2L4.35 4.1L3.65 4.5Q3.15 4.5 3.15 4.05L3.25 3.6Q3.2 3.75 2.95 3.75L2.45 3.45L2.2 3.2Q2.2 2.95 2.95 2.7L3.2 2.65L2.85 2.65L2.6 2.45L2.8 2L2.85 1.95" />
</g>
</svg>
